<svg width="510" height="680" viewBox="0 0 510 680" fill="none" xmlns="http://www.w3.org/2000/svg">
<path d="M509.452 679.572C509.452 679.808 395.618 680 255.233 680C114.798 680 0.991211 679.808 0.991211 679.572C0.991211 679.338 114.798 679.144 255.233 679.144C395.618 679.144 509.452 679.338 509.452 679.572Z" fill="#1D2A30"/>
<path d="M398.531 478.89C373.206 461.197 367.46 428.357 368.463 398.837C368.629 393.909 368.088 388.714 370.432 384.391C372.778 380.068 378.247 377.113 382.658 379.19C386.317 380.912 387.912 385.168 389.959 388.689C392.682 393.373 396.741 397.248 401.517 399.727C404.654 401.355 408.536 402.351 411.634 400.643C415.883 398.297 416.385 392.425 416.355 387.524C416.296 378.39 416.241 369.254 416.183 360.121C416.154 355.221 416.139 350.216 417.662 345.566C419.187 340.913 422.555 336.594 427.218 335.287C431.88 333.981 437.645 336.669 438.629 341.466C439.039 343.463 438.632 345.535 438.768 347.569C438.904 349.603 439.853 351.854 441.784 352.421C443.742 352.995 445.702 351.607 447.166 350.172C452.225 345.223 455.658 338.848 458.866 332.509C462.074 326.17 465.189 319.68 469.777 314.283C474.367 308.885 480.716 304.608 487.736 304.211C494.755 303.813 502.232 308.145 504.006 315.035C505.784 321.945 501.753 328.955 497.368 334.548C490.86 342.846 483.162 350.185 474.59 356.261C473.046 357.357 471.371 358.541 470.78 360.357C469.715 363.624 472.811 366.869 476.038 367.944C479.69 369.16 483.654 368.78 487.475 369.231C491.296 369.68 495.437 371.365 496.883 374.978C498.889 379.986 494.701 385.237 490.578 388.676C482.324 395.563 472.898 401.004 462.843 404.687C459.238 406.005 455.443 407.163 452.537 409.695C449.628 412.23 447.874 416.634 449.63 420.085C451.389 423.542 455.897 424.646 459.672 423.946C463.448 423.246 466.83 421.195 470.428 419.838C477.162 417.295 485.86 417.759 490.175 423.58C493.009 427.406 493.26 432.734 491.826 437.295C490.393 441.855 487.483 445.785 484.395 449.407C473.6 462.071 459.782 472.267 444.158 477.685C428.534 483.103 414.057 484.569 398.531 478.89Z" fill="#FFD432"/>
<path d="M496.925 308.314C496.937 308.326 496.775 308.483 496.45 308.78C496.088 309.103 495.606 309.531 494.994 310.076C493.711 311.211 491.819 312.886 489.44 315.108C484.677 319.534 477.987 326.197 470.721 335.312C467.074 339.854 463.285 344.997 459.317 350.592C455.358 356.197 451.164 362.21 446.994 368.698C442.824 375.185 438.648 382.135 434.902 389.645C433.014 393.391 431.329 397.312 429.611 401.309C427.901 405.305 426.167 409.359 424.411 413.462C417.447 429.898 411.321 445.785 406.944 460.625C402.543 475.453 399.923 489.193 398.777 500.839C397.602 512.488 397.843 521.995 398.318 528.52C398.574 531.783 398.823 534.315 399.054 536.023C399.148 536.843 399.223 537.487 399.28 537.971C399.326 538.412 399.343 538.638 399.328 538.641C399.312 538.643 399.266 538.423 399.189 537.986C399.112 537.506 399.007 536.863 398.874 536.048C398.585 534.345 398.277 531.815 397.967 528.548C397.384 522.019 397.044 512.478 398.143 500.777C399.213 489.082 401.777 475.271 406.151 460.384C410.495 445.486 416.613 429.552 423.583 413.103C425.34 408.999 427.078 404.943 428.79 400.945C430.506 396.96 432.209 393.006 434.116 389.242C437.893 381.694 442.101 374.727 446.301 368.239C450.5 361.746 454.722 355.738 458.708 350.149C462.712 344.566 466.539 339.433 470.228 334.904C477.578 325.812 484.364 319.196 489.206 314.844C491.624 312.658 493.553 311.026 494.878 309.937C495.516 309.419 496.014 309.013 496.391 308.708C496.735 308.436 496.916 308.301 496.925 308.314Z" fill="#1D2A30"/>
<path d="M434.373 389.206C434.312 389.215 434.145 388.471 433.894 387.116C433.637 385.761 433.329 383.791 432.985 381.348C432.291 376.47 431.565 369.698 430.791 362.229C430.019 354.757 429.198 348.015 428.432 343.159C428.055 340.731 427.732 338.768 427.491 337.414C427.257 336.058 427.155 335.3 427.218 335.287C427.278 335.273 427.495 336.004 427.834 337.341C428.18 338.676 428.601 340.627 429.058 343.049C429.988 347.895 430.913 354.652 431.686 362.133C432.431 369.505 433.103 376.173 433.617 381.268C433.863 383.57 434.073 385.507 434.242 387.065C434.385 388.434 434.435 389.196 434.373 389.206Z" fill="#1D2A30"/>
<path d="M497.383 377.431C497.385 377.493 496.488 377.596 494.87 377.731C493.254 377.875 490.913 378.07 488.029 378.404C482.259 379.027 474.316 380.168 465.608 381.809C456.902 383.465 449.086 385.299 443.473 386.791C440.658 387.516 438.398 388.165 436.832 388.602C435.268 389.048 434.393 389.265 434.373 389.206C434.353 389.145 435.193 388.814 436.727 388.263C438.265 387.72 440.504 386.976 443.304 386.168C448.891 384.514 456.712 382.573 465.444 380.911C474.177 379.267 482.164 378.222 487.968 377.763C490.87 377.509 493.224 377.411 494.852 377.376C496.481 377.352 497.38 377.367 497.383 377.431Z" fill="#1D2A30"/>
<path d="M406.926 459.225C406.897 459.238 406.749 458.974 406.493 458.456C406.202 457.84 405.846 457.088 405.416 456.178C404.489 454.194 403.223 451.288 401.705 447.678C398.666 440.46 394.779 430.357 390.643 419.151C386.504 407.94 382.717 397.814 379.832 390.543C378.419 387.007 377.255 384.101 376.391 381.94C376.02 381.001 375.717 380.229 375.466 379.593C375.265 379.053 375.173 378.763 375.201 378.749C375.23 378.739 375.378 379.003 375.634 379.519C375.924 380.135 376.279 380.886 376.711 381.798C377.637 383.781 378.904 386.686 380.422 390.296C383.461 397.515 387.346 407.618 391.486 418.83C395.623 430.036 399.41 440.16 402.294 447.434C403.71 450.966 404.872 453.875 405.736 456.035C406.107 456.973 406.41 457.748 406.661 458.381C406.862 458.924 406.954 459.212 406.926 459.225Z" fill="#1D2A30"/>
<path d="M490.657 432.239C490.665 432.27 490.378 432.387 489.826 432.582C489.172 432.801 488.367 433.07 487.395 433.396C485.147 434.126 482.116 435.108 478.428 436.303C470.858 438.759 460.44 442.268 448.935 446.163C437.426 450.062 426.965 453.479 419.342 455.779C415.531 456.93 412.438 457.83 410.287 458.407C409.293 458.668 408.474 458.883 407.808 459.06C407.238 459.199 406.935 459.256 406.926 459.225C406.918 459.196 407.205 459.078 407.756 458.881C408.41 458.663 409.213 458.394 410.189 458.068C412.434 457.34 415.465 456.358 419.154 455.163C426.724 452.709 437.142 449.196 448.652 445.299C460.156 441.403 470.615 437.985 478.239 435.686C482.051 434.536 485.142 433.636 487.295 433.057C488.288 432.796 489.106 432.58 489.775 432.406C490.344 432.267 490.647 432.21 490.657 432.239Z" fill="#1D2A30"/>
<path d="M439.004 109.808L445.006 128.14C445.258 128.916 444.815 129.706 444.066 129.976L435.67 132.979C435.027 133.207 434.204 132.868 433.952 132.092L427.95 113.762C421.447 113.486 415.41 109.177 413.151 102.28C410.249 93.4131 414.79 83.7183 423.3 80.6741C431.804 77.6316 441.073 82.3872 443.976 91.2542C446.233 98.1507 443.989 105.424 439.004 109.808ZM389.81 46.116C386.161 34.9654 391.858 22.7887 402.526 18.974C413.185 15.1593 424.831 21.1313 428.481 32.2835L432.093 43.3144L393.422 57.1485L389.81 46.116ZM456.499 34.5835L448.051 37.6063L444.438 26.5738C437.778 6.22842 416.514 -4.65816 397.067 2.29741C377.609 9.25789 367.206 31.4721 373.868 51.8191L377.479 62.8516L369.004 65.8827C362.413 68.24 358.847 75.8365 361.103 82.7331L384.604 154.518C386.897 161.52 394.172 165.254 400.762 162.897L488.259 131.597C494.955 129.202 498.526 121.588 496.232 114.588L472.731 42.8013C470.474 35.9047 463.195 32.1884 456.499 34.5835Z" fill="#FFD432"/>
<path d="M447.683 37.408C447.763 37.631 432.027 43.521 412.539 50.5651C393.048 57.6108 377.184 63.1418 377.104 62.9188C377.024 62.6975 392.756 56.8075 412.251 49.7618C431.735 42.7177 447.602 37.1867 447.683 37.408Z" fill="#1D2A30"/>
<path d="M466.262 40.4292C466.277 40.4243 466.341 40.5701 466.451 40.8587C466.576 41.1931 466.733 41.616 466.928 42.1422C467.349 43.3389 467.935 45.0012 468.68 47.1126C470.185 51.4994 472.33 57.7451 474.969 65.4367C477.602 73.2021 480.726 82.4183 484.193 92.6492C485.906 97.7851 487.778 103.121 489.573 108.755C490.403 111.588 491.09 114.616 490.803 117.752C490.657 119.309 490.234 120.875 489.475 122.289C488.703 123.696 487.626 124.934 486.377 125.942C483.857 127.956 480.908 129.132 478.057 130.189C475.197 131.217 472.375 132.23 469.607 133.224C464.066 135.207 458.722 137.12 453.628 138.943C443.452 142.566 434.281 145.831 426.557 148.582C418.887 151.28 412.659 153.471 408.282 155.01C406.166 155.736 404.497 156.307 403.3 156.716C402.766 156.89 402.336 157.03 401.997 157.141C401.7 157.231 401.546 157.272 401.541 157.257C401.538 157.244 401.681 157.177 401.966 157.059C402.299 156.928 402.718 156.762 403.241 156.556C404.426 156.108 406.075 155.487 408.169 154.697C412.525 153.097 418.721 150.82 426.354 148.013C434.058 145.215 443.207 141.891 453.363 138.204C458.45 136.364 463.789 134.437 469.323 132.438C472.092 131.438 474.907 130.422 477.766 129.391C480.592 128.343 483.462 127.183 485.839 125.278C487.018 124.327 488.011 123.18 488.726 121.884C489.424 120.58 489.818 119.135 489.957 117.671C490.234 114.726 489.583 111.781 488.77 108.993C487.005 103.413 485.136 98.0277 483.447 92.8984C480.046 82.6478 476.98 73.4103 474.397 65.6269C471.866 57.9009 469.808 51.6256 468.364 47.2175C467.684 45.0848 467.149 43.4062 466.766 42.198C466.602 41.6587 466.472 41.2275 466.369 40.8849C466.285 40.5882 466.248 40.4341 466.262 40.4292Z" fill="#1D2A30"/>
<path d="M420.11 17.8216C420.065 17.8937 419.237 17.3822 417.628 16.7331C416.013 16.1151 413.569 15.397 410.472 15.2987C407.395 15.1856 403.651 15.6609 399.912 17.2937C396.189 18.9068 392.52 21.7706 389.892 25.6656C387.214 29.5475 386.042 34.0408 386.04 38.1145C386.005 42.2062 386.874 45.8504 387.709 48.8405C388.573 51.8338 389.456 54.2092 390.038 55.8583C390.627 57.5074 390.945 58.4255 390.886 58.4484C390.833 58.4681 390.412 57.5943 389.727 55.9796C389.05 54.3633 388.079 52.0158 387.13 49.0142C386.214 46.0159 385.263 42.3259 385.253 38.1096C385.209 33.9163 386.409 29.2049 389.184 25.187C391.909 21.1477 395.728 18.2019 399.6 16.5708C403.487 14.9233 407.346 14.502 410.5 14.6954C413.675 14.8741 416.156 15.7052 417.757 16.4282C418.551 16.8167 419.159 17.1331 419.539 17.4019C419.929 17.6544 420.124 17.797 420.11 17.8216Z" fill="#1D2A30"/>
<path d="M420.854 81.9691C420.844 81.9478 421.128 81.8068 421.685 81.5544C422.236 81.297 423.082 80.9692 424.214 80.6446C425.336 80.2921 426.775 80.0364 428.473 79.938C430.167 79.8528 432.162 80.0282 434.224 80.7938C438.412 82.2675 442.273 86.5493 444.168 92.2213C445.079 95.0868 445.161 98.4146 444.243 101.633C443.268 104.837 441.475 107.913 438.884 110.496L438.991 110.062C441.168 116.036 443.54 122.539 446.007 129.304L446.156 129.715L445.742 129.855C444.555 130.253 443.278 130.681 441.994 131.111C439.234 132.035 436.511 132.947 433.839 133.843L433.435 133.978L433.301 133.573C431.055 126.776 428.595 120.368 426.809 114.244L427.162 114.522C423.806 114.299 420.791 112.89 418.39 111.054C415.978 109.2 414.131 106.898 412.884 104.477C411.659 102.047 411.043 99.4687 411.147 97.0933C411.208 94.718 411.756 92.5705 412.523 90.7591C414.051 87.1034 416.331 84.8051 418.018 83.5511C419.737 82.2954 420.854 81.9691 420.854 81.9691C420.893 82.0429 419.813 82.4527 418.172 83.7511C416.564 85.0461 414.39 87.3477 412.961 90.9377C411.533 94.4409 410.913 99.4752 413.467 104.177C414.692 106.498 416.497 108.708 418.829 110.477C421.152 112.227 424.05 113.547 427.206 113.74L427.483 113.757L427.56 114.019C429.367 120.101 431.842 126.483 434.108 133.307L433.57 133.038C436.239 132.142 438.963 131.229 441.724 130.302C443.007 129.873 444.283 129.445 445.471 129.047L445.206 129.596C442.755 122.824 440.399 116.314 438.235 110.336L438.148 110.093L438.344 109.901C440.796 107.477 442.583 104.47 443.524 101.421C444.419 98.3442 444.365 95.1819 443.517 92.4213C441.725 86.9149 438.042 82.7282 434.047 81.2593C432.073 80.4889 430.144 80.279 428.485 80.3233C426.822 80.3823 425.401 80.5921 424.282 80.9003C422.029 81.479 420.882 82.0396 420.854 81.9691Z" fill="#1D2A30"/>
<path d="M370.19 555.292L206.456 554.534C186.763 554.444 170.87 538.41 170.954 518.717L172.688 108.229C172.772 88.5263 188.815 72.6234 208.52 72.7135L372.255 73.4693C391.948 73.5611 407.839 89.5951 407.756 109.286L406.021 519.776C405.938 539.479 389.894 555.382 370.19 555.292Z" fill="#365462"/>
<path d="M372.022 87.6362L340.275 87.4903C336.02 87.4706 332.551 91.064 332.535 95.5131L332.508 101.272C332.49 105.723 329.023 109.314 324.766 109.295L262.887 109.008C258.632 108.99 255.196 105.365 255.214 100.915L255.238 95.1557C255.256 90.705 251.82 87.0821 247.563 87.0624L236.398 87.01L208.613 86.8821C194.813 86.8182 183.578 97.9556 183.519 111.755L181.825 512.421C181.766 526.214 192.897 537.443 206.689 537.507L370.098 538.261C383.896 538.325 395.131 527.187 395.19 513.388L396.885 112.721C396.943 98.9294 385.814 87.7001 372.022 87.6362Z" fill="white"/>
<path d="M350.031 484.813L228.519 484.252C227.26 484.246 226.247 482.877 226.254 481.194L226.388 449.404C226.395 447.721 227.421 446.36 228.68 446.365L350.19 446.927C351.449 446.934 352.464 448.303 352.455 449.986L352.321 481.774C352.314 483.457 351.288 484.818 350.031 484.813Z" fill="#110066"/>
<path d="M264.835 465.912C264.272 465.91 263.731 465.817 263.212 465.634C262.701 465.451 262.305 465.212 262.025 464.914L262.341 464.299C262.614 464.574 262.978 464.8 263.432 464.975C263.885 465.143 264.354 465.228 264.837 465.23C265.516 465.234 266.025 465.113 266.365 464.87C266.705 464.619 266.876 464.295 266.878 463.898C266.879 463.595 266.786 463.353 266.599 463.171C266.42 462.99 266.197 462.852 265.93 462.757C265.664 462.655 265.293 462.545 264.817 462.427C264.247 462.28 263.793 462.141 263.455 462.01C263.116 461.871 262.825 461.664 262.581 461.389C262.344 461.113 262.226 460.741 262.228 460.272C262.23 459.89 262.333 459.544 262.536 459.235C262.739 458.918 263.051 458.667 263.47 458.481C263.889 458.296 264.409 458.204 265.029 458.207C265.462 458.209 265.884 458.273 266.295 458.397C266.713 458.515 267.073 458.679 267.375 458.889L267.102 459.526C266.785 459.316 266.447 459.159 266.087 459.056C265.726 458.946 265.373 458.891 265.027 458.889C264.363 458.886 263.861 459.014 263.521 459.272C263.188 459.523 263.02 459.85 263.019 460.254C263.017 460.557 263.106 460.803 263.286 460.992C263.473 461.173 263.703 461.315 263.977 461.417C264.258 461.512 264.633 461.618 265.101 461.736C265.656 461.876 266.103 462.015 266.441 462.153C266.787 462.285 267.079 462.488 267.315 462.763C267.552 463.032 267.67 463.396 267.668 463.858C267.666 464.241 267.56 464.59 267.35 464.907C267.146 465.216 266.831 465.463 266.405 465.649C265.979 465.827 265.455 465.915 264.835 465.912ZM269.437 458.293L270.237 458.296L270.205 465.872L269.404 465.868L269.437 458.293ZM279.034 458.337L279.002 465.913L278.341 465.91L273.497 459.74L273.471 465.887L272.67 465.884L272.702 458.308L273.363 458.311L278.218 464.481L278.244 458.333L279.034 458.337ZM286.826 462.161L287.594 462.164L287.582 465.054C287.227 465.363 286.808 465.599 286.324 465.763C285.839 465.926 285.33 466.007 284.797 466.004C284.039 466.001 283.358 465.832 282.753 465.497C282.148 465.162 281.674 464.702 281.33 464.116C280.987 463.523 280.816 462.862 280.819 462.133C280.822 461.404 280.998 460.749 281.347 460.166C281.696 459.576 282.174 459.116 282.782 458.787C283.389 458.458 284.075 458.295 284.84 458.299C285.417 458.301 285.947 458.398 286.43 458.588C286.912 458.77 287.319 459.043 287.649 459.405L287.149 459.911C286.553 459.317 285.793 459.018 284.869 459.013C284.256 459.01 283.7 459.145 283.201 459.417C282.709 459.682 282.322 460.055 282.038 460.537C281.755 461.012 281.612 461.545 281.609 462.137C281.607 462.728 281.745 463.263 282.025 463.741C282.304 464.218 282.688 464.595 283.178 464.871C283.667 465.148 284.219 465.288 284.832 465.29C285.611 465.294 286.272 465.102 286.815 464.715L286.826 462.161ZM295.729 466.055C294.748 466.05 293.984 465.766 293.438 465.2C292.892 464.635 292.622 463.815 292.626 462.74L292.644 458.4L293.445 458.404L293.427 462.711C293.423 463.591 293.619 464.249 294.014 464.683C294.409 465.118 294.982 465.337 295.732 465.341C296.49 465.344 297.068 465.13 297.466 464.699C297.865 464.268 298.066 463.613 298.07 462.732L298.088 458.425L298.867 458.429L298.849 462.768C298.845 463.843 298.567 464.661 298.016 465.221C297.473 465.782 296.71 466.06 295.729 466.055ZM304.116 458.453C305.083 458.457 305.84 458.692 306.386 459.156C306.933 459.62 307.204 460.256 307.201 461.065C307.197 461.873 306.92 462.506 306.37 462.966C305.82 463.418 305.061 463.641 304.094 463.637L302.06 463.627L302.05 466.019L301.249 466.016L301.281 458.44L304.116 458.453ZM304.076 462.933C304.826 462.937 305.4 462.777 305.799 462.454C306.197 462.124 306.397 461.66 306.4 461.061C306.402 460.448 306.206 459.978 305.81 459.651C305.415 459.317 304.842 459.149 304.092 459.145L302.079 459.136L302.063 462.924L304.076 462.933Z" fill="#EBEBE4"/>
<path d="M252.691 213.122L210.535 212.926L210.567 205.191L252.724 205.386L252.691 213.122Z" fill="#F03658"/>
<path d="M252.691 213.122L210.535 212.926L210.567 205.191L252.724 205.386L252.691 213.122Z" fill="#FFD432"/>
<path d="M376.36 252.853C376.353 252.821 376.712 252.873 377.322 252.627C377.897 252.404 378.806 251.706 378.911 250.422C378.906 247.808 378.897 244.008 378.888 239.127C378.888 236.672 378.886 233.944 378.884 230.96C378.886 230.215 378.886 229.452 378.886 228.674C378.907 227.879 378.906 227.139 378.427 226.526C377.996 225.92 377.258 225.531 376.488 225.528C375.648 225.526 374.791 225.525 373.921 225.523C366.945 225.51 359.009 225.493 350.242 225.477C315.124 225.346 266.658 225.167 213.129 224.969C212.423 224.962 211.733 225.308 211.323 225.882C210.867 226.461 210.887 227.146 210.898 228.024C210.89 229.688 210.884 231.346 210.875 233C210.862 236.305 210.848 239.59 210.833 242.849C210.826 244.48 210.818 246.103 210.81 247.721C210.836 248.496 210.734 249.424 210.879 250.026C211.041 250.685 211.539 251.242 212.159 251.504C212.48 251.635 212.782 251.681 213.172 251.678L214.372 251.685L216.765 251.694C218.357 251.703 219.942 251.711 221.521 251.719C234.145 251.786 246.322 251.852 257.925 251.912C281.12 252.053 302.011 252.181 319.568 252.288C337.089 252.427 351.28 252.539 361.122 252.616C366.004 252.673 369.806 252.717 372.421 252.748C373.689 252.773 374.665 252.791 375.358 252.804C376.02 252.822 376.36 252.853 376.36 252.853C376.36 252.853 376.02 252.881 375.358 252.891C374.665 252.899 373.689 252.909 372.421 252.921C369.804 252.927 366.003 252.937 361.121 252.948C351.277 252.935 337.087 252.916 319.565 252.893C302.009 252.837 281.118 252.771 257.922 252.699C246.319 252.653 234.142 252.606 221.518 252.555C219.939 252.548 218.354 252.544 216.762 252.535L214.369 252.526L213.169 252.521C212.759 252.529 212.251 252.465 211.831 252.281C210.972 251.921 210.289 251.152 210.061 250.24C209.931 249.778 209.961 249.308 209.959 248.929L209.964 247.717C209.971 246.099 209.977 244.475 209.984 242.845C209.997 239.585 210.01 236.301 210.023 232.996C210.03 231.342 210.038 229.685 210.044 228.021C210.056 227.595 210.02 227.221 210.085 226.711C210.159 226.233 210.344 225.77 210.633 225.38C211.195 224.588 212.162 224.103 213.133 224.115C266.661 224.41 315.127 224.679 350.242 224.874C359.013 224.938 366.949 224.995 373.924 225.046C374.794 225.052 375.652 225.059 376.491 225.067C377.411 225.075 378.283 225.547 378.786 226.269C379.347 226.975 379.342 227.943 379.311 228.675C379.304 229.454 379.299 230.216 379.293 230.962C379.266 233.946 379.242 236.673 379.22 239.129C379.16 244.014 379.114 247.819 379.081 250.435C378.938 251.803 377.958 252.504 377.353 252.709C376.712 252.934 376.36 252.853 376.36 252.853Z" fill="#E3E3E2"/>
<path d="M298.967 242.532L221.849 242.175L221.88 234.946L298.998 235.301L298.967 242.532Z" fill="#F03658"/>
<path d="M298.967 242.532L276.472 242.427C277.741 240.468 279.215 238.498 280.056 237.483C280.752 236.644 281.146 235.865 281.28 235.219L298.998 235.301L298.967 242.532ZM271.126 242.403L263.589 242.368C262.861 239.221 261.509 237.024 260.569 236.541C260.36 236.433 260.146 236.383 259.94 236.383C258.884 236.383 258.009 237.664 258.605 238.855C259.015 239.673 259.317 241.031 259.532 242.349L221.849 242.175L221.88 234.946L277.572 235.203C275.408 237.318 272.449 240.75 271.126 242.403Z" fill="#F4AC12"/>
<path d="M252.393 283.715L210.236 283.52L210.269 275.786L252.425 275.979L252.393 283.715Z" fill="#F03658"/>
<path d="M227.788 283.602L210.236 283.52L210.269 275.786L235.822 275.904C233 278.608 230.241 281.253 227.788 283.602Z" fill="#FFD432"/>
<path d="M375.278 323.443C375.275 323.414 375.622 323.445 376.25 323.26C376.845 323.065 377.804 322.573 378.325 321.402C378.606 320.825 378.635 320.125 378.609 319.324C378.606 318.527 378.602 317.66 378.599 316.719C378.596 314.832 378.591 312.662 378.588 310.221C378.588 307.773 378.586 305.055 378.586 302.083C378.586 301.339 378.586 300.58 378.586 299.805C378.62 299.021 378.525 298.295 378.107 297.641C377.712 296.998 377.073 296.488 376.325 296.26C375.591 296.028 374.714 296.154 373.848 296.118C366.898 296.105 358.988 296.088 350.249 296.072C315.255 295.942 266.958 295.764 213.615 295.565C212.131 295.529 210.764 296.738 210.621 298.205C210.572 299.764 210.595 301.487 210.579 303.113C210.564 306.406 210.551 309.68 210.536 312.927C210.53 314.552 210.521 316.17 210.515 317.783C210.541 318.588 210.426 319.429 210.618 320.071C210.803 320.748 211.236 321.355 211.815 321.752C212.415 322.157 213.066 322.306 213.853 322.276L216.238 322.288C217.825 322.296 219.403 322.304 220.977 322.312C233.557 322.38 245.693 322.443 257.255 322.504C280.369 322.645 301.188 322.773 318.683 322.879C336.144 323.017 350.285 323.13 360.093 323.206C364.959 323.265 368.747 323.309 371.352 323.338C372.617 323.363 373.589 323.381 374.281 323.394C374.94 323.412 375.278 323.443 375.278 323.443C375.278 323.443 374.94 323.471 374.28 323.481C373.589 323.489 372.616 323.499 371.35 323.511C368.747 323.517 364.957 323.527 360.091 323.54C350.283 323.525 336.141 323.507 318.679 323.483C301.185 323.429 280.367 323.363 257.25 323.291C245.689 323.245 233.554 323.197 220.972 323.148C219.4 323.142 217.82 323.135 216.233 323.129L213.849 323.119C213.048 323.161 212.062 322.966 211.338 322.45C210.595 321.942 210.041 321.166 209.803 320.294C209.559 319.376 209.705 318.578 209.669 317.778C209.674 316.167 209.68 314.549 209.687 312.924C209.7 309.675 209.713 306.403 209.726 303.108C209.746 301.441 209.713 299.855 209.774 298.105C209.956 296.216 211.716 294.664 213.618 294.713C266.961 295.006 315.258 295.274 350.252 295.469C358.991 295.533 366.899 295.59 373.85 295.641C374.707 295.687 375.575 295.547 376.462 295.819C377.317 296.088 378.042 296.674 378.484 297.41C378.955 298.129 379.057 299.049 379.009 299.806C379.002 300.582 378.998 301.341 378.993 302.085C378.966 305.057 378.94 307.775 378.921 310.222C378.894 312.663 378.871 314.834 378.853 316.721C378.842 317.66 378.832 318.529 378.822 319.325C378.837 320.106 378.791 320.883 378.483 321.473C377.906 322.691 376.893 323.171 376.273 323.343C375.622 323.506 375.278 323.443 375.278 323.443Z" fill="#E3E3E2"/>
<path d="M252.083 357.341L209.925 357.147L209.957 349.412L252.115 349.605L252.083 357.341Z" fill="#F03658"/>
<path d="M252.083 357.341L209.925 357.147L209.957 349.412L252.115 349.605L252.083 357.341Z" fill="#FFD432"/>
<path d="M374.966 397.069C374.965 397.042 375.311 397.071 375.937 396.887C376.535 396.692 377.493 396.199 378.014 395.028C378.294 394.451 378.322 393.751 378.297 392.95C378.294 392.153 378.291 391.286 378.288 390.347C378.284 388.458 378.281 386.288 378.276 383.848C378.275 381.401 378.275 378.681 378.273 375.709C378.273 374.967 378.275 374.206 378.275 373.429C378.309 372.647 378.216 371.921 377.796 371.267C377.401 370.624 376.761 370.114 376.014 369.885C375.281 369.654 374.404 369.78 373.535 369.744C366.586 369.729 358.678 369.716 349.939 369.698C314.942 369.568 266.646 369.388 213.303 369.191C211.821 369.155 210.453 370.364 210.31 371.831C210.261 373.39 210.285 375.113 210.269 376.739C210.254 380.032 210.239 383.306 210.225 386.553C210.218 388.178 210.212 389.796 210.203 391.409C210.231 392.212 210.116 393.053 210.307 393.696C210.492 394.376 210.925 394.981 211.503 395.378C212.103 395.783 212.754 395.933 213.541 395.902L215.926 395.914C217.513 395.922 219.092 395.93 220.665 395.938C233.245 396.006 245.381 396.069 256.942 396.13C280.057 396.273 300.875 396.399 318.369 396.505C335.831 396.643 349.972 396.756 359.782 396.833C364.647 396.891 368.435 396.935 371.04 396.966C372.304 396.989 373.278 397.007 373.968 397.022C374.627 397.04 374.966 397.069 374.966 397.069C374.966 397.069 374.627 397.097 373.968 397.109C373.276 397.114 372.304 397.124 371.04 397.137C368.434 397.143 364.645 397.153 359.78 397.166C349.97 397.151 335.83 397.133 318.366 397.11C300.872 397.055 280.054 396.989 256.938 396.917C245.378 396.871 233.242 396.825 220.66 396.774C219.088 396.769 217.508 396.761 215.921 396.755L213.538 396.745C212.736 396.787 211.751 396.592 211.026 396.076C210.285 395.566 209.73 394.791 209.49 393.92C209.248 393.002 209.394 392.202 209.357 391.404C209.364 389.793 209.369 388.173 209.375 386.55C209.389 383.301 209.402 380.029 209.415 376.734C209.434 375.065 209.402 373.481 209.464 371.729C209.644 369.842 211.405 368.29 213.308 368.339C266.649 368.632 314.945 368.901 349.942 369.095C358.68 369.159 366.588 369.216 373.539 369.267C374.398 369.311 375.263 369.175 376.15 369.447C377.006 369.714 377.729 370.301 378.175 371.036C378.645 371.757 378.745 372.675 378.699 373.432C378.693 374.208 378.686 374.968 378.679 375.711C378.655 378.683 378.63 381.401 378.609 383.848C378.584 386.289 378.561 388.46 378.542 390.348C378.53 391.286 378.52 392.155 378.511 392.95C378.524 393.733 378.478 394.509 378.171 395.101C377.594 396.317 376.581 396.797 375.963 396.971C375.311 397.13 374.966 397.069 374.966 397.069Z" fill="#E3E3E2"/>
<path d="M298.67 313.126L221.551 312.77L221.582 305.539L298.7 305.895L298.67 313.126Z" fill="#F03658"/>
<path d="M298.67 313.126L233.598 312.826C235.596 310.858 237.924 308.393 240.434 305.626L298.699 305.895L298.67 313.126Z" fill="#F4AC12"/>
<path d="M228.588 383.688C228.578 385.673 227.062 387.275 225.201 387.268C223.339 387.258 221.836 385.64 221.844 383.655C221.854 381.671 223.37 380.067 225.231 380.076C227.093 380.085 228.595 381.701 228.588 383.688Z" fill="#F03658"/>
<path d="M239.035 383.735C239.026 385.721 237.509 387.324 235.649 387.316C233.786 387.307 232.283 385.691 232.291 383.704C232.299 381.719 233.816 380.116 235.678 380.124C237.54 380.132 239.042 381.749 239.035 383.735Z" fill="#F03658"/>
<path d="M249.481 383.784C249.473 385.77 247.956 387.373 246.094 387.363C244.234 387.355 242.73 385.739 242.739 383.752C242.747 381.766 244.263 380.165 246.125 380.171C247.986 380.18 249.491 381.798 249.481 383.784Z" fill="#F03658"/>
<path d="M259.928 383.832C259.92 385.817 258.404 387.42 256.541 387.411C254.681 387.404 253.178 385.786 253.186 383.799C253.194 381.814 254.71 380.212 256.573 380.221C258.435 380.23 259.938 381.847 259.928 383.832Z" fill="#F03658"/>
<path d="M270.375 383.88C270.367 385.866 268.851 387.47 266.989 387.46C265.128 387.452 263.625 385.835 263.631 383.85C263.641 381.863 265.158 380.26 267.02 380.268C268.882 380.278 270.384 381.894 270.375 383.88Z" fill="#F03658"/>
<path d="M280.823 383.929C280.815 385.914 279.298 387.517 277.434 387.507C275.574 387.499 274.072 385.883 274.08 383.898C274.087 381.911 275.603 380.308 277.466 380.316C279.33 380.326 280.831 381.944 280.823 383.929Z" fill="#F03658"/>
<path d="M291.27 383.976C291.26 385.963 289.744 387.565 287.882 387.557C286.021 387.548 284.52 385.93 284.528 383.945C284.534 381.958 286.051 380.357 287.913 380.367C289.775 380.373 291.278 381.991 291.27 383.976Z" fill="#F03658"/>
<path d="M301.716 384.024C301.708 386.011 300.191 387.614 298.329 387.606C296.468 387.596 294.965 385.98 294.975 383.994C294.983 382.009 296.498 380.404 298.36 380.414C300.222 380.422 301.726 382.039 301.716 384.024Z" fill="#F03658"/>
<path d="M312.163 384.073C312.155 386.058 310.638 387.661 308.778 387.653C306.916 387.645 305.412 386.029 305.421 384.042C305.43 382.057 306.945 380.453 308.807 380.462C310.67 380.47 312.173 382.086 312.163 384.073Z" fill="#F03658"/>
<path d="M225.214 387.268C225.209 387.268 225.206 387.268 225.201 387.268C223.346 387.258 221.849 385.653 221.844 383.68C221.844 383.671 221.844 383.663 221.844 383.655C221.854 381.676 223.36 380.076 225.214 380.076C225.219 380.076 225.226 380.076 225.231 380.076C227.086 380.085 228.583 381.688 228.588 383.665C228.588 383.673 228.588 383.68 228.588 383.688C228.578 385.668 227.07 387.268 225.214 387.268Z" fill="#F4AC12"/>
<path d="M235.662 387.316C235.657 387.316 235.653 387.316 235.649 387.316C233.793 387.307 232.296 385.702 232.291 383.727C232.291 383.719 232.291 383.711 232.291 383.704C232.299 381.724 233.809 380.124 235.665 380.124C235.67 380.124 235.673 380.124 235.678 380.124C237.534 380.132 239.03 381.737 239.035 383.712C239.035 383.721 239.035 383.729 239.035 383.735C239.026 385.716 237.517 387.316 235.662 387.316Z" fill="#F4AC12"/>
<path d="M246.111 387.363C246.106 387.363 246.101 387.363 246.094 387.363C244.24 387.355 242.742 385.752 242.739 383.775C242.739 383.768 242.739 383.76 242.739 383.752C242.747 381.771 244.257 380.171 246.111 380.171C246.115 380.171 246.12 380.171 246.125 380.171C247.979 380.18 249.478 381.785 249.481 383.76C249.481 383.768 249.481 383.776 249.481 383.785C249.473 385.763 247.965 387.363 246.111 387.363Z" fill="#F4AC12"/>
<path d="M256.558 387.411C256.553 387.411 256.548 387.411 256.542 387.411C254.688 387.404 253.189 385.799 253.186 383.824C253.186 383.816 253.186 383.807 253.186 383.799C253.194 381.821 254.704 380.221 256.558 380.221C256.563 380.221 256.568 380.221 256.573 380.221C258.427 380.23 259.925 381.834 259.928 383.809C259.928 383.816 259.928 383.824 259.928 383.832C259.92 385.811 258.414 387.411 256.558 387.411Z" fill="#F4AC12"/>
<path d="M267.007 387.46C267 387.46 266.995 387.46 266.989 387.46C265.135 387.452 263.636 385.847 263.631 383.873C263.631 383.865 263.631 383.857 263.631 383.85C263.641 381.868 265.151 380.268 267.005 380.268C267.01 380.268 267.015 380.268 267.02 380.268C268.874 380.278 270.372 381.883 270.375 383.857C270.375 383.865 270.375 383.871 270.375 383.88C270.367 385.86 268.861 387.46 267.007 387.46Z" fill="#F4AC12"/>
<path d="M277.452 387.507C277.446 387.507 277.441 387.507 277.434 387.507C275.58 387.499 274.084 385.896 274.08 383.921C274.08 383.912 274.08 383.906 274.08 383.898C274.087 381.916 275.597 380.316 277.451 380.316C277.456 380.316 277.461 380.316 277.466 380.316C279.321 380.326 280.818 381.93 280.823 383.904C280.823 383.912 280.823 383.921 280.823 383.929C280.815 385.909 279.308 387.507 277.452 387.507Z" fill="#F4AC12"/>
<path d="M287.896 387.557C287.892 387.557 287.887 387.557 287.882 387.557C286.028 387.548 284.531 385.943 284.528 383.968C284.528 383.962 284.528 383.953 284.528 383.945C284.534 381.965 286.042 380.367 287.896 380.367C287.901 380.367 287.908 380.367 287.913 380.367C289.767 380.373 291.267 381.978 291.27 383.953C291.27 383.96 291.27 383.968 291.27 383.976C291.26 385.958 289.752 387.557 287.896 387.557Z" fill="#F4AC12"/>
<path d="M298.344 387.606C298.339 387.606 298.334 387.606 298.329 387.606C296.475 387.596 294.977 385.993 294.975 384.017C294.975 384.009 294.975 384.001 294.975 383.994C294.983 382.014 296.49 380.414 298.344 380.414C298.349 380.414 298.355 380.414 298.36 380.414C300.214 380.422 301.714 382.026 301.716 384.001C301.716 384.009 301.716 384.016 301.716 384.024C301.708 386.006 300.199 387.606 298.344 387.606Z" fill="#F4AC12"/>
<path d="M308.791 387.653C308.786 387.653 308.781 387.653 308.778 387.653C306.922 387.645 305.424 386.04 305.421 384.065C305.421 384.057 305.421 384.05 305.421 384.042C305.43 382.062 306.939 380.462 308.794 380.462C308.798 380.462 308.802 380.462 308.807 380.462C310.661 380.47 312.161 382.075 312.163 384.05C312.163 384.058 312.163 384.066 312.163 384.073C312.155 386.053 310.647 387.653 308.791 387.653Z" fill="#F4AC12"/>
<path d="M297.326 147.413C299.532 146.487 301.101 144.214 301.114 141.532C301.129 138.02 298.47 135.161 295.178 135.147C291.887 135.13 289.205 137.964 289.19 141.478C289.178 144.182 290.759 146.484 292.99 147.413C283.815 148.795 284.231 158.766 284.231 158.766L305.926 158.867C305.926 158.867 306.421 148.787 297.326 147.413Z" fill="#F03658"/>
<path d="M305.925 158.867L284.231 158.766C284.231 158.766 284.228 158.698 284.228 158.571C284.228 157.171 284.577 148.681 292.99 147.413C290.768 146.489 289.191 144.2 289.19 141.509C289.19 141.497 289.19 141.487 289.19 141.478C289.205 137.974 291.872 135.147 295.152 135.147C295.16 135.147 295.168 135.147 295.178 135.147C298.465 135.161 301.117 138.009 301.114 141.512C301.114 141.518 301.114 141.525 301.114 141.532C301.101 144.214 299.532 146.487 297.326 147.413C305.532 148.653 305.93 156.98 305.93 158.595C305.93 158.771 305.925 158.867 305.925 158.867Z" fill="#110066"/>
<path d="M332.541 174.644L255.177 174.286L255.217 165.037L332.579 165.393L332.541 174.644Z" fill="#F03658"/>
<path d="M332.541 174.644L255.177 174.286L255.217 165.037L332.579 165.393L332.541 174.644Z" fill="#F4AC12"/>
<path d="M127.997 671.72V657.694L102.867 657.527L102.658 678.715L104.216 678.831C111.148 679.279 139.494 679.931 144.139 678.493C149.32 676.889 127.997 671.72 127.997 671.72Z" fill="#FFD432"/>
<path d="M144.735 677.177C144.735 677.415 135.333 677.605 123.74 677.605C112.142 677.605 102.742 677.415 102.742 677.177C102.742 676.943 112.142 676.751 123.74 676.751C135.333 676.751 144.735 676.943 144.735 677.177Z" fill="#1D2A30"/>
<path d="M128.44 674.582C128.233 674.474 128.41 673.733 128.95 673.002C129.487 672.269 130.145 671.88 130.309 672.044C130.478 672.215 130.133 672.831 129.638 673.508C129.14 674.182 128.65 674.695 128.44 674.582Z" fill="#1D2A30"/>
<path d="M130.043 675.507C129.825 675.425 129.938 674.594 130.432 673.72C130.923 672.843 131.577 672.316 131.759 672.461C131.948 672.608 131.632 673.325 131.176 674.139C130.715 674.951 130.266 675.592 130.043 675.507Z" fill="#1D2A30"/>
<path d="M110.314 677.115C110.216 677.184 109.842 676.816 109.299 676.198C108.752 675.587 108.035 674.72 107.095 673.99C106.16 673.262 105.134 672.897 104.375 672.802C103.611 672.7 103.109 672.818 103.067 672.695C103.022 672.603 103.49 672.252 104.395 672.199C105.288 672.138 106.549 672.477 107.614 673.313C108.676 674.141 109.353 675.128 109.785 675.843C110.214 676.564 110.409 677.049 110.314 677.115Z" fill="#1D2A30"/>
<path d="M128.515 671.946C128.638 672.144 128.207 672.631 127.491 672.893C126.774 673.159 126.128 673.066 126.096 672.836C126.058 672.6 126.568 672.327 127.196 672.094C127.825 671.862 128.391 671.743 128.515 671.946Z" fill="#1D2A30"/>
<path d="M128.122 670.591C128.145 670.825 127.474 671.027 126.627 671.038C125.778 671.049 125.102 670.867 125.119 670.632C125.135 670.395 125.804 670.196 126.614 670.185C127.423 670.174 128.099 670.356 128.122 670.591Z" fill="#1D2A30"/>
<path d="M189.884 671.72V657.694L164.752 657.527L164.544 678.5L166.101 678.615C173.034 679.064 201.381 679.931 206.026 678.493C211.207 676.889 189.884 671.72 189.884 671.72Z" fill="#FFD432"/>
<path d="M206.62 677.21C206.62 677.444 197.22 677.636 185.625 677.636C174.027 677.636 164.629 677.444 164.629 677.21C164.629 676.974 174.027 676.782 185.625 676.782C197.22 676.782 206.62 676.974 206.62 677.21Z" fill="#1D2A30"/>
<path d="M190.327 674.582C190.12 674.474 190.297 673.733 190.837 673.002C191.374 672.269 192.032 671.88 192.196 672.044C192.364 672.215 192.02 672.831 191.525 673.508C191.025 674.182 190.537 674.695 190.327 674.582Z" fill="#1D2A30"/>
<path d="M191.93 675.507C191.71 675.425 191.824 674.594 192.319 673.72C192.81 672.843 193.464 672.316 193.646 672.461C193.835 672.608 193.519 673.325 193.063 674.139C192.602 674.951 192.151 675.592 191.93 675.507Z" fill="#1D2A30"/>
<path d="M172.201 677.115C172.103 677.184 171.729 676.816 171.185 676.198C170.637 675.587 169.921 674.72 168.98 673.99C168.047 673.262 167.021 672.897 166.262 672.802C165.498 672.7 164.996 672.818 164.954 672.695C164.909 672.603 165.377 672.252 166.282 672.199C167.173 672.138 168.436 672.477 169.501 673.313C170.563 674.141 171.239 675.128 171.672 675.843C172.101 676.564 172.296 677.049 172.201 677.115Z" fill="#1D2A30"/>
<path d="M190.402 671.946C190.525 672.144 190.094 672.631 189.378 672.893C188.66 673.159 188.015 673.066 187.981 672.836C187.945 672.6 188.453 672.327 189.081 672.094C189.712 671.862 190.278 671.743 190.402 671.946Z" fill="#1D2A30"/>
<path d="M190.007 670.591C190.032 670.825 189.361 671.027 188.512 671.038C187.664 671.049 186.989 670.867 187.005 670.632C187.022 670.395 187.691 670.196 188.5 670.185C189.31 670.174 189.986 670.356 190.007 670.591Z" fill="#1D2A30"/>
<path d="M282.465 255.507C281.808 254.832 280.197 255.15 280.197 255.15C280.197 255.15 280.479 253.234 280.18 252.307C279.885 251.381 277.818 251.56 277.818 251.56C277.818 251.56 277.69 250.668 277.87 249.229C277.916 248.868 277.716 248.603 277.39 248.404C276.411 247.812 274.302 247.84 274.302 247.84C273.036 246.937 278.157 239.775 280.056 237.483C281.933 235.219 281.616 233.405 279.923 233.408C278.769 233.41 272.79 240.293 270.966 242.604C269.143 244.914 264.251 251.342 264.086 246.211C263.918 241.082 261.858 237.203 260.569 236.541C259.282 235.88 257.892 237.431 258.605 238.855C259.181 240.006 259.545 242.224 259.751 243.901C259.922 245.285 259.866 246.688 259.563 248.047C258.707 251.891 257.789 254.386 257.356 255.452L257.23 255.38C257.23 255.38 221.449 289.688 218.87 292.138C216.549 294.342 170.055 289.531 160.741 288.544C158.195 288.259 154.424 287.748 151.157 287.89C147.116 288.067 146.398 288.641 142.354 288.695C129.971 288.861 119.651 290.066 111.971 291.365C102.686 292.938 95.075 299.546 92.2013 308.514C82.7999 337.854 61.5313 407.312 57.7404 446.334C54.7557 451.947 51.4196 458.502 50.0639 462.191C47.4302 469.363 48.0692 469.607 48.9573 469.772C50.0403 469.972 51.1948 467.42 52.2269 464.869C53.4667 461.807 54.531 458.745 55.0869 460.44C56.1068 463.55 49.9191 475.805 52.4294 476.164C55.7016 476.631 58.3097 463.096 58.6151 461.966C58.9117 460.869 60.5625 461.24 60.2333 462.245C59.7582 463.689 55.1451 478.984 58.3545 479.474C60.1328 479.746 60.3243 476.505 60.3243 476.505C60.3243 476.505 63.5861 461.878 65.0923 462.16C66.6228 462.446 64.9976 471.099 64.2425 473.977C63.4966 476.823 64.5474 478.333 66.081 477.618C67.1274 477.13 69.6458 468.366 70.326 465.502C71.006 462.638 72.7299 454.75 75.0447 459.33C77.3591 463.91 80.8623 466.559 82.3098 466.617C83.7556 466.673 84.3638 464.681 83.1147 463.689C82.1065 462.887 80.841 461.032 79.9475 459.597C79.2099 458.415 78.6689 457.119 78.3705 455.758C77.2181 450.512 77.2279 447.462 77.2279 447.462L76.9591 445.776C80.6311 427.592 91.2128 374.24 106.412 340.156L112.671 353.038L115.388 362.572L98.7077 403.782L169.875 402.845L159.265 361.962L172.155 319.332C186.106 319.643 221.934 320.163 227.957 317.471C235.463 314.117 274.313 265.145 274.313 265.145H274.311C276.936 263.055 279.605 260.806 281.574 258.843C281.574 258.843 283.888 256.97 282.465 255.507Z" fill="#F9AD95"/>
<path d="M95.6079 373.442C97.6685 366.395 108.276 331.546 108.276 331.546C108.276 331.546 113.485 359.957 112.116 363.378C110.539 367.323 107.64 371.834 107.64 371.834C95.6079 390.158 97.1866 399.317 97.1866 399.317L169.875 397.101C170.052 386.934 164.034 363.301 162.777 359.536C161.518 355.77 165.691 343.412 165.691 343.412C165.691 343.412 173.906 335.069 173.588 330.776C172.947 322.127 172.155 319.332 172.155 319.332L216.385 320.96L214.995 290.951L151.418 284.589C149.218 290.849 129.197 287.782 129.197 287.782C107.583 288.492 106.275 292.467 97.262 299.446C88.2491 306.424 73.4055 366.36 73.4055 366.36L95.6079 373.442Z" fill="#FFD432"/>
<path d="M138.595 366.354C138.594 366.467 137.131 366.564 134.764 366.547C132.399 366.532 129.13 366.385 125.535 366.026C121.94 365.662 118.707 365.154 116.386 364.698C114.063 364.242 112.648 363.857 112.671 363.746C112.693 363.626 114.145 363.801 116.483 364.103C118.82 364.405 122.046 364.814 125.622 365.175C129.194 365.534 132.438 365.775 134.789 365.944C137.14 366.113 138.597 366.231 138.595 366.354Z" fill="#1D2A30"/>
<path d="M143.572 360.17C143.602 360.275 142.103 360.844 139.603 361.524C137.105 362.201 133.595 362.951 129.668 363.419C125.737 363.883 122.15 363.98 119.561 363.905C116.973 363.831 115.381 363.626 115.388 363.518C115.393 363.392 116.989 363.38 119.56 363.301C122.13 363.221 125.674 363.031 129.566 362.57C133.456 362.106 136.946 361.459 139.464 360.936C141.982 360.413 143.536 360.049 143.572 360.17Z" fill="#1D2A30"/>
<path d="M168.022 332.597C168.135 332.62 167.949 334.037 167.526 336.305C167.103 338.572 166.437 341.687 165.599 345.103C164.762 348.521 163.909 351.592 163.236 353.797C162.562 356.002 162.072 357.346 161.96 357.313C161.845 357.282 162.129 355.882 162.652 353.639C163.272 351.08 163.985 348.143 164.77 344.9C165.575 341.663 166.301 338.73 166.936 336.174C167.509 333.943 167.904 332.571 168.022 332.597Z" fill="#1D2A30"/>
<path d="M96.3701 369.267C96.3095 369.495 91.2948 368.326 85.1753 366.655C79.0509 364.985 74.1399 363.447 74.202 363.219C74.2641 362.992 79.2771 364.162 85.3983 365.831C91.5194 367.501 96.4324 369.039 96.3701 369.267Z" fill="#1D2A30"/>
<path d="M172.955 318.948C172.955 318.988 172.281 319.058 171.073 318.939C169.872 318.814 168.113 318.535 166.075 317.745C164.036 316.983 161.718 315.706 159.552 313.775C157.385 311.852 155.451 309.206 154.216 306.091C152.962 302.982 152.551 299.739 152.747 296.851C152.938 293.97 153.7 291.366 154.992 289.539C156.267 287.69 157.96 286.795 159.139 286.485C159.737 286.326 160.218 286.289 160.539 286.297C160.862 286.307 161.029 286.341 161.028 286.367C161.032 286.449 160.349 286.41 159.239 286.802C158.151 287.192 156.619 288.111 155.492 289.875C153.261 293.385 152.638 299.79 155.01 305.775C156.198 308.768 158.026 311.311 160.082 313.193C162.136 315.081 164.346 316.373 166.3 317.186C170.239 318.821 172.985 318.766 172.955 318.948Z" fill="#1D2A30"/>
<path d="M211.167 320.361C210.931 320.361 210.754 313.598 210.77 305.255C210.787 296.91 210.992 290.149 211.226 290.149C211.462 290.149 211.641 296.913 211.623 305.257C211.606 313.599 211.403 320.363 211.167 320.361Z" fill="#1D2A30"/>
<path d="M151.026 286.416C151.205 282.758 151.588 278.625 151.588 278.625C151.588 278.625 160.634 277.627 161.183 268.282C161.732 258.937 161.183 237.388 161.183 237.388L144.708 228.998L126.583 243.3L129.33 290.023L146.007 291.084C148.634 291.251 150.892 289.156 151.026 286.416Z" fill="#F9AD95"/>
<path d="M152.657 260.889C152.683 260.897 152.683 261.065 152.513 261.291C152.346 261.511 151.982 261.761 151.474 261.75C150.423 261.699 149.413 260.538 149.039 259.122C148.852 258.402 148.854 257.673 148.995 257.045C149.106 256.427 149.462 255.806 149.979 255.637C150.224 255.547 150.48 255.555 150.675 255.653C150.865 255.75 150.983 255.896 151.044 256.03C151.167 256.307 151.072 256.476 151.049 256.463C151.01 256.461 151.021 256.307 150.883 256.132C150.756 255.953 150.447 255.791 150.106 255.968C149.759 256.125 149.52 256.57 149.431 257.14C149.329 257.704 149.341 258.352 149.508 258.993C149.836 260.261 150.716 261.299 151.498 261.394C151.887 261.443 152.206 261.294 152.38 261.153C152.559 261.007 152.623 260.874 152.657 260.889Z" fill="#F6865E"/>
<path d="M166.803 232.344C165.542 228.041 160.97 225.905 156.803 224.725C150.464 222.928 143.597 222.133 137.404 224.413C131.21 226.693 123.761 230.705 123.763 237.547C120.109 237.246 118.019 240.45 116.568 244.418C115.711 246.762 115.147 249.371 115.014 251.958L114.953 251.937C114.485 260.894 111.99 273.233 106.183 279.856C102.977 283.513 98.3587 286.041 96.4915 290.595C94.867 294.554 95.7063 299.233 94.1703 303.229C92.8162 306.757 89.813 309.262 87.6623 312.331C82.9738 319.014 82.6558 328.46 86.1 335.92C89.5442 343.381 96.3669 348.839 103.942 351.341C111.519 353.843 119.771 353.567 127.481 351.559C133.173 350.077 138.71 347.625 143.246 343.748C147.782 339.873 151.262 334.482 152.298 328.466C153.454 321.771 151.579 314.971 150.2 308.319C145.839 287.279 147.085 286.185 152.588 266.668C152.713 266.324 152.79 265.966 152.885 265.612C152.957 265.353 153.028 265.106 153.102 264.84L153.09 264.835C153.244 264.071 153.346 263.294 153.349 262.501C151.754 263.129 149.83 262.712 148.608 261.476C147.387 260.238 146.931 258.247 147.487 256.57C148.128 254.639 149.898 253.35 151.716 252.585C153.533 251.821 155.49 251.442 157.274 250.593C161.059 248.791 163.683 245.054 165.468 241.137C166.719 238.393 167.654 235.249 166.803 232.344Z" fill="#1D2A30"/>
<path d="M153.303 261.289C153.36 261.265 153.68 261.874 154.167 262.909C154.652 263.945 155.306 265.405 156.031 267.084L156.169 267.402L155.821 267.432C155.274 267.478 154.721 267.525 154.152 267.574C153.01 267.65 152.056 267.786 150.946 267.774C150.77 267.743 150.577 267.583 150.523 267.402C150.464 267.225 150.48 267.076 150.498 266.946C150.546 266.689 150.602 266.499 150.652 266.281L150.943 265.12C151.305 263.704 151.564 262.837 151.633 262.851C151.702 262.868 151.567 263.765 151.295 265.199L151.067 266.373C150.983 266.768 150.839 267.361 151.052 267.315C151.869 267.279 153.033 267.143 154.11 267.064C154.68 267.019 155.233 266.976 155.78 266.932L155.57 267.279C154.867 265.592 154.274 264.106 153.867 263.037C153.462 261.968 153.247 261.314 153.303 261.289Z" fill="#F03658"/>
<path d="M97.1864 399.317L169.875 397.101L201.487 520.604L195.666 662.269H157.193L161.96 523.619L133.843 437.644L138.176 667.763L99.3339 668.337L95.2422 452.032C95.0717 446.021 93.0915 432.457 93.8292 426.493L97.1864 399.317Z" fill="#1D2A30"/>
<path d="M143.523 439.39C143.508 439.504 142.146 439.437 139.959 439.18C137.772 438.921 134.763 438.46 131.468 437.8C128.173 437.136 125.22 436.396 123.104 435.788C120.988 435.18 119.704 434.718 119.734 434.606C119.799 434.368 125.076 435.647 131.637 436.962C138.192 438.288 143.554 439.147 143.523 439.39Z" fill="#365462"/>
<path d="M195.315 654.5C195.315 654.738 186.606 654.928 175.863 654.928C165.118 654.928 156.41 654.738 156.41 654.5C156.41 654.266 165.118 654.075 175.863 654.075C186.606 654.075 195.315 654.266 195.315 654.5Z" fill="#365462"/>
<path d="M137.826 661.786C137.826 662.021 129.377 662.212 118.956 662.212C108.532 662.212 100.083 662.021 100.083 661.786C100.083 661.549 108.532 661.359 118.956 661.359C129.377 661.359 137.826 661.549 137.826 661.786Z" fill="#365462"/>
<path d="M132.823 661.195C132.589 661.199 131.566 610.915 130.541 548.899C129.517 486.861 128.879 436.58 129.114 436.577C129.35 436.573 130.371 486.846 131.395 548.884C132.42 610.901 133.059 661.191 132.823 661.195Z" fill="#365462"/>
<path d="M190.148 654.5C190.135 654.5 190.128 654.274 190.132 653.832C190.14 653.348 190.151 652.699 190.168 651.868C190.218 650.096 190.291 647.562 190.386 644.319C190.615 637.721 190.943 628.25 191.35 616.565C192.246 593.094 193.484 560.744 194.85 525.01C194.863 524.681 194.877 524.351 194.889 524.047L194.902 524.168C186.286 489.672 178.499 458.494 172.855 435.886C170.085 424.626 167.84 415.502 166.276 409.145C165.527 406.02 164.94 403.576 164.531 401.868C164.349 401.066 164.204 400.438 164.098 399.971C164.004 399.541 163.965 399.32 163.978 399.317C163.993 399.314 164.062 399.528 164.181 399.95C164.309 400.41 164.48 401.033 164.696 401.825C165.144 403.527 165.781 405.956 166.598 409.066C168.224 415.405 170.557 424.505 173.437 435.741C179.147 458.33 187.019 489.488 195.73 523.959L195.745 524.02L195.741 524.082C195.73 524.384 195.717 524.714 195.704 525.047C194.24 560.773 192.913 593.12 191.951 616.588C191.433 628.269 191.012 637.735 190.717 644.332C190.555 647.571 190.427 650.104 190.338 651.874C190.287 652.704 190.248 653.353 190.218 653.835C190.187 654.276 190.163 654.502 190.148 654.5Z" fill="#365462"/>
<path d="M177.609 521.163C177.648 521.395 173.844 522.243 169.109 523.057C165.575 523.664 162.523 524.081 161.19 524.156L161.187 523.822C161.629 523.945 161.867 524.038 161.859 524.097C161.849 524.158 161.593 524.175 161.136 524.156L160.141 524.112L161.132 523.822C162.414 523.449 165.431 522.822 168.965 522.215C173.699 521.402 177.568 520.93 177.609 521.163Z" fill="#365462"/>
<path d="M176.875 525.876C176.842 526.114 173.427 525.851 169.222 525.527C165.016 525.196 161.601 524.927 161.608 524.687C161.613 524.454 165.057 524.343 169.288 524.676C173.519 525.002 176.906 525.648 176.875 525.876Z" fill="#365462"/>
<path d="M96.8652 401.927L96.8914 401.705L96.8652 401.927ZM96.9833 400.968C97.0603 400.345 97.1865 399.317 97.1865 399.317L96.9833 400.968Z" fill="#C1C0BE"/>
<path d="M97.1865 399.317C109.081 398.65 121.309 398.43 133.536 398.209L97.1865 399.317Z" fill="#D82B43"/>
<path d="M107.26 405.987C106.181 405.987 105.108 405.92 104.04 405.745C101.127 405.268 98.6226 404.4 96.8652 401.927L96.8914 401.705L96.9357 401.346C96.9472 401.266 96.9636 401.13 96.9833 400.968L97.1865 399.317L133.536 398.209C145.759 397.987 157.983 397.766 169.875 397.101C151.498 401.576 131.618 403.497 112.855 405.579C110.998 405.784 109.124 405.987 107.26 405.987Z" fill="#182124"/>
<path d="M134.781 487.472L134.672 481.659L134.781 487.472Z" fill="#CECDCC"/>
<path d="M134.673 481.659L133.854 438.254L134.673 481.659Z" fill="#C1C0BE"/>
<path d="M134.781 487.472L129.943 468.692C129.597 451.665 129.32 440.236 129.176 437.314C129.915 437.478 130.682 437.641 131.468 437.8C132.284 437.963 133.082 438.114 133.854 438.254L134.672 481.659L134.781 487.47V487.472ZM129.315 466.253L121.381 435.452L122.812 435.705C122.907 435.732 123.004 435.76 123.104 435.788C124.692 436.245 126.755 436.775 129.078 437.293C129.03 440.039 129.12 450.537 129.315 466.253Z" fill="#182124"/>
<path d="M133.854 438.254C133.082 438.114 132.284 437.963 131.468 437.8C130.682 437.641 129.915 437.478 129.176 437.314C129.166 437.104 129.156 436.939 129.146 436.818L133.843 437.644L133.854 438.254ZM129.078 437.293C126.755 436.775 124.692 436.245 123.104 435.788C123.004 435.76 122.907 435.732 122.812 435.705L129.091 436.808C129.086 436.926 129.081 437.086 129.078 437.293Z" fill="#2A414C"/>
<path d="M129.943 468.692L129.315 466.253C129.12 450.537 129.03 440.039 129.078 437.293C129.081 437.086 129.086 436.926 129.091 436.808L129.146 436.818C129.156 436.939 129.166 437.104 129.176 437.314C129.32 440.236 129.597 451.665 129.943 468.692Z" fill="#2A414C"/>
</svg>
