<svg width="807" height="644" viewBox="0 0 807 644" fill="none" xmlns="http://www.w3.org/2000/svg">
<path d="M0 566.04H863.667V565.609H0V566.04Z" fill="#E7E8E5"/>
<path d="M192.886 580.531H135.673V580.099H192.886V580.531Z" fill="#E7E8E5"/>
<path d="M282.419 592.988H230.311V592.556H282.419V592.988Z" fill="#E7E8E5"/>
<path d="M164.279 596.571H98.207V596.139H164.279V596.571Z" fill="#E7E8E5"/>
<path d="M777.129 595.628H749.663V595.196H777.129V595.628Z" fill="#E7E8E5"/>
<path d="M744.121 595.628H676.203V595.196H744.121V595.628Z" fill="#E7E8E5"/>
<path d="M484.229 580.315H431.833V579.883H484.229V580.315Z" fill="#E7E8E5"/>
<path d="M491.713 580.315H616.247V579.881H491.713V580.315Z" fill="#E7E8E5"/>
<path d="M75.8562 0.431854C70.6567 0.431854 66.4281 4.66217 66.4281 9.85797V478.712C66.4281 483.91 70.6567 488.139 75.8562 488.139H409.402C414.598 488.139 418.828 483.91 418.828 478.712V9.85797C418.828 4.66217 414.598 0.431854 409.402 0.431854H75.8562ZM409.402 488.571H75.8562C70.4192 488.571 65.9962 484.149 65.9962 478.712V9.85797C65.9962 4.4238 70.4192 3.05176e-05 75.8562 3.05176e-05H409.402C414.836 3.05176e-05 419.26 4.4238 419.26 9.85797V478.712C419.26 484.149 414.836 488.571 409.402 488.571Z" fill="#E7E8E5"/>
<path d="M449.473 0.431854C444.275 0.431854 440.047 4.66217 440.047 9.85797V478.712C440.047 483.91 444.275 488.139 449.473 488.139H783.019C788.217 488.139 792.447 483.91 792.447 478.712V9.85797C792.447 4.66217 788.217 0.431854 783.019 0.431854H449.473ZM783.019 488.571H449.473C444.037 488.571 439.615 484.149 439.615 478.712V9.85797C439.615 4.4238 444.037 3.05176e-05 449.473 3.05176e-05H783.019C788.455 3.05176e-05 792.879 4.4238 792.879 9.85797V478.712C792.879 484.149 788.455 488.571 783.019 488.571Z" fill="#E7E8E5"/>
<path d="M506.781 565.609H457.092V364.913H506.781V565.609Z" fill="#E2E2E0"/>
<path d="M486.123 565.609H506.781V530.991H464.464L486.123 565.609Z" fill="#F3F2F1"/>
<path d="M147.895 565.609H98.207V364.913H147.895V565.609Z" fill="#E2E2E0"/>
<path d="M506.781 553.691H129.867V364.913H506.781V553.691Z" fill="#F3F2F1"/>
<path d="M146.756 421.134H489.891V383.304H146.756V421.134ZM491.618 422.862H145.028V381.577H491.618V422.862Z" fill="#E7E8E5"/>
<path d="M150.524 565.609H129.867V530.991H172.183L150.524 565.609Z" fill="#F3F2F1"/>
<path d="M146.756 535.304H489.891V440.387H146.756V535.304ZM491.618 537.031H145.028V438.66H491.618V537.031Z" fill="#E7E8E5"/>
<path d="M311.766 312.701H704.522V40.715H311.766V312.701Z" fill="#E2E2E0"/>
<path d="M318.985 312.701H711.741V40.715H318.985V312.701Z" fill="#F3F2F1"/>
<path d="M331.943 298.97H698.782V54.4456H331.943V298.97Z" fill="white"/>
<path d="M693.326 298.97H698.782V54.4456H693.326V298.97Z" fill="#E2E2E0"/>
<path d="M324.345 85.5704H706.381V76.3535H324.345V85.5704Z" fill="#F3F2F1"/>
<path d="M689.809 333.721H705.322V312.701H689.809V333.721Z" fill="#F7F7F5"/>
<path d="M705.322 312.701H689.809V298.97H698.782V85.5704H705.322V312.701Z" fill="#EFEFED"/>
<path d="M689.809 298.97H693.326V85.5704H689.809V298.97Z" fill="#F6F6F4"/>
<path d="M693.326 298.97H698.782V85.5704H693.326V298.97Z" fill="#E7E8E5"/>
<path d="M705.322 40.715H689.809V31.6292H705.322V40.715Z" fill="#F7F7F5"/>
<path d="M705.322 76.3533H698.782V54.4456H689.809V40.715H704.522H705.322V76.3533Z" fill="#EFEFED"/>
<path d="M693.326 76.3533H689.809V54.4456H698.782H693.326V76.3533Z" fill="#F6F6F4"/>
<path d="M693.326 76.3533H698.782V54.4459H693.326V76.3533Z" fill="#E7E8E5"/>
<path d="M705.322 85.5704H689.809V76.3534H705.322V85.5704Z" fill="#EFEFED"/>
<path d="M685.617 301.257L684.689 298.97H685.617V301.257Z" fill="#EFEFED"/>
<path d="M685.617 298.97H684.689L670.105 263.023V85.5704H685.617V298.97Z" fill="#F6F6F4"/>
<path d="M670.105 40.715H685.616V31.6296H670.105V40.715Z" fill="#F7F7F5"/>
<path d="M670.105 54.4456H685.616V40.7147H670.105V54.4456Z" fill="#EFEFED"/>
<path d="M670.105 76.3533H685.616V54.4459H670.105V76.3533Z" fill="#F6F6F4"/>
<path d="M670.105 85.5704H685.616V76.3535H670.105V85.5704Z" fill="#EFEFED"/>
<path d="M658.186 302.145C657.482 301.069 656.767 300.007 656.05 298.97H658.548C658.427 300.04 658.307 301.1 658.186 302.145Z" fill="#EFEFED"/>
<path d="M658.548 298.97H656.05C654.207 296.305 652.324 293.778 650.401 291.373V85.5704H665.913V252.69L663.142 245.86C661.774 266.652 660.216 284.063 658.548 298.97Z" fill="#F6F6F4"/>
<path d="M650.401 40.715H665.912V31.6296H650.401V40.715Z" fill="#F7F7F5"/>
<path d="M650.401 54.4456H665.912V40.7147H650.401V54.4456Z" fill="#EFEFED"/>
<path d="M650.401 76.3533H665.912V54.4459H650.401V76.3533Z" fill="#F6F6F4"/>
<path d="M650.401 85.5704H665.912V76.3535H650.401V85.5704Z" fill="#EFEFED"/>
<path d="M646.209 286.395C641.203 280.752 635.992 275.919 630.696 271.839V85.5704H646.209V286.395Z" fill="#F6F6F4"/>
<path d="M630.696 40.715H646.21V31.6296H630.696V40.715Z" fill="#F7F7F5"/>
<path d="M630.696 54.4456H646.21V40.7147H630.696V54.4456Z" fill="#EFEFED"/>
<path d="M630.696 76.3533H646.21V54.4459H630.696V76.3533Z" fill="#F6F6F4"/>
<path d="M630.696 85.5704H646.21V76.3535H630.696V85.5704Z" fill="#EFEFED"/>
<path d="M626.505 268.778C623.623 266.787 620.721 265.008 617.819 263.434C615.433 252.685 613.098 242.131 610.992 232.606V181.353L611.203 181.439C615.359 173.906 618.62 166.259 620.771 157.604C621.783 153.253 622.595 148.72 622.232 143.345C622.021 140.657 621.517 137.649 619.857 134.4C619.451 133.602 618.924 132.763 618.38 132.003L617.42 130.7L615.492 128.094C614.024 126.201 612.523 124.351 610.992 122.539V85.5704H626.505V268.778Z" fill="#F6F6F4"/>
<path d="M610.992 40.715H626.506V31.6296H610.992V40.715Z" fill="#F7F7F5"/>
<path d="M610.992 54.4456H626.506V40.7147H610.992V54.4456Z" fill="#EFEFED"/>
<path d="M610.992 76.3533H626.506V54.4459H610.992V76.3533Z" fill="#F6F6F4"/>
<path d="M610.992 85.5704H626.506V76.3535H610.992V85.5704Z" fill="#EFEFED"/>
<path d="M606.8 213.635C604.093 201.369 602.349 193.444 602.349 193.444C601.972 186.381 598.816 161.485 593.116 130.384C596.123 133.343 599.037 136.352 601.829 139.408L603.684 141.529L604.613 142.591L604.786 142.73C605.071 143.032 605.539 144.023 605.816 145.333C606.372 147.996 606.396 151.586 606.126 155.189C605.556 162.457 604.045 170.331 602.376 177.848L606.8 179.648V213.635ZM606.8 117.752C605.087 115.861 603.342 114.009 601.57 112.195L602.534 110.631C602.534 110.631 598.106 103.312 591.289 96.4958V85.5704H606.8V117.752Z" fill="#F6F6F4"/>
<path d="M591.289 40.715H606.8V31.6296H591.289V40.715Z" fill="#F7F7F5"/>
<path d="M591.289 54.4456H606.8V40.7147H591.289V54.4456Z" fill="#EFEFED"/>
<path d="M591.289 76.3533H606.8V54.4459H591.289V76.3533Z" fill="#F6F6F4"/>
<path d="M591.289 85.5704H606.8V76.3535H591.289V85.5704Z" fill="#EFEFED"/>
<path d="M571.583 333.681V327.211C573.369 328.629 575.216 330.035 577.1 331.415C575.202 332.092 573.361 332.85 571.583 333.681Z" fill="#F7F7F5"/>
<path d="M571.583 254.637V247.701C572.157 249.89 572.737 252.106 573.326 254.345C572.741 254.433 572.158 254.531 571.583 254.637ZM587.096 92.668C583.17 89.4223 578.719 86.7053 574.019 85.5704H587.096V92.668Z" fill="#F6F6F4"/>
<path d="M571.583 40.715H587.096V31.6296H571.583V40.715Z" fill="#F7F7F5"/>
<path d="M571.583 54.4456H587.096V40.7147H571.583V54.4456Z" fill="#EFEFED"/>
<path d="M571.583 76.3533H587.096V54.4459H571.583V76.3533Z" fill="#F6F6F4"/>
<path d="M587.096 85.5704H574.019C573.214 85.3752 572.402 85.2267 571.583 85.13V76.3534H587.096V85.5704Z" fill="#EFEFED"/>
<path d="M567.393 333.721H551.88V312.701H555.937C559.286 316.437 563.143 320.141 567.393 323.763V333.721Z" fill="#F7F7F5"/>
<path d="M555.937 312.701H551.88V307.828C553.127 309.452 554.486 311.081 555.937 312.701Z" fill="#EFEFED"/>
<path d="M551.88 263.665V198.412L558.765 197.735C558.799 197.878 562.368 212.113 567.393 231.572V255.595C561.29 257.273 555.997 260.033 551.88 263.665ZM551.88 88.6779V85.5704H565.339C565.08 85.6533 564.822 85.7466 564.572 85.8485L564.32 85.8986C560.635 86.6552 556.251 87.619 551.88 88.6779Z" fill="#F6F6F4"/>
<path d="M551.88 40.715H567.392V31.6296H551.88V40.715Z" fill="#F7F7F5"/>
<path d="M551.88 54.4456H567.392V40.7147H551.88V54.4456Z" fill="#EFEFED"/>
<path d="M551.88 76.3533H567.392V54.4459H551.88V76.3533Z" fill="#F6F6F4"/>
<path d="M565.339 85.5704H551.88V76.3534H567.393V85.1144C566.679 85.2042 565.994 85.358 565.339 85.5704Z" fill="#EFEFED"/>
<path d="M532.176 333.721H547.689V312.701H532.176V333.721Z" fill="#F7F7F5"/>
<path d="M547.689 312.701H532.176V298.97H546.193C546.651 299.87 547.152 300.775 547.689 301.682V312.701Z" fill="#EFEFED"/>
<path d="M546.193 298.97H532.176V176.939C533.293 184.367 534.216 192.124 534.803 200.093L547.689 198.825V268.208C543.385 274.012 541.497 281.286 542.911 289.53C543.44 292.61 544.561 295.768 546.193 298.97ZM532.176 94.6665V85.5704H547.689V89.7246C543.455 90.8163 539.455 91.965 536.372 93.0618C534.941 93.5714 533.535 94.1138 532.176 94.6665Z" fill="#F6F6F4"/>
<path d="M532.176 40.715H547.689V31.6296H532.176V40.715Z" fill="#F7F7F5"/>
<path d="M532.176 54.4456H547.689V40.7147H532.176V54.4456Z" fill="#EFEFED"/>
<path d="M532.176 76.3533H547.689V54.4459H532.176V76.3533Z" fill="#F6F6F4"/>
<path d="M532.176 85.5704H547.689V76.3535H532.176V85.5704Z" fill="#EFEFED"/>
<path d="M512.472 333.721H527.984V312.701H512.472V333.721Z" fill="#F7F7F5"/>
<path d="M512.472 312.701H527.984V298.971H512.472V312.701Z" fill="#EFEFED"/>
<path d="M527.984 298.97H512.472V168.923C517.628 161.393 521.969 153.691 526.073 145.882C526.104 145.821 526.135 145.759 526.168 145.697C526.422 146.811 526.676 147.939 526.932 149.088C527.284 150.677 527.635 152.297 527.984 153.947V298.97ZM512.472 129.856V85.5704H527.984V96.4733C525.273 97.6997 522.933 98.8708 521.235 99.757C519.162 100.837 517.747 102.851 517.483 105.174C517.253 107.2 517.849 110.81 518.946 115.724C516.858 120.43 514.69 125.168 512.472 129.856Z" fill="#F6F6F4"/>
<path d="M512.472 40.715H527.984V31.6296H512.472V40.715Z" fill="#F7F7F5"/>
<path d="M512.472 54.4456H527.984V40.7147H512.472V54.4456Z" fill="#EFEFED"/>
<path d="M512.472 76.3533H527.984V54.4459H512.472V76.3533Z" fill="#F6F6F4"/>
<path d="M512.472 85.5704H527.984V76.3535H512.472V85.5704Z" fill="#EFEFED"/>
<path d="M508.28 333.721H493.518C493.269 333.488 493.019 333.254 492.767 333.025V312.701H508.28V333.721Z" fill="#F7F7F5"/>
<path d="M492.767 312.701H508.28V298.971H492.767V312.701Z" fill="#EFEFED"/>
<path d="M508.28 298.97H492.767V188.167C494.204 187.49 495.665 186.721 497.17 185.773C498.55 184.89 499.98 183.871 501.469 182.458C502.6 181.335 503.573 180.323 504.523 179.24C505.853 177.741 507.098 176.231 508.28 174.711V298.97ZM492.767 165.651V85.5704H508.28V138.524C506.331 142.465 504.333 146.364 502.245 150.169C499.944 154.396 497.551 158.557 494.985 162.4C494.261 163.52 493.52 164.606 492.767 165.651Z" fill="#F6F6F4"/>
<path d="M492.767 40.715H508.28V31.6296H492.767V40.715Z" fill="#F7F7F5"/>
<path d="M492.767 54.4456H508.28V40.7147H492.767V54.4456Z" fill="#EFEFED"/>
<path d="M492.767 76.3533H508.28V54.4459H492.767V76.3533Z" fill="#F6F6F4"/>
<path d="M492.767 85.5704H508.28V76.3535H492.767V85.5704Z" fill="#EFEFED"/>
<path d="M488.576 329.409C483.781 325.518 478.584 322.096 473.063 319.222V312.701H488.576V329.409Z" fill="#F7F7F5"/>
<path d="M473.063 312.701H488.576V298.971H473.063V312.701Z" fill="#EFEFED"/>
<path d="M488.576 298.97H473.063V194.605C475.854 193.959 478.651 193.23 481.46 192.402C483.821 191.701 486.189 190.919 488.576 189.972V298.97ZM473.063 179.454V85.5704H488.576V170.852C488.296 171.122 487.951 171.422 487.562 171.725C486.189 172.825 484.32 173.975 482.372 175.029C480.401 176.081 478.306 177.107 476.157 178.098C475.136 178.556 474.103 179.007 473.063 179.454Z" fill="#F6F6F4"/>
<path d="M473.063 40.715H488.576V31.6296H473.063V40.715Z" fill="#F7F7F5"/>
<path d="M473.063 54.4456H488.576V40.7147H473.063V54.4456Z" fill="#EFEFED"/>
<path d="M473.063 76.3533H488.576V54.4459H473.063V76.3533Z" fill="#F6F6F4"/>
<path d="M473.063 85.5704H488.576V76.3535H473.063V85.5704Z" fill="#EFEFED"/>
<path d="M468.871 317.173C465.04 315.42 461.063 313.922 456.969 312.701H468.871V317.173Z" fill="#F7F7F5"/>
<path d="M468.871 312.701H456.969C455.774 312.343 454.574 312.012 453.358 311.704V298.97H468.871V312.701Z" fill="#EFEFED"/>
<path d="M468.871 298.97H453.358V256.958L461.093 223.992L453.358 211.515V197.854C458.579 197.305 463.73 196.543 468.871 195.51V298.97ZM453.358 187.143V85.5704H468.871V181.206C463.805 183.272 458.579 185.234 453.358 187.143Z" fill="#F6F6F4"/>
<path d="M453.358 40.715H468.871V31.6296H453.358V40.715Z" fill="#F7F7F5"/>
<path d="M453.358 54.4456H468.871V40.7147H453.358V54.4456Z" fill="#EFEFED"/>
<path d="M453.358 76.3533H468.871V54.4459H453.358V76.3533Z" fill="#F6F6F4"/>
<path d="M453.358 85.5704H468.871V76.3535H453.358V85.5704Z" fill="#EFEFED"/>
<path d="M449.167 310.744C446.498 310.198 443.788 309.768 441.04 309.459L443.501 298.97H449.167V310.744Z" fill="#EFEFED"/>
<path d="M449.167 298.97H443.501L449.167 274.82V298.97ZM449.167 204.755L433.654 179.729V85.5704H449.167V188.666C449.065 188.703 448.962 188.741 448.858 188.779L449.167 190.266V204.755Z" fill="#F6F6F4"/>
<path d="M449.167 40.715H440.047V31.6292H449.167V40.715ZM439.615 40.715H433.654V31.6292H439.615V40.715Z" fill="#F7F7F5"/>
<path d="M439.615 40.715H440.047V31.6296H439.615V40.715Z" fill="#EBEBE8"/>
<path d="M433.654 54.4456H449.168V40.7147H433.654V54.4456Z" fill="#EFEFED"/>
<path d="M433.654 76.3533H449.168V54.4459H433.654V76.3533Z" fill="#F6F6F4"/>
<path d="M433.654 85.5704H449.168V76.3535H433.654V85.5704Z" fill="#EFEFED"/>
<path d="M429.463 172.968L423.407 163.2L413.95 160.981V85.5704H429.463V172.968Z" fill="#F6F6F4"/>
<path d="M429.463 40.715H419.26V31.6292H429.463V40.715ZM418.828 40.715H413.95V31.6292H418.828V40.715Z" fill="#F7F7F5"/>
<path d="M418.828 40.715H419.26V31.6296H418.828V40.715Z" fill="#EBEBE8"/>
<path d="M413.95 54.4456H429.464V40.7147H413.95V54.4456Z" fill="#EFEFED"/>
<path d="M413.95 76.3533H429.464V54.4459H413.95V76.3533Z" fill="#F6F6F4"/>
<path d="M413.95 85.5704H429.464V76.3535H413.95V85.5704Z" fill="#EFEFED"/>
<path d="M221.53 73.2027H107.696V280.213H221.53V73.2027Z" fill="#EDEDEB"/>
<path d="M245.976 73.2027H115.04V280.213H245.976V73.2027Z" fill="#F3F2F1"/>
<path d="M120.38 78.1152V275.299H240.637V78.1152H120.38Z" fill="white"/>
<path d="M152.428 117.359V236.056C152.428 238.688 154.563 240.821 157.196 240.821H203.822C206.453 240.821 208.588 238.688 208.588 236.056V117.359C208.588 114.726 206.453 112.591 203.822 112.591H157.196C154.563 112.591 152.428 114.726 152.428 117.359Z" fill="#F3F2F1"/>
<path d="M663.142 245.86L686.425 303.247C685.755 469.23 693.255 478.796 693.324 507.347H634.545C632.434 368.418 653.027 399.653 663.142 245.86Z" fill="#E7E8E5"/>
<path d="M695.953 415.363C648.643 285.109 539.726 325.452 544.602 372.921C549.479 420.392 723.164 490.276 695.953 415.363Z" fill="#E7E8E5"/>
<path d="M678.07 490.48C652.257 406.533 583.623 420.24 583.619 458.814C583.616 497.391 692.915 538.759 678.07 490.48Z" fill="#E7E8E5"/>
<path d="M676.227 338.956C635.707 226.751 534.784 242.189 542.911 289.53C551.04 336.872 699.53 403.49 676.227 338.956Z" fill="#E7E8E5"/>
<path d="M676.508 288.625C680.265 212.177 604.556 180.712 609.802 226.398C615.046 272.084 674.347 332.595 676.508 288.625Z" fill="#E7E8E5"/>
<path d="M670.853 366.899C686.841 272.698 783.862 236.862 773.023 290.185C762.184 343.506 661.659 421.077 670.853 366.899Z" fill="#E7E8E5"/>
<path d="M662.685 313.644C643.843 214.861 731.006 170.965 733.514 218.589C736.022 266.217 673.52 370.456 662.685 313.644Z" fill="#E7E8E5"/>
<path d="M655.121 425.226C693.631 330.03 776.096 353.654 767.774 396.976C759.451 440.297 632.973 479.979 655.121 425.226Z" fill="#E7E8E5"/>
<path d="M674.126 491.706C673.268 430.289 729.014 414.415 729.676 449.991C730.337 485.569 674.62 527.028 674.126 491.706Z" fill="#E7E8E5"/>
<path d="M657.102 566.04C626.455 566.04 600.601 544.703 594.311 515.863C592.648 508.234 590.753 500.656 587.767 493.435L587.285 492.273H726.919L726.437 493.435C723.45 500.656 721.557 508.234 719.892 515.863C713.603 544.703 687.746 566.04 657.102 566.04Z" fill="#DADBD8"/>
<path d="M766.744 624.061C766.744 634.864 616.801 643.62 431.833 643.62C246.867 643.62 96.9222 634.864 96.9222 624.061C96.9222 613.259 246.867 604.501 431.833 604.501C616.801 604.501 766.744 613.259 766.744 624.061Z" fill="#F3F2F1"/>
<path d="M223.458 274.625L222.368 273.285C226.82 269.67 231.589 266.351 236.544 263.42L237.424 264.909C232.541 267.795 227.842 271.064 223.458 274.625Z" fill="#406FBF"/>
<path d="M187.993 323.992L186.376 323.388C192.233 307.723 201.595 293.18 213.45 281.331L214.671 282.552C202.991 294.227 193.765 308.557 187.993 323.992Z" fill="#406FBF"/>
<path d="M522.646 400.123C522.223 349.659 481.199 308.877 430.635 308.877C418.452 308.877 406.832 311.267 396.188 315.567C378.117 278.598 340.155 253.127 296.232 253.127C243.117 253.127 198.726 290.377 187.69 340.172C137.735 343.384 98.207 384.896 98.207 435.661C98.207 488.524 141.06 531.376 193.921 531.376H498.484C535.957 531.376 566.334 501.001 566.334 463.526C566.334 434.568 548.185 409.862 522.646 400.123Z" fill="#110066"/>
<path d="M454.133 369.192H210.408C206.29 369.192 202.922 365.823 202.922 361.705C202.922 357.589 206.29 354.221 210.408 354.221H454.133C458.249 354.221 461.618 357.589 461.618 361.705C461.618 365.823 458.249 369.192 454.133 369.192Z" fill="#17282F"/>
<path d="M247.171 421.836C234.256 421.836 223.748 432.343 223.748 445.26C223.748 458.175 234.256 468.683 247.171 468.683H417.369C430.286 468.683 440.793 458.175 440.793 445.258C440.793 432.343 430.286 421.836 417.369 421.836H247.171ZM417.369 470.41H247.171C233.302 470.41 222.021 459.127 222.021 445.26C222.021 431.393 233.302 420.108 247.171 420.108H417.369C431.237 420.108 442.52 431.391 442.52 445.258C442.52 459.125 431.237 470.41 417.369 470.41Z" fill="white"/>
<path d="M286.92 464.364H247.171C236.664 464.364 228.067 455.767 228.067 445.26V445.258C228.067 434.751 236.664 426.154 247.171 426.154H286.92C297.428 426.154 306.026 434.751 306.026 445.258V445.26C306.026 455.767 297.428 464.364 286.92 464.364Z" fill="white"/>
<path d="M461.093 223.992L428.781 361.705H235.974L289.9 131.875L423.407 163.2L461.093 223.992Z" fill="#406FBF"/>
<path d="M428.781 361.705H235.974L289.9 131.875L423.407 163.2L461.093 223.992L453.358 256.958L449.167 274.82L443.501 298.97L428.781 361.705Z" fill="#CADDF3"/>
<path d="M435.944 249.591L289.496 215.229C287.395 214.737 286.083 212.614 286.575 210.517C287.067 208.417 289.187 207.102 291.287 207.594L437.736 241.956C439.834 242.449 441.151 244.568 440.657 246.668C440.164 248.769 438.043 250.083 435.944 249.591Z" fill="#110066"/>
<path d="M430.353 273.425L283.903 239.063C281.804 238.571 280.49 236.45 280.982 234.349C281.474 232.252 283.595 230.936 285.694 231.428L432.143 265.792C434.243 266.284 435.557 268.403 435.065 270.504C434.571 272.603 432.452 273.919 430.353 273.425Z" fill="#110066"/>
<path d="M424.76 297.259L278.311 262.898C276.211 262.406 274.896 260.285 275.391 258.185C275.883 256.086 278.002 254.771 280.103 255.264L426.551 289.624C428.65 290.118 429.964 292.239 429.472 294.338C428.98 296.438 426.859 297.751 424.76 297.259Z" fill="#110066"/>
<path d="M419.167 321.094L272.718 286.734C270.62 286.24 269.305 284.119 269.797 282.02C270.29 279.92 272.411 278.607 274.51 279.099L420.958 313.459C423.057 313.952 424.373 316.073 423.881 318.173C423.387 320.274 421.267 321.586 419.167 321.094Z" fill="#110066"/>
<path d="M355.354 331.268L267.125 310.566C265.026 310.074 263.712 307.954 264.204 305.854C264.697 303.755 266.818 302.439 268.918 302.933L357.145 323.633C359.244 324.125 360.558 326.248 360.066 328.345C359.574 330.446 357.453 331.76 355.354 331.268Z" fill="#110066"/>
<path d="M461.093 223.992L411.855 212.44L423.407 163.2L461.093 223.992Z" fill="#110066"/>
<path d="M495.394 399.914L501.203 361.705H605.499L599.689 399.914H495.394ZM592.797 445.26H488.5L494.307 407.05H598.604L592.797 445.26ZM585.901 490.604H481.605L487.415 452.394H591.71L585.901 490.604ZM579.007 535.948H474.713L480.522 497.738H584.816L579.007 535.948ZM572.114 581.292H467.817L473.626 543.084H577.923L572.114 581.292ZM494.173 354.76L453.232 624.061H461.315L466.734 588.428H571.029L565.612 624.061H573.696L614.639 354.76H494.173Z" fill="#17282F"/>
<path d="M553.533 581.292L547.724 543.084H652.018L657.829 581.292H553.533ZM540.83 497.738H645.124L650.933 535.948H546.637L540.83 497.738ZM533.934 452.394H638.231L644.04 490.604H539.745L533.934 452.394ZM527.04 407.05H631.337L637.146 445.26H532.85L527.04 407.05ZM520.147 361.705H624.443L630.252 399.914H525.956L520.147 361.705ZM631.472 354.76H511.006L551.949 624.061H560.034L554.616 588.428H658.912L664.331 624.061H672.415L631.472 354.76Z" fill="#17282F"/>
<path d="M672.415 624.061H664.331L658.912 588.428H554.616L560.034 624.061H551.949L536.126 519.986L532.744 497.738L511.006 354.76H604.485C605.475 357.026 606.505 359.344 607.567 361.705H520.147L525.956 399.914H625.656C626.832 402.306 628.01 404.69 629.181 407.05H606.69H598.604H527.04L532.85 445.26H637.146L632.283 413.271C636.324 421.343 640.248 429.064 643.829 436.041L672.415 624.061ZM547.724 543.084L553.533 581.292H657.829L652.018 543.084H586.008H577.923H547.724ZM540.83 497.738L546.637 535.948H650.933L645.124 497.738H585.02L584.844 493.613H584.835V493.604H572.146L572.324 497.738H540.83ZM533.934 452.394L539.745 490.604H644.04L638.231 452.394H599.796H591.71H533.934Z" fill="#6C7A7F"/>
<path d="M579.859 92.6283C583.314 95.2901 586.355 97.9588 589.511 100.714C592.639 103.45 595.654 106.314 598.63 109.24C604.565 115.097 610.236 121.318 615.492 128.094L617.42 130.7L618.38 132.003C618.924 132.763 619.451 133.602 619.857 134.4C621.517 137.649 622.021 140.657 622.232 143.345C622.595 148.72 621.783 153.252 620.771 157.604C618.62 166.259 615.359 173.906 611.203 181.439L602.376 177.848C604.045 170.331 605.556 162.457 606.126 155.189C606.396 151.586 606.372 147.996 605.816 145.333C605.539 144.023 605.071 143.032 604.786 142.73L604.613 142.591L603.684 141.529L601.829 139.408C596.712 133.804 591.18 128.36 585.412 123.093C579.707 117.832 573.672 112.56 567.864 107.665L579.859 92.6283Z" fill="#872F37"/>
<path d="M605.871 174.276L595.954 181.114L608.109 188.437C608.109 188.437 614.342 182.469 611.669 176.934L605.871 174.276Z" fill="#872F37"/>
<path d="M591.011 192.536L600.164 197.674L608.109 188.437L595.954 181.114L591.011 192.536Z" fill="#872F37"/>
<path d="M512.234 56.5357C512.519 57.6533 512.159 58.7104 511.431 58.8969C510.7 59.0835 509.876 58.3304 509.589 57.2145C509.302 56.0969 509.663 55.0398 510.392 54.8515C511.123 54.665 511.947 55.4198 512.234 56.5357Z" fill="#17282F"/>
<path d="M512.263 58.6845C512.263 58.6845 511.374 65.7804 509.375 69.6047C511.824 70.9434 514.968 69.2385 514.968 69.2385L512.263 58.6845Z" fill="#6B1317"/>
<path d="M514.605 49.3327L514.191 49.3068C511.379 48.2047 509.332 49.6298 509.311 49.6453C509.007 49.8612 508.584 49.7921 508.366 49.4864C508.149 49.1824 508.219 48.7592 508.523 48.5415C508.631 48.4655 511.196 46.6778 514.685 48.0458C515.034 48.1823 515.205 48.5743 515.068 48.9233C514.985 49.134 514.809 49.2808 514.605 49.3327Z" fill="#17282F"/>
<path d="M547.651 59.6708C549.264 70.2058 551.525 86.3563 560.774 90.4449C560.774 90.4449 561.677 101.396 543.39 107.976C523.284 115.213 530.188 101.453 530.188 101.453C540.22 94.8825 537.007 86.8435 532.343 79.8823L547.651 59.6708Z" fill="#872F37"/>
<path d="M562.503 88.2478C562.558 84.9434 559.133 79.2329 555.733 79.6163C551.992 80.0378 537.684 85.3096 532.468 90.1271C527.251 94.9464 530.951 103.398 530.951 103.398L562.503 88.2478Z" fill="#17282F"/>
<path d="M669.958 486.994L669.73 487.288C669.594 487.516 669.563 487.738 669.635 487.968C669.801 488.508 670.062 488.538 670.148 488.549C671.036 488.653 672.848 486.799 673.936 485.215C672.693 485.531 670.762 486.167 669.958 486.994ZM672.8 487.537C671.896 488.472 670.877 489.238 670.078 489.144C669.742 489.107 669.293 488.901 669.06 488.144C668.939 487.749 668.989 487.357 669.214 486.98C670.19 485.341 674.351 484.496 674.527 484.46L674.831 484.583L674.847 484.908C674.506 485.485 673.712 486.595 672.8 487.537Z" fill="#406FBF"/>
<path d="M669.326 483.227L669.236 483.332C669 483.647 669.105 483.795 669.15 483.859C669.639 484.555 672.275 484.852 673.893 484.601C673.023 483.966 671.205 482.774 669.993 482.916C669.716 482.947 669.497 483.05 669.326 483.227ZM674.803 484.964L674.676 485.042C673.252 485.491 669.488 485.382 668.658 484.206C668.507 483.992 668.321 483.548 668.758 482.969C669.039 482.595 669.433 482.375 669.924 482.318C671.815 482.095 674.658 484.425 674.778 484.524L674.881 484.813L674.803 484.964Z" fill="#406FBF"/>
<path d="M566.299 521.182C566.089 521.182 565.893 521.202 565.719 521.249C565.443 521.325 565.249 521.463 565.13 521.67C564.917 522.043 564.995 522.23 565.071 522.336C565.662 523.156 568.87 523.173 571.229 522.84C570.053 522.237 567.783 521.182 566.299 521.182ZM568.312 523.643C566.683 523.643 565.111 523.418 564.584 522.686C564.399 522.43 564.254 521.995 564.608 521.371C564.807 521.025 565.128 520.788 565.562 520.67C567.673 520.095 572.107 522.622 572.295 522.731L572.442 523.038L572.205 523.286C571.395 523.447 569.83 523.643 568.312 523.643Z" fill="#406FBF"/>
<path d="M569.049 518.147L568.87 518.157C568.329 518.21 568.294 518.425 568.282 518.493C568.144 519.356 570.205 521.513 571.768 522.451C571.606 521.452 571.153 519.407 570.093 518.539C569.773 518.276 569.431 518.147 569.049 518.147ZM572.146 523.292L572.024 523.265C570.492 522.579 567.458 519.834 567.69 518.398C567.743 518.062 567.982 517.642 568.809 517.558C569.421 517.497 569.984 517.67 570.476 518.074C572.089 519.4 572.431 522.817 572.445 522.962L572.321 523.235L572.146 523.292Z" fill="#406FBF"/>
<path d="M586.1 522.991H573.409L572.146 493.605H584.835L586.1 522.991Z" fill="#872F37"/>
<path d="M687.781 479.946L676.035 484.218L661.118 457.894L672.862 453.622L687.781 479.946Z" fill="#872F37"/>
<path d="M674.189 483.054L684.102 472.809C684.463 472.436 685.034 472.364 685.477 472.636L695.326 478.678C696.347 479.304 696.504 480.735 695.656 481.582C692.132 485.099 690.242 486.633 685.883 491.14C683.2 493.91 675.218 503.307 671.515 507.135C667.892 510.878 663.543 507.8 664.716 505.9C669.977 497.387 673.162 489.283 673.318 485.076C673.346 484.319 673.66 483.598 674.189 483.054Z" fill="#17282F"/>
<path d="M573.494 521.522H587.352C587.87 521.522 588.319 521.881 588.432 522.387L590.938 533.668C591.199 534.836 590.311 535.945 589.112 535.924C584.113 535.84 576.891 535.548 570.607 535.548C563.261 535.548 560.052 535.948 551.436 535.948C546.226 535.948 544.78 530.68 546.96 530.205C556.887 528.032 561.858 527.799 570.436 522.512C571.369 521.936 572.399 521.522 573.494 521.522Z" fill="#17282F"/>
<path d="M539.02 117.834C537.069 122.751 534.997 127.342 532.85 132.032C530.727 136.703 528.429 141.298 526.073 145.882C521.268 155.025 516.139 164.022 509.753 172.766C508.145 174.944 506.42 177.104 504.523 179.24C503.573 180.323 502.6 181.335 501.469 182.458C499.98 183.871 498.55 184.89 497.17 185.773C494.399 187.518 491.775 188.661 489.176 189.73C486.586 190.787 484.02 191.642 481.46 192.402C471.23 195.412 461.172 197.151 450.794 198.108L448.858 188.779C458.101 185.433 467.505 181.975 476.157 178.098C478.306 177.107 480.401 176.081 482.372 175.029C484.32 173.975 486.189 172.825 487.562 171.725C488.253 171.189 488.808 170.652 489.098 170.291C489.696 169.593 490.428 168.759 491.077 167.904C492.414 166.197 493.725 164.347 494.985 162.4C497.551 158.557 499.944 154.396 502.245 150.169C504.566 145.941 506.775 141.595 508.929 137.206C513.224 128.458 517.386 119.381 521.226 110.529L539.02 117.834Z" fill="#872F37"/>
<path d="M567.978 85.054C586.195 83.6306 602.534 110.631 602.534 110.631L589.446 131.875C589.446 131.875 575.416 126.719 563.568 116.447C551.156 105.685 555.54 86.0264 567.978 85.054Z" fill="#FFD432"/>
<path d="M517.483 105.174C516.474 114.07 531.362 153.411 534.803 200.093L602.349 193.444C601.87 184.488 596.923 146.854 587.986 104.255C585.523 92.5073 576.409 83.4527 564.646 85.8329L564.32 85.8986C555.814 87.6466 543.585 90.495 536.372 93.0618C530.245 95.2417 524.527 98.04 521.235 99.757C519.162 100.837 517.747 102.851 517.483 105.174Z" fill="#FFD432"/>
<path d="M526.168 149.088H526.932V145.696H526.168V149.088Z" fill="#A0A3A2"/>
<path d="M526.168 145.697C525.748 143.863 525.332 142.072 524.921 140.332C525.334 142.073 525.75 143.861 526.168 145.695C526.168 145.695 526.168 145.695 526.168 145.697Z" fill="#581C22"/>
<path d="M527.837 153.227C527.536 151.824 527.234 150.444 526.932 149.088C526.678 147.941 526.424 146.81 526.168 145.695C525.75 143.861 525.334 142.073 524.921 140.332C524.722 139.494 524.525 138.667 524.329 137.852L536.337 127.712C536.13 128.006 538.113 150.791 527.837 153.227Z" fill="#F4AC12"/>
<path d="M539.503 109.575C544.69 127.348 525.5 151.064 525.5 151.064L506.186 138.625C506.186 138.625 506.057 122.351 512.227 109.624C520.043 93.4989 535.805 96.9017 539.503 109.575Z" fill="#FFD432"/>
<path d="M449.179 187.141L441.427 186.08L441.539 202.29C441.539 202.29 451.993 203.35 457.799 196.159L456.65 193.104C455.442 189.896 452.575 187.606 449.179 187.141Z" fill="#872F37"/>
<path d="M428.094 189.825L433.065 203.02L441.539 202.29L441.427 186.08L428.094 189.825Z" fill="#872F37"/>
<path d="M585.552 510.135H585.547L585.013 497.738H585.02L585.552 510.135Z" fill="#111D23"/>
<path d="M585.02 497.738H585.013L584.835 493.613H584.844L585.02 497.738Z" fill="#535F64"/>
<path d="M572.856 510.135L572.703 506.546L572.856 510.135Z" fill="#C3C5C2"/>
<path d="M585.547 510.135H572.856L572.703 506.546L572.148 493.613H584.835L585.013 497.738L585.547 510.135Z" fill="#682329"/>
<path d="M678.386 463.368L677.281 461.419L677.287 461.416L678.388 463.359C678.388 463.361 678.386 463.364 678.386 463.368Z" fill="#B1B3B1"/>
<path d="M680.557 467.199L678.386 463.368C678.386 463.364 678.388 463.361 678.388 463.359L680.564 467.195L680.557 467.199Z" fill="#B1B3B1"/>
<path d="M669.385 472.472L665.918 466.359L677.28 461.419L678.386 463.368L680.557 467.199L669.385 472.472Z" fill="#682329"/>
<path d="M548.884 44.6205C551.558 58.5549 553.83 66.5732 548.706 75.3929C540.999 88.6554 522.454 86.7122 515.671 73.8573C509.565 62.2859 506.219 41.4422 518.248 32.5395C530.101 23.7716 546.21 30.6844 548.884 44.6205Z" fill="#872F37"/>
<path d="M525.398 53.9171C516.904 58.1628 516.714 44.5963 517.435 41.7169C514.241 44.776 509.923 47.8714 502.079 44.4875C492.44 40.3333 495.169 29.4459 502.079 29.5893C502.079 29.5893 496.961 19.7366 508.24 18.7002C514.516 18.1232 521.943 20.8092 521.943 20.8092C521.943 20.8092 526.147 9.81479 536.366 15.1402C541.783 17.9626 546.091 26.2797 546.091 26.2797C546.091 26.2797 568.115 29.5427 556.167 41.0588C558.877 46.9594 557.438 66.1811 550.442 74.4032C547.385 77.9943 521.223 76.9476 525.398 53.9171Z" fill="#17282F"/>
<path d="M542.282 31.8936C542.282 31.8936 546.269 26.3937 546.592 13.684C555.911 23.8062 542.282 31.8936 542.282 31.8936Z" fill="#17282F"/>
<path d="M529.53 53.138C529.842 56.8414 528.637 60.5413 526.914 63.0995C524.322 66.9428 520.796 65.2949 519.651 61.2357C518.618 57.5824 518.723 51.1757 522.223 48.7557C525.671 46.372 529.172 48.9026 529.53 53.138Z" fill="#872F37"/>
<path d="M558.763 197.733C558.763 197.733 582.597 292.833 594.023 328.214C606.538 366.96 660.81 468.579 660.81 468.579L682.114 459.319C682.114 459.319 641.039 366.791 632.263 328.072C622.738 286.052 602.349 193.444 602.349 193.444L558.763 197.733Z" fill="#17282F"/>
<path d="M654.506 461.58L661.482 471.571L685.397 460.998L680.566 451.109L654.506 461.58Z" fill="#F4AC12"/>
<path d="M593.564 326.799C590.94 318.544 587.717 307.398 584.302 295.094C587.715 307.382 590.936 318.519 593.562 326.775C593.562 326.782 593.564 326.791 593.564 326.799Z" fill="#979999"/>
<path d="M593.562 326.775C590.936 318.519 587.715 307.382 584.302 295.094C578.613 274.61 572.393 250.919 567.521 232.041C568.396 231.49 569.395 231.195 570.531 231.195C570.751 231.195 570.977 231.207 571.207 231.23C588.093 232.845 592.427 294.787 593.562 326.775Z" fill="#0F191D"/>
<path d="M534.803 200.093C534.803 200.093 537.544 297.72 542.709 336.096C548.081 376.011 567.947 503.694 567.947 503.694H589.446C589.446 503.694 584.481 374.792 581.56 335.358C578.375 292.367 579.202 195.722 579.202 195.722L534.803 200.093Z" fill="#17282F"/>
<path d="M563.672 493.611L565.379 506.624L591.511 505.725L591.757 493.605L563.672 493.611Z" fill="#F4AC12"/>
</svg>
