<svg width="356" height="478" viewBox="0 0 356 478" fill="none" xmlns="http://www.w3.org/2000/svg">
<path d="M32.3311 323.668H55.6348V233.362H32.3311V323.668Z" fill="#E2E2E0"/>
<path d="M103.588 319.51H105.362C105.344 315.852 105.37 306.576 105.548 285.318C105.868 246.786 106.479 244.437 106.479 244.437L102.253 262.224C99.5742 281.922 103.028 301.715 103.588 319.51" fill="#E2E2E0"/>
<path d="M100.079 259.575C93.9947 252.323 80.9981 250.213 67.6905 248.409C62.4664 247.7 81.4195 259.639 90.6831 268.118C97.881 274.706 102.481 276.526 104.458 283.091C105.486 274.905 105.319 265.822 100.079 259.575" fill="#E2E2E0"/>
<path d="M108.148 272.533C114.23 265.283 127.229 263.172 140.536 261.367C145.76 260.659 126.807 272.598 117.542 281.077C110.346 287.664 105.744 289.484 103.768 296.049C102.739 287.863 102.906 278.78 108.148 272.533" fill="#E2E2E0"/>
<path d="M105.543 242.733C110.104 234.067 121.582 225.908 134.46 222.813C139.517 221.598 122.748 238.816 116.374 249.917C111.423 258.542 104.857 268.673 103.836 275.95C102.296 261.531 100.983 251.399 105.543 242.733" fill="#E2E2E0"/>
<path d="M105.005 323.668C99.5711 323.668 95.0811 320.945 94.7685 317.461L93.8628 311.506H116.148L115.242 317.461C114.929 320.945 110.439 323.668 105.005 323.668Z" fill="#EDEDEB"/>
<path d="M226.082 399.742H30.5825C26.7667 399.742 23.2835 397.915 21.0032 395.088C19.4233 393.129 18.4211 390.691 18.2847 388.046L3.79701 106.931L0.787299 48.5346C0.776572 48.3323 0.771978 48.1316 0.771978 47.9324C0.765849 41.7521 5.62214 36.8391 11.8791 36.8391H20.1634C19.3359 38.4573 18.913 40.3254 19.0157 42.3145L35.7499 367.022C36.0686 373.201 41.3341 378.209 47.5129 378.209H234.487C235.233 378.209 235.958 378.136 236.655 377.997L237.173 388.046C237.184 388.248 237.19 388.449 237.19 388.648C237.195 394.829 232.339 399.742 226.082 399.742" fill="white"/>
<path d="M234.487 378.209H47.5127C41.3339 378.209 36.0685 373.201 35.7497 367.023L19.0155 42.3148C18.6983 36.136 23.4473 31.128 29.6246 31.128H216.6C222.778 31.128 228.043 36.136 228.362 42.3148L245.096 367.023C245.415 373.201 240.664 378.209 234.487 378.209Z" fill="#FFD432"/>
<path d="M29.6245 38.9817C28.587 38.9817 27.9418 39.4323 27.5833 39.8077C27.2231 40.1878 26.8048 40.8605 26.8584 41.9102L43.5942 366.62C43.6953 368.611 45.5266 370.356 47.5126 370.356H234.487C235.526 370.356 236.169 369.907 236.527 369.53C236.888 369.151 237.307 368.478 237.253 367.427L220.519 42.7194C220.416 40.7287 218.585 38.9817 216.6 38.9817H29.6245V38.9817ZM234.487 370.739H47.5126C45.3335 370.739 43.3229 368.823 43.2111 366.639L26.4753 41.9286C26.4155 40.744 26.8937 39.9778 27.3059 39.5457C27.7151 39.1135 28.4506 38.5986 29.6245 38.5986H216.6C218.778 38.5986 220.788 40.5141 220.902 42.6994L237.636 367.408C237.696 368.593 237.218 369.36 236.805 369.794C236.396 370.224 235.662 370.739 234.487 370.739" fill="white"/>
<path d="M130.425 173.024C99.1652 173.024 72.5177 147.682 70.9055 116.422C69.2949 85.1617 93.3312 59.8197 124.591 59.8197C155.852 59.8197 182.499 85.1617 184.11 116.422C185.722 147.682 161.686 173.024 130.425 173.024Z" fill="#F4AC12"/>
<path d="M173.303 116.422C173.711 124.331 172.086 131.757 168.893 138.236C161.903 152.509 147.278 162.217 129.869 162.217C112.459 162.217 96.8328 152.509 88.3722 138.236C84.5105 131.757 82.1214 124.331 81.7138 116.422C80.4097 91.126 99.8533 70.6281 125.148 70.6281C150.444 70.6281 171.999 91.126 173.303 116.422Z" fill="white"/>
<path d="M168.892 138.236C161.903 152.509 147.277 162.217 129.869 162.217C112.459 162.217 96.8327 152.509 88.3721 138.236C99.5037 130.534 113.107 126.038 128.004 126.038C142.899 126.038 156.967 130.534 168.892 138.236Z" fill="#0E0053"/>
<path d="M147.1 100.756C147.681 112.021 139.019 121.154 127.753 121.154C116.487 121.154 106.883 112.021 106.303 100.756C105.723 89.4891 114.384 80.3557 125.65 80.3557C136.917 80.3557 146.521 89.4891 147.1 100.756Z" fill="#0D0052"/>
<path d="M207.691 251.901H61.291C58.6766 251.901 56.4485 249.782 56.3136 247.168L55.2056 225.655C55.0708 223.041 57.0798 220.922 59.6941 220.922H206.094C208.708 220.922 210.937 223.041 211.071 225.655L212.181 247.168C212.314 249.782 210.305 251.901 207.691 251.901" fill="white"/>
<path d="M162.857 209.108H101.714C99.0995 209.108 96.8713 206.989 96.7365 204.375L96.502 199.807C96.3672 197.192 98.3762 195.074 100.991 195.074H162.135C164.749 195.074 166.977 197.192 167.112 199.807L167.347 204.375C167.481 206.989 165.471 209.108 162.857 209.108Z" fill="#F4AC12"/>
<path d="M185.595 355.011H94.0147C89.563 355.011 85.7687 351.404 85.5388 346.951L84.9948 336.389C84.765 331.937 88.1884 328.329 92.6401 328.329H184.22C188.672 328.329 192.466 331.937 192.696 336.389L193.24 346.951C193.47 351.404 190.046 355.011 185.595 355.011" fill="#F4AC12"/>
<path d="M210.363 303.751H63.9634C61.349 303.751 59.1209 301.632 58.986 299.018L57.8765 277.505C57.7417 274.891 59.7522 272.772 62.3666 272.772H208.766C211.381 272.772 213.609 274.891 213.744 277.505L214.852 299.018C214.987 301.632 212.978 303.751 210.363 303.751Z" fill="white"/>
<path d="M79.9088 236.411C80.0574 239.305 77.8323 241.651 74.9391 241.651C72.0443 241.651 69.5771 239.305 69.4284 236.411C69.2798 233.517 71.5049 231.171 74.3981 231.171C77.2929 231.171 79.7586 233.517 79.9088 236.411Z" fill="#17282F"/>
<path d="M96.0098 236.411C96.1585 239.305 93.9334 241.651 91.0402 241.651C88.1454 241.651 85.6781 239.305 85.5295 236.411C85.3808 233.517 87.606 231.171 90.4992 231.171C93.394 231.171 95.8612 233.517 96.0098 236.411Z" fill="#17282F"/>
<path d="M112.111 236.411C112.26 239.305 110.034 241.651 107.141 241.651C104.246 241.651 101.781 239.305 101.631 236.411C101.482 233.517 103.707 231.171 106.602 231.171C109.495 231.171 111.962 233.517 112.111 236.411Z" fill="#17282F"/>
<path d="M128.213 236.411C128.363 239.305 126.138 241.651 123.243 241.651C120.35 241.651 117.882 239.305 117.734 236.411C117.584 233.517 119.809 231.171 122.703 231.171C125.597 231.171 128.064 233.517 128.213 236.411Z" fill="#17282F"/>
<path d="M82.5797 288.262C82.7299 291.156 80.5048 293.502 77.61 293.502C74.7168 293.502 72.2496 291.156 72.1009 288.262C71.9507 285.368 74.1759 283.022 77.0706 283.022C79.9639 283.022 82.4311 285.368 82.5797 288.262Z" fill="#17282F"/>
<path d="M98.6823 288.262C98.831 291.156 96.6059 293.502 93.7111 293.502C90.8179 293.502 88.3506 291.156 88.202 288.262C88.0518 285.368 90.2784 283.022 93.1717 283.022C96.0665 283.022 98.5322 285.368 98.6823 288.262Z" fill="#17282F"/>
<path d="M114.784 288.262C114.932 291.156 112.707 293.502 109.814 293.502C106.919 293.502 104.452 291.156 104.303 288.262C104.155 285.368 106.38 283.022 109.273 283.022C112.168 283.022 114.635 285.368 114.784 288.262Z" fill="#17282F"/>
<path d="M130.885 288.262C131.034 291.156 128.809 293.502 125.916 293.502C123.021 293.502 120.555 291.156 120.405 288.262C120.256 285.368 122.481 283.022 125.375 283.022C128.269 283.022 130.737 285.368 130.885 288.262Z" fill="#17282F"/>
<path d="M146.986 288.262C147.137 291.156 144.911 293.502 142.017 293.502C139.123 293.502 136.656 291.156 136.506 288.262C136.357 285.368 138.583 283.022 141.477 283.022C144.371 283.022 146.838 285.368 146.986 288.262Z" fill="#17282F"/>
<path d="M163.089 288.262C163.238 291.156 161.013 293.502 158.118 293.502C155.225 293.502 152.757 291.156 152.609 288.262C152.459 285.368 154.684 283.022 157.578 283.022C160.472 283.022 162.939 285.368 163.089 288.262Z" fill="#17282F"/>
<path d="M337.362 110.309C337.747 110.878 337.942 111.19 338.195 111.599L338.88 112.746C339.324 113.504 339.713 114.261 340.106 115.018C340.872 116.534 341.597 118.051 342.245 119.583C343.558 122.648 344.635 125.777 345.567 128.928C347.455 135.226 348.609 141.681 349.201 148.137L349.32 149.348C349.342 149.521 349.357 149.794 349.369 150.079L349.403 150.903C349.423 151.993 349.369 153.07 349.217 154.089C348.929 156.144 348.376 158.041 347.697 159.796C346.32 163.29 344.427 166.258 342.396 168.96C338.241 174.34 333.522 178.647 328.131 182.464L323.909 177.52C327.697 173.139 331.368 168.284 334.086 163.437C335.473 161.02 336.533 158.527 337.192 156.204C337.502 155.042 337.669 153.925 337.695 152.918C337.73 152.41 337.693 151.939 337.644 151.493L337.597 151.167C337.586 151.067 337.574 150.955 337.534 150.749L337.343 149.67C336.34 143.918 334.972 138.267 333.177 132.808C332.296 130.071 331.207 127.426 330.102 124.827C329.555 123.523 328.949 122.259 328.33 121.025L327.38 119.225L326.908 118.371L326.519 117.702L337.362 110.309" fill="#F9AD95"/>
<path d="M323.057 182.562L328.606 194.277L333.007 184.37C333.007 184.37 329.107 175.789 323.829 176.575L323.057 182.562" fill="#F9AD95"/>
<path d="M332.583 194.858L336.989 187.634L333.008 184.37L328.606 194.277L332.583 194.858Z" fill="#F9AD95"/>
<path d="M310.168 464.316C307.932 464.763 306.252 464.685 305.603 464.092C305.325 463.841 305.224 463.486 305.29 463.012C305.327 462.754 305.445 462.67 305.543 462.626C306.332 462.263 308.579 463.355 310.168 464.316ZM307.638 465.21C308.824 465.21 310.12 464.966 311.027 464.749L311.257 464.507L311.124 464.201C310.686 463.911 306.786 461.395 305.293 462.071C305.057 462.178 304.76 462.413 304.688 462.925C304.593 463.606 304.761 464.15 305.192 464.542C305.739 465.04 306.651 465.21 307.638 465.21Z" fill="#406FBF"/>
<path d="M308.773 459.556C309.023 459.556 309.244 459.643 309.446 459.822C310.278 460.56 310.565 462.634 310.635 463.864C309.414 462.89 307.958 460.809 308.134 459.926C308.164 459.783 308.246 459.611 308.636 459.564L308.773 459.556ZM310.957 464.758L311.11 464.717L311.262 464.455C311.262 464.297 311.244 460.602 309.849 459.367C309.478 459.038 309.043 458.9 308.562 458.961C307.8 459.053 307.593 459.531 307.538 459.809C307.249 461.255 309.583 464.024 310.809 464.719L310.957 464.758" fill="#406FBF"/>
<path d="M286.031 459.929C286.714 459.188 289.745 458.989 292.022 459.026C289.635 460.643 287.664 461.415 286.665 461.104C286.314 460.995 286.078 460.753 285.94 460.367C285.887 460.215 285.9 460.097 285.985 459.982L286.031 459.929ZM293.166 458.957L293.235 458.664L292.957 458.447C292.321 458.416 286.814 458.188 285.572 459.529L285.497 459.619C285.29 459.898 285.244 460.227 285.367 460.569C285.571 461.142 285.946 461.518 286.484 461.685C288.268 462.239 291.408 460.238 293.121 458.997L293.166 458.957" fill="#2D5BB2"/>
<path d="M287.662 455.884L287.954 455.662C288.354 455.428 288.773 455.374 289.236 455.498C290.568 455.858 291.821 457.561 292.376 458.413C290.565 458.206 287.788 457.086 287.554 456.234C287.538 456.183 287.505 456.056 287.662 455.884ZM293.165 458.957L293.205 458.903L293.207 458.601C293.135 458.474 291.423 455.458 289.394 454.912C288.775 454.745 288.185 454.821 287.646 455.138C286.916 455.566 286.875 456.059 286.967 456.395C287.359 457.815 291.265 459.066 292.945 459.055L293.165 458.957" fill="#2D5BB2"/>
<path d="M310.036 65.4159C308.543 73.0337 305.189 89.6484 310.519 94.7315C310.519 94.7315 308.436 102.458 294.283 102.458C278.721 102.458 286.846 94.733 286.846 94.733C295.34 92.7041 295.121 86.4027 293.64 80.4844L310.036 65.4159" fill="#F9AD95"/>
<path d="M284.101 47.4531L284.374 47.3888C284.673 47.2386 284.795 46.8739 284.645 46.572C283.139 43.5653 280.353 43.2159 280.235 43.2037C279.902 43.1623 279.6 43.4044 279.562 43.7385C279.524 44.071 279.763 44.3714 280.094 44.4113C280.186 44.422 282.356 44.7177 283.557 47.1175C283.664 47.3305 283.879 47.4531 284.101 47.4531" fill="#17282F"/>
<path d="M279.461 54.1099C279.461 54.1099 277.17 58.318 274.986 60.2151C276.186 61.648 278.565 61.3553 278.565 61.3553L279.461 54.1099Z" fill="#F9AD95"/>
<path d="M280.599 52.458C280.472 53.4863 279.824 54.2509 279.153 54.1682C278.48 54.0854 278.039 53.1843 278.166 52.1576C278.293 51.1293 278.941 50.3647 279.612 50.4474C280.284 50.5302 280.725 51.4313 280.599 52.458Z" fill="#17282F"/>
<path d="M279.902 50.5406L277.522 49.5246C277.522 49.5246 278.551 51.6087 279.902 50.5406Z" fill="#17282F"/>
<path d="M306.691 456.045L294.191 458.964L286.595 430.213L299.095 427.293L306.691 456.045" fill="#F9AD95"/>
<path d="M325.885 464.454H313.049L314.056 434.728H326.891L325.885 464.454" fill="#F9AD95"/>
<path d="M312.032 462.969H326.454C326.978 462.969 327.404 463.334 327.477 463.845L329.12 475.255C329.292 476.439 328.273 477.559 327.063 477.538C322.036 477.451 319.613 477.157 313.27 477.157C309.368 477.157 303.669 477.561 298.281 477.561C293.011 477.561 292.607 472.234 294.85 471.751C304.909 469.588 306.498 466.604 309.886 463.758C310.498 463.245 311.264 462.969 312.032 462.969" fill="#F4AC12"/>
<path d="M293.083 457.049L306.184 451.023C306.66 450.804 307.2 450.956 307.482 451.391L313.742 461.07C314.392 462.074 313.935 463.518 312.827 464.005C308.224 466.026 305.899 466.77 300.137 469.422C296.592 471.052 289.431 474.793 284.537 477.044C279.749 479.246 277.153 474.575 278.991 473.201C287.225 467.031 289.575 462.665 291.463 458.664C291.805 457.942 292.386 457.37 293.083 457.049" fill="#F4AC12"/>
<path d="M303.011 442.122L300.904 434.143L300.91 434.14L303.018 442.12L303.011 442.122Z" fill="#C3C5C2"/>
<path d="M290.666 445.623L288.793 438.531L300.904 434.143L303.011 442.121L290.666 445.623" fill="#C79484"/>
<path d="M326.381 450.06H326.372L326.473 447.092H326.481L326.381 450.06Z" fill="#C3C5C2"/>
<path d="M326.372 450.06H313.54L313.639 447.092H326.473L326.372 450.06" fill="#C79484"/>
<path d="M332.656 97.6476C337.988 98.8168 343.684 118 343.684 118L328.606 134.032C328.606 134.032 316.097 116.015 318.645 109.389C321.299 102.49 326.353 96.2669 332.656 97.6476Z" fill="white"/>
<path d="M327.406 132.246C327 131.617 326.51 130.846 325.969 129.968C325.97 129.964 325.97 129.961 325.972 129.958C326.511 130.836 327.002 131.605 327.409 132.235C327.409 132.238 327.408 132.243 327.406 132.246Z" fill="#858889"/>
<path d="M327.41 132.235C327.002 131.605 326.512 130.836 325.972 129.958C326.594 126.263 327.341 122.254 328.229 117.851C329.184 123.059 328.259 128.833 327.41 132.235Z" fill="#BFC0C0"/>
<path d="M265.148 98.0203C265.148 98.0203 259.034 100.175 271.283 175.493C291.969 175.493 313.348 175.493 323.415 175.493C322.539 154.276 322.515 141.192 332.657 97.6479C332.657 97.6479 321.733 95.2726 310.519 94.7317C301.746 94.3087 294.559 94.0283 286.846 94.7332C276.678 95.6604 265.148 98.0203 265.148 98.0203Z" fill="white"/>
<path d="M265.896 138.144C265.395 134.04 265.002 130.364 264.696 127.061C265.011 130.367 265.405 134.045 265.896 138.144Z" fill="#8C8F8F"/>
<path d="M266.047 139.372C265.997 138.958 265.946 138.549 265.896 138.144C265.405 134.045 265.012 130.367 264.696 127.062C264.693 127.017 264.688 126.973 264.684 126.928C266.783 123.863 269.541 120.431 272.53 118.21C273.808 124.591 270.317 135.527 266.047 139.372Z" fill="#BFC0C0"/>
<path d="M270.248 115.51C267.412 122.674 264.289 129.483 260.773 136.282C257.264 143.072 253.517 149.744 248.537 156.196L247.556 157.404L247.067 158.004C246.898 158.208 246.767 158.386 246.495 158.665C245.548 159.71 244.522 160.606 243.469 161.357C241.359 162.862 239.177 163.82 237.062 164.557C232.826 165.982 228.733 166.488 224.741 166.727C216.731 167.052 209.153 166.31 201.511 164.664L202.361 158.22C205.883 158.239 209.577 158.159 213.139 157.935C216.719 157.748 220.262 157.365 223.661 156.758C227.052 156.19 230.333 155.327 233.068 154.136C234.418 153.531 235.592 152.806 236.455 152.072C236.89 151.706 237.23 151.332 237.503 150.975C237.561 150.923 237.698 150.721 237.816 150.557L238.173 150.051L238.89 149.044C242.666 143.458 245.981 136.969 249.147 130.482C252.256 123.966 255.256 117.208 258.071 110.614L270.248 115.51" fill="#F9AD95"/>
<path d="M265.148 98.0204C258.769 99.5758 250.918 117.092 250.918 117.092L264.16 136.546C264.16 136.546 281.79 114.352 279.694 107.569C277.51 100.506 272.889 96.134 265.148 98.0204" fill="white"/>
<path d="M206.033 159.175L194.987 154.075L193.877 165.055C193.877 165.055 203.109 167.772 207.66 164.989L206.033 159.175" fill="#F9AD95"/>
<path d="M188.372 152.966L187.317 161.327L193.878 165.055L194.987 154.075L188.372 152.966" fill="#F9AD95"/>
<path d="M315.583 53.2056C313.246 65.7286 312.525 71.0799 305.35 76.7683C294.558 85.3239 279.686 79.7167 278.235 66.7477C276.926 55.0736 280.967 36.5541 293.941 33.0617C306.723 29.6198 317.919 40.6825 315.583 53.2056" fill="#F9AD95"/>
<path d="M288.075 55.8432C287.359 62.2289 287.083 78.8206 301.111 79.3416C318.303 79.9806 323.449 65.2938 321.917 59.4199C330.856 52.1408 332.149 39.6269 322.098 30.0477C312.047 20.4699 289.917 25.8243 283.733 35.1553C276.071 46.7221 288.075 55.8432 288.075 55.8432Z" fill="#17282F"/>
<path d="M305.289 33.768C304.458 27.033 305.103 22.3851 311.403 22.3851C317.703 22.3851 326.323 24.6746 329.483 31.1277C332.644 37.5823 332.898 47.6703 324.087 46.6482C315.275 45.6276 306.283 41.8317 305.289 33.768Z" fill="#FFD432"/>
<path d="M315.06 32.1516C313.559 24.1155 320.716 1.50743 338.178 0.0378237C346.266 -0.642578 350.011 8.06166 345.776 9.49602C353.417 9.40254 358.342 19.5304 351.196 21.0567C356.846 24.6656 355.439 32.0903 347.394 35.7298C341.462 38.4146 317.138 43.2679 315.06 32.1516Z" fill="#17282F"/>
<path d="M333.714 40.7778C328.096 40.7794 322.221 39.9534 318.581 37.5153C316.372 36.035 315.159 34.0734 314.979 31.6828C314.963 31.4714 315.121 31.2875 315.331 31.2722C315.555 31.2553 315.726 31.4146 315.743 31.6246C315.904 33.7685 317.003 35.5369 319.007 36.8793C325.942 41.5226 341.969 40.0193 346.991 38.3796C351.311 36.9713 354.237 34.2389 354.817 31.0714C355.243 28.7482 354.332 26.5476 352.252 24.8727C352.087 24.7394 352.061 24.4972 352.192 24.3333C352.326 24.1693 352.568 24.1432 352.732 24.275C355.007 26.1078 356.042 28.6348 355.571 31.2093C354.938 34.6573 351.82 37.6103 347.229 39.109C344.599 39.9672 339.283 40.7778 333.714 40.7778" fill="#17282F"/>
<path d="M284.166 54.1513C282.625 56.283 282.184 58.9326 282.523 61.0703C283.033 64.2838 286.167 64.4968 288.435 62.4372C290.478 60.583 292.672 56.6753 291 54.0104C289.353 51.3853 285.925 51.7148 284.166 54.1513" fill="#F9AD95"/>
<path d="M285.05 175.493C285.05 175.493 292.499 263.594 300.229 313.246C306.472 353.35 311.394 447.092 311.394 447.092H328.899C328.899 447.092 335.124 356.152 331.955 316.486C323.937 216.114 341.819 207.939 323.414 175.493H285.05" fill="#2D5BB2"/>
<path d="M296.223 284.228C296.019 282.599 295.815 280.958 295.614 279.306V279.304C295.817 280.958 296.019 282.598 296.223 284.228" fill="#858889"/>
<path d="M297.583 294.761C297.125 291.328 296.67 287.808 296.223 284.228C296.019 282.598 295.817 280.958 295.614 279.305C300.742 264.354 305.232 252.216 308.787 241.151C307.845 262.56 302.978 281.142 297.583 294.761" fill="#110066"/>
<path d="M272.798 174.936C272.798 174.936 256.637 271.156 254.084 314.527C260.431 354.633 286.392 439.399 286.392 439.399L302.314 433.633C302.314 433.633 293.506 341.196 283.875 315.89C305.436 243.295 321.283 224.947 316.672 175.492C305.675 175.492 272.798 174.936 272.798 174.936Z" fill="#2D5BB2"/>
<path d="M284.256 443.636L305.772 437.794L304.553 429.219L281.516 435.448L284.256 443.636" fill="#17282F"/>
<path d="M308.999 447.439H331.294L332.465 439.618L308.872 438.819L308.999 447.439Z" fill="#17282F"/>
<path d="M324.196 172.434L326.547 177.1C326.729 177.462 326.3 177.831 325.698 177.831H271.025C270.555 177.831 270.165 177.601 270.136 177.305L269.666 172.639C269.634 172.316 270.04 172.042 270.555 172.042H323.347C323.735 172.042 324.078 172.201 324.196 172.434Z" fill="#406FBF"/>
<path d="M295.994 177.831H271.025C270.554 177.831 270.165 177.601 270.136 177.305L269.666 172.639C269.664 172.625 269.664 172.613 269.664 172.601C269.664 172.294 270.061 172.042 270.554 172.042H292.752C293.527 174.211 294.589 176.168 295.994 177.831V177.831ZM326.407 177.609C326.464 177.529 326.521 177.448 326.576 177.367C326.551 177.456 326.491 177.538 326.407 177.609Z" fill="#254583"/>
<path d="M317.105 178.337H318.518C318.8 178.337 319.015 178.191 318.996 178.014L318.333 171.951C318.313 171.773 318.068 171.629 317.786 171.629H316.371C316.089 171.629 315.875 171.773 315.895 171.951L316.558 178.014C316.577 178.191 316.824 178.337 317.105 178.337" fill="#406FBF"/>
<path d="M298.126 133.679C297.781 133.679 297.476 133.447 297.387 133.113C292.387 114.641 281.996 99.4487 277.04 97.1056C276.483 96.8435 276.024 96.7685 275.748 96.8926C275.359 97.0673 274.907 96.8926 274.733 96.5079C274.56 96.1233 274.732 95.6681 275.118 95.495C275.832 95.1716 276.698 95.2498 277.694 95.7202C282.984 98.2212 293.466 113.239 298.71 132.143C302.468 132.096 308.265 131.627 309.664 131.509C311.415 129.429 324.265 113.366 319.458 95.7969C319.346 95.3892 319.586 94.9663 319.994 94.856C320.399 94.7441 320.823 94.9832 320.936 95.3923C326.288 114.949 310.769 132.582 310.611 132.758C310.481 132.903 310.301 132.992 310.107 133.009C310.03 133.017 302.388 133.679 298.126 133.679" fill="#F4AC12"/>
<path d="M323.511 144.511C315.157 128.853 311.742 127.759 310.247 122.725C310.247 122.725 311.593 118.924 315.01 115.076C313.985 114.791 311.817 114.358 310.456 114.096C310.611 113.409 310.768 112.732 310.923 112.082C309.795 111.769 307.451 112.093 306.252 112.293L306.199 110.747C306.199 110.747 301.963 109.898 300.261 110.37C300.431 111.083 300.602 111.824 300.774 112.577C299.281 112.865 296.903 113.34 295.78 113.653C299.033 117.317 300.207 121.229 300.46 122.194C295.962 129.926 278.456 179.676 306.921 183.417C335.404 187.161 331.862 160.171 323.511 144.511Z" fill="#406FBF"/>
<path d="M311.979 183.77C310.418 183.77 308.733 183.656 306.92 183.417C294.787 181.823 291.006 171.869 291.011 160.371C291.017 144.898 297.879 126.631 300.46 122.195C300.207 121.229 299.033 117.317 295.78 113.653C296.903 113.34 299.281 112.865 300.774 112.577C300.602 111.825 300.431 111.083 300.261 110.37C300.631 110.268 301.122 110.228 301.663 110.228C303.606 110.228 306.199 110.747 306.199 110.747L306.252 112.294C307.092 112.153 308.493 111.952 309.645 111.952C310.137 111.952 310.585 111.989 310.923 112.082C310.768 112.732 310.611 113.409 310.456 114.096C311.817 114.358 313.985 114.791 315.01 115.076C311.593 118.924 310.247 122.725 310.247 122.725C311.742 127.759 315.157 128.853 323.511 144.512C326.893 150.856 329.487 159.057 329.483 166.323C329.478 175.851 325.003 183.77 311.979 183.77" fill="#FFD432"/>
<path d="M299.398 120.714C299.188 121.094 299.206 122.535 299.176 123.109C299.144 123.684 300.676 124.067 302.4 124.227C304.124 124.386 311.244 124.673 311.02 123.876C310.796 123.077 311.371 121.991 311.403 121.321C311.435 120.65 308.562 120.619 306.167 120.714C303.773 120.811 299.878 119.853 299.398 120.714Z" fill="#110066"/>
<path d="M282.834 178.337H284.248C284.529 178.337 284.743 178.191 284.725 178.014L284.061 171.951C284.041 171.773 283.796 171.629 283.514 171.629H282.1C281.819 171.629 281.605 171.773 281.623 171.951L282.287 178.014C282.307 178.191 282.552 178.337 282.834 178.337Z" fill="#406FBF"/>
</svg>
