<svg width="522" height="1280" viewBox="0 0 522 1280" fill="none" xmlns="http://www.w3.org/2000/svg">
<path d="M370.122 1280H367.954V442.913H370.122V1280Z" fill="#90CBFB"/>
<path d="M370.122 324.48H367.954V0H370.122V324.48Z" fill="#90CBFB"/>
<g filter="url(#filter0_d)">
<path d="M325.717 373.081C325.548 347.88 345.838 327.311 371.041 327.142C396.242 326.975 416.811 347.271 416.98 372.472C417.147 397.672 396.854 418.241 371.653 418.411C346.45 418.58 325.884 398.284 325.717 373.081ZM466.807 380.581L466.706 365.477L446.215 361.276C445.356 355.619 443.86 350.177 441.822 345.009L457.451 330.76L449.81 317.732L429.664 324.434C426.152 320.207 422.186 316.382 417.853 313.005L424.437 292.293L411.306 284.83L396.635 301.356C391.791 299.641 386.72 298.418 381.482 297.714L376.606 275.486L361.505 275.589L356.819 298.441C352.015 299.374 347.377 300.761 342.943 302.556L326.791 284.844L313.763 292.485L321.507 315.759C318.131 318.714 315.015 321.953 312.209 325.456L288.321 317.861L280.861 330.99L299.819 347.823C298.432 351.797 297.375 355.926 296.666 360.173L271.517 365.686L271.62 380.788L296.764 385.948C297.493 390.129 298.57 394.189 299.96 398.106L280.875 415.505L288.517 428.533L312.568 420.533C315.299 423.887 318.309 427.002 321.562 429.845L313.889 453.972L327.021 461.437L343.268 443.131C347.512 444.826 351.937 446.167 356.52 447.074L361.717 470.779L376.819 470.678L381.505 447.826C386.513 447.155 391.366 445.997 396.012 444.395L411.533 461.42L424.564 453.782L417.574 432.777C421.796 429.518 425.655 425.819 429.104 421.759L450.003 428.406L457.466 415.275L441.578 401.173C443.642 396.076 445.158 390.7 446.074 385.124L466.807 380.581Z" fill="#90CBFB"/>
</g>
<path d="M262.949 1280H260.643V839.93H262.949V1280Z" fill="#90CBFB"/>
<path d="M262.949 736.721H260.643V0H262.949V736.721Z" fill="#90CBFB"/>
<g filter="url(#filter1_d)">
<path d="M229.607 800.863C229.607 781.811 245.053 766.362 264.106 766.362C283.155 766.362 298.604 781.811 298.604 800.863C298.604 819.913 283.155 835.362 264.106 835.362C245.053 835.362 229.607 819.913 229.607 800.863ZM336.233 807.243V795.827L320.764 792.547C320.141 788.265 319.038 784.146 317.525 780.228L329.41 769.532L323.701 759.645L308.433 764.613C305.803 761.4 302.823 758.486 299.563 755.909L304.649 740.285L294.756 734.58L283.583 746.999C279.931 745.678 276.103 744.725 272.146 744.168L268.574 727.341H257.16L253.498 744.592C249.863 745.273 246.348 746.302 242.988 747.633L230.865 734.163L220.978 739.872L226.716 757.509C224.151 759.723 221.777 762.155 219.637 764.788L201.618 758.927L195.913 768.814L210.158 781.635C209.087 784.633 208.272 787.749 207.712 790.956L188.671 794.997L188.674 806.414L207.651 810.442C208.186 813.607 208.978 816.682 210.009 819.649L195.496 832.706L201.202 842.595L219.428 836.665C221.475 839.218 223.732 841.587 226.181 843.752L220.257 861.955L230.144 867.663L242.523 853.906C245.722 855.21 249.062 856.243 252.519 856.955L256.33 874.9H267.744L271.408 857.651C275.196 857.168 278.868 856.315 282.389 855.129L294.036 868.077L303.928 862.369L298.748 846.454C301.955 844.013 304.893 841.237 307.52 838.184L323.285 843.313L328.994 833.427L317.057 822.685C318.642 818.842 319.816 814.788 320.534 810.575L336.233 807.243Z" fill="#90CBFB"/>
</g>
<path d="M152.929 450.241H150.485V0H152.929V450.241Z" fill="#90CBFB"/>
<path d="M152.929 1280H150.485V676.759H152.929V1280Z" fill="#90CBFB"/>
<g filter="url(#filter2_d)">
<path d="M258.587 567.968C258.802 626.056 211.715 673.491 153.627 673.703C95.536 673.919 48.1069 626.834 47.8916 568.743C47.6762 510.655 94.7607 463.223 152.849 463.008C210.94 462.793 258.372 509.877 258.587 567.968ZM304.572 580.56L304.486 557.016L278.119 551.526C276.704 540.907 273.97 530.713 270.079 521.102L290.217 502.848L278.369 482.503L252.683 490.965C246.245 482.704 238.802 475.275 230.538 468.846L238.929 442.726L218.495 431.031L200.284 451.424C190.808 447.611 180.772 444.915 170.325 443.496L164.45 416.303L140.906 416.392L135.232 443.628C124.943 445.101 115.062 447.815 105.733 451.617L86.7376 430.66L66.3929 442.508L75.2486 469.389C67.3318 475.631 60.1932 482.801 53.9792 490.738L26.6164 481.949L14.9207 502.38L36.259 521.438C32.5863 530.587 29.9417 540.252 28.5002 550.311L0.192627 556.425L0.284535 579.968L28.4427 585.835C29.8383 595.876 32.4112 605.533 36.0264 614.671L14.5503 634.137L26.3953 654.484L53.6145 645.519C59.7567 653.436 66.815 660.601 74.6399 666.855L65.8386 694.258L86.2696 705.954L105.107 684.862C114.347 688.684 124.136 691.447 134.33 692.98L140.315 720.681L163.858 720.595L169.544 693.308C179.913 691.966 189.883 689.371 199.302 685.669L218.027 706.327L238.372 694.479L229.8 668.457C238.067 662.125 245.516 654.786 251.985 646.634L278.148 655.039L289.844 634.608L269.697 616.612C273.665 607.047 276.48 596.884 277.993 586.303L304.572 580.56Z" fill="#90CBFB"/>
</g>
<path d="M153.242 480.556H152.915C104.504 480.737 65.2613 520.266 65.4393 568.68C65.6174 616.98 104.977 656.156 153.233 656.156H153.561C201.975 655.978 241.217 616.445 241.036 568.031C240.861 519.732 201.504 480.556 153.242 480.556ZM153.242 489.171C196.743 489.171 232.264 524.562 232.422 568.063C232.582 611.725 197.194 647.378 153.532 647.541H153.233C109.736 647.541 74.2176 612.15 74.0539 568.646C73.9792 547.534 82.1488 527.629 97.0721 512.599C111.99 497.57 131.832 489.251 152.946 489.171H153.242Z" fill="#90CBFB"/>
<defs>
<filter id="filter0_d" x="271.517" y="270.486" width="250.29" height="245.293" filterUnits="userSpaceOnUse" color-interpolation-filters="sRGB">
<feFlood flood-opacity="0" result="BackgroundImageFix"/>
<feColorMatrix in="SourceAlpha" type="matrix" values="0 0 0 0 0 0 0 0 0 0 0 0 0 0 0 0 0 0 127 0"/>
<feOffset dx="30" dy="20"/>
<feGaussianBlur stdDeviation="12.5"/>
<feColorMatrix type="matrix" values="0 0 0 0 0 0 0 0 0 0 0 0 0 0 0 0 0 0 0.55 0"/>
<feBlend mode="normal" in2="BackgroundImageFix" result="effect1_dropShadow"/>
<feBlend mode="normal" in="SourceGraphic" in2="effect1_dropShadow" result="shape"/>
</filter>
<filter id="filter1_d" x="188.671" y="722.341" width="202.562" height="197.559" filterUnits="userSpaceOnUse" color-interpolation-filters="sRGB">
<feFlood flood-opacity="0" result="BackgroundImageFix"/>
<feColorMatrix in="SourceAlpha" type="matrix" values="0 0 0 0 0 0 0 0 0 0 0 0 0 0 0 0 0 0 127 0"/>
<feOffset dx="30" dy="20"/>
<feGaussianBlur stdDeviation="12.5"/>
<feColorMatrix type="matrix" values="0 0 0 0 0 0 0 0 0 0 0 0 0 0 0 0 0 0 0.55 0"/>
<feBlend mode="normal" in2="BackgroundImageFix" result="effect1_dropShadow"/>
<feBlend mode="normal" in="SourceGraphic" in2="effect1_dropShadow" result="shape"/>
</filter>
<filter id="filter2_d" x="0.192627" y="411.303" width="359.379" height="354.379" filterUnits="userSpaceOnUse" color-interpolation-filters="sRGB">
<feFlood flood-opacity="0" result="BackgroundImageFix"/>
<feColorMatrix in="SourceAlpha" type="matrix" values="0 0 0 0 0 0 0 0 0 0 0 0 0 0 0 0 0 0 127 0"/>
<feOffset dx="30" dy="20"/>
<feGaussianBlur stdDeviation="12.5"/>
<feColorMatrix type="matrix" values="0 0 0 0 0 0 0 0 0 0 0 0 0 0 0 0 0 0 0.55 0"/>
<feBlend mode="normal" in2="BackgroundImageFix" result="effect1_dropShadow"/>
<feBlend mode="normal" in="SourceGraphic" in2="effect1_dropShadow" result="shape"/>
</filter>
</defs>
</svg>
