<svg width="605" height="495" viewBox="0 0 605 495" fill="none" xmlns="http://www.w3.org/2000/svg">
<path d="M571.223 450.456H604.445V450.839H571.223V450.456Z" fill="#E7E8E5"/>
<path d="M390.911 442.888H443.181V442.505H390.911V442.888Z" fill="#E7E8E5"/>
<path d="M522.743 436.226H590.975V436.609H522.743V436.226Z" fill="#E7E8E5"/>
<path d="M120.318 323.814H143.621V233.508H120.318V323.814Z" fill="#E2E2E0"/>
<path d="M191.574 319.656H193.349C193.33 315.998 193.356 306.722 193.534 285.464C193.854 246.932 194.466 244.583 194.466 244.583L190.239 262.37C187.561 282.068 191.015 301.861 191.574 319.656Z" fill="#E2E2E0"/>
<path d="M188.065 259.72C181.981 252.469 168.985 250.359 155.677 248.555C150.453 247.846 169.406 259.785 178.67 268.264C185.868 274.852 190.468 276.672 192.445 283.237C193.473 275.051 193.306 265.968 188.065 259.72Z" fill="#E2E2E0"/>
<path d="M196.135 272.679C202.217 265.429 215.215 263.319 228.523 261.513C233.747 260.805 214.794 272.745 205.529 281.224C198.332 287.81 193.73 289.63 191.755 296.195C190.725 288.009 190.892 278.926 196.135 272.679Z" fill="#E2E2E0"/>
<path d="M193.53 242.879C198.09 234.213 209.568 226.054 222.447 222.959C227.504 221.743 210.734 238.962 204.361 250.063C199.41 258.687 192.843 268.818 191.823 276.096C190.282 261.677 188.969 251.545 193.53 242.879Z" fill="#E2E2E0"/>
<path d="M192.992 323.814C187.558 323.814 183.068 321.091 182.755 317.607L181.85 311.651H204.134L203.229 317.607C202.916 321.091 198.426 323.814 192.992 323.814Z" fill="#EDEDEB"/>
<path d="M205.576 313.943H180.408L179.686 307.31H206.297L205.576 313.943Z" fill="#EDEDEB"/>
<path d="M595.232 477.647C595.232 487.231 462.206 495 298.109 495C134.013 495 0.98645 487.231 0.98645 477.647C0.98645 468.064 134.013 460.295 298.109 460.295C462.206 460.295 595.232 468.064 595.232 477.647Z" fill="#F3F2F1"/>
<path d="M314.068 399.888H118.569C112.11 399.888 106.604 394.651 106.271 388.192L88.7738 48.6808C88.4413 42.22 93.4079 36.9852 99.8656 36.9852H295.365C301.824 36.9852 307.33 42.22 307.664 48.6808L325.16 388.192C325.494 394.651 320.527 399.888 314.068 399.888Z" fill="#406FBF"/>
<path d="M314.068 399.888H118.569C114.753 399.888 111.27 398.061 108.99 395.234C107.41 393.275 106.408 390.837 106.271 388.192L91.7835 107.077L88.7737 48.6808C88.763 48.4785 88.7584 48.2777 88.7584 48.0785C88.7523 41.8982 93.6086 36.9852 99.8655 36.9852H108.15C107.322 38.6034 106.899 40.4715 107.002 42.4606L123.736 367.168C124.055 373.347 129.321 378.355 135.499 378.355H322.474C323.22 378.355 323.945 378.282 324.642 378.143L325.16 388.192C325.171 388.395 325.177 388.595 325.177 388.794C325.181 394.975 320.325 399.888 314.068 399.888Z" fill="#90CBFB"/>
<path d="M322.474 378.355H135.499C129.321 378.355 124.055 373.347 123.736 367.168L107.002 42.4604C106.685 36.2816 111.434 31.2737 117.611 31.2737H304.587C310.764 31.2737 316.03 36.2816 316.348 42.4604L333.083 367.168C333.401 373.347 328.651 378.355 322.474 378.355Z" fill="#110066"/>
<path d="M117.611 39.1275C116.574 39.1275 115.929 39.578 115.57 39.9535C115.21 40.3335 114.792 41.0062 114.845 42.0559L131.581 366.765C131.682 368.756 133.513 370.501 135.499 370.501H322.474C323.513 370.501 324.156 370.052 324.513 369.676C324.875 369.297 325.293 368.624 325.24 367.573L308.505 42.8651C308.403 40.8745 306.572 39.1275 304.587 39.1275H117.611ZM322.474 370.885H135.499C133.32 370.885 131.31 368.969 131.198 366.785L114.462 42.0743C114.402 40.8898 114.88 40.1236 115.293 39.6914C115.702 39.2593 116.437 38.7444 117.611 38.7444H304.587C306.765 38.7444 308.775 40.6599 308.889 42.8451L325.623 367.553C325.683 368.739 325.204 369.505 324.792 369.939C324.383 370.37 323.649 370.885 322.474 370.885Z" fill="white"/>
<path d="M218.412 173.17C187.152 173.17 160.504 147.828 158.892 116.568C157.281 85.3075 181.318 59.9656 212.578 59.9656C243.838 59.9656 270.486 85.3075 272.096 116.568C273.708 147.828 249.672 173.17 218.412 173.17Z" fill="#90CBFB"/>
<path d="M261.289 116.568C261.697 124.476 260.073 131.903 256.879 138.382C249.89 152.655 235.264 162.363 217.856 162.363C200.446 162.363 184.819 152.655 176.359 138.382C172.497 131.903 170.108 124.476 169.7 116.568C168.396 91.2716 187.84 70.7737 213.134 70.7737C238.43 70.7737 259.985 91.2716 261.289 116.568Z" fill="white"/>
<path d="M256.879 138.382C249.89 152.655 235.264 162.363 217.856 162.363C200.446 162.363 184.819 152.655 176.359 138.382C187.49 130.68 201.094 126.184 215.991 126.184C230.886 126.184 244.954 130.68 256.879 138.382Z" fill="#110066"/>
<path d="M235.086 100.902C235.667 112.166 227.006 121.3 215.739 121.3C204.473 121.3 194.869 112.166 194.29 100.902C193.709 89.6351 202.37 80.5017 213.637 80.5017C224.903 80.5017 234.507 89.6351 235.086 100.902Z" fill="#110066"/>
<path d="M295.677 252.047H149.278C146.663 252.047 144.435 249.928 144.3 247.314L143.192 225.801C143.057 223.187 145.066 221.068 147.681 221.068H294.081C296.695 221.068 298.923 223.187 299.058 225.801L300.167 247.314C300.301 249.928 298.292 252.047 295.677 252.047Z" fill="white"/>
<path d="M250.843 209.254H189.7C187.086 209.254 184.858 207.135 184.723 204.52L184.488 199.952C184.353 197.338 186.363 195.22 188.977 195.22H250.121C252.735 195.22 254.964 197.338 255.098 199.952L255.333 204.52C255.468 207.135 253.457 209.254 250.843 209.254Z" fill="#2D5BB2"/>
<path d="M273.581 355.157H182.001C177.549 355.157 173.755 351.55 173.525 347.097L172.981 336.535C172.751 332.083 176.175 328.475 180.627 328.475H272.207C276.658 328.475 280.453 332.083 280.683 336.535L281.227 347.097C281.456 351.55 278.033 355.157 273.581 355.157Z" fill="#2D5BB2"/>
<path d="M298.35 303.897H151.95C149.336 303.897 147.108 301.778 146.973 299.164L145.863 277.651C145.728 275.037 147.739 272.918 150.353 272.918H296.753C299.367 272.918 301.596 275.037 301.73 277.651L302.838 299.164C302.973 301.778 300.964 303.897 298.35 303.897Z" fill="white"/>
<path d="M167.895 236.557C168.044 239.451 165.819 241.797 162.926 241.797C160.031 241.797 157.564 239.451 157.415 236.557C157.266 233.663 159.491 231.317 162.385 231.317C165.279 231.317 167.745 233.663 167.895 236.557Z" fill="#17282F"/>
<path d="M183.996 236.557C184.145 239.451 181.92 241.797 179.027 241.797C176.132 241.797 173.665 239.451 173.516 236.557C173.367 233.663 175.593 231.317 178.486 231.317C181.381 231.317 183.848 233.663 183.996 236.557Z" fill="#17282F"/>
<path d="M200.098 236.557C200.246 239.451 198.021 241.797 195.128 241.797C192.233 241.797 189.768 239.451 189.617 236.557C189.469 233.663 191.694 231.317 194.589 231.317C197.482 231.317 199.949 233.663 200.098 236.557Z" fill="#17282F"/>
<path d="M216.199 236.557C216.349 239.451 214.124 241.797 211.229 241.797C208.336 241.797 205.869 239.451 205.72 236.557C205.57 233.663 207.795 231.317 210.69 231.317C213.583 231.317 216.05 233.663 216.199 236.557Z" fill="#17282F"/>
<path d="M170.566 288.408C170.716 291.302 168.491 293.648 165.596 293.648C162.703 293.648 160.236 291.302 160.087 288.408C159.937 285.514 162.162 283.168 165.057 283.168C167.95 283.168 170.418 285.514 170.566 288.408Z" fill="#17282F"/>
<path d="M186.669 288.408C186.818 291.302 184.592 293.648 181.698 293.648C178.804 293.648 176.337 291.302 176.189 288.408C176.038 285.514 178.265 283.168 181.158 283.168C184.053 283.168 186.519 285.514 186.669 288.408Z" fill="#17282F"/>
<path d="M202.77 288.408C202.919 291.302 200.694 293.648 197.801 293.648C194.906 293.648 192.439 291.302 192.29 288.408C192.141 285.514 194.366 283.168 197.26 283.168C200.154 283.168 202.622 285.514 202.77 288.408Z" fill="#17282F"/>
<path d="M218.872 288.408C219.02 291.302 216.795 293.648 213.902 293.648C211.007 293.648 208.541 291.302 208.391 288.408C208.243 285.514 210.468 283.168 213.361 283.168C216.256 283.168 218.723 285.514 218.872 288.408Z" fill="#17282F"/>
<path d="M234.973 288.408C235.123 291.302 232.898 293.648 230.003 293.648C227.11 293.648 224.643 291.302 224.493 288.408C224.344 285.514 226.569 283.168 229.464 283.168C232.357 283.168 234.824 285.514 234.973 288.408Z" fill="#17282F"/>
<path d="M251.076 288.408C251.225 291.302 248.999 293.648 246.105 293.648C243.211 293.648 240.744 291.302 240.596 288.408C240.445 285.514 242.671 283.168 245.565 283.168C248.459 283.168 250.926 285.514 251.076 288.408Z" fill="#17282F"/>
<path d="M425.349 110.455C425.734 111.023 425.928 111.336 426.181 111.745L426.866 112.891C427.311 113.65 427.7 114.407 428.092 115.164C428.858 116.679 429.583 118.197 430.231 119.729C431.545 122.794 432.622 125.923 433.554 129.074C435.442 135.372 436.596 141.827 437.187 148.283L437.307 149.494C437.328 149.667 437.344 149.939 437.356 150.224L437.389 151.049C437.409 152.139 437.356 153.216 437.204 154.235C436.916 156.29 436.363 158.187 435.684 159.942C434.306 163.436 432.414 166.404 430.383 169.106C426.227 174.486 421.509 178.792 416.118 182.609L411.896 177.666C415.684 173.285 419.354 168.43 422.073 163.583C423.46 161.166 424.52 158.673 425.179 156.35C425.489 155.188 425.656 154.071 425.682 153.064C425.717 152.555 425.68 152.085 425.631 151.639L425.584 151.313C425.573 151.213 425.561 151.101 425.521 150.894L425.329 149.815C424.327 144.064 422.959 138.412 421.164 132.954C420.283 130.217 419.193 127.572 418.088 124.973C417.541 123.669 416.936 122.405 416.317 121.171L415.367 119.37L414.895 118.517L414.506 117.847L425.349 110.455Z" fill="#892F38"/>
<path d="M411.044 182.708L416.593 194.423L420.994 184.516C420.994 184.516 417.094 175.934 411.816 176.721L411.044 182.708Z" fill="#872F37"/>
<path d="M420.569 195.004L424.975 187.78L420.994 184.516L416.593 194.423L420.569 195.004Z" fill="#872F37"/>
<path d="M398.155 464.462C395.919 464.909 394.239 464.831 393.589 464.238C393.312 463.987 393.211 463.632 393.277 463.158C393.314 462.9 393.432 462.816 393.53 462.772C394.319 462.409 396.565 463.501 398.155 464.462ZM395.624 465.356C396.811 465.356 398.107 465.112 399.014 464.895L399.244 464.653L399.111 464.347C398.672 464.057 394.772 461.541 393.28 462.217C393.044 462.324 392.747 462.559 392.675 463.071C392.579 463.752 392.748 464.296 393.179 464.688C393.726 465.186 394.638 465.356 395.624 465.356Z" fill="#406FBF"/>
<path d="M396.76 459.702C397.01 459.702 397.23 459.789 397.433 459.968C398.265 460.706 398.551 462.78 398.622 464.01C397.401 463.036 395.945 460.955 396.121 460.072C396.15 459.929 396.233 459.757 396.622 459.71L396.76 459.702ZM398.944 464.904L399.097 464.863L399.249 464.601C399.249 464.443 399.23 460.748 397.836 459.513C397.465 459.184 397.03 459.046 396.549 459.107C395.787 459.199 395.58 459.677 395.525 459.955C395.235 461.401 397.569 464.17 398.795 464.865L398.944 464.904Z" fill="#406FBF"/>
<path d="M374.017 460.074C374.701 459.334 377.732 459.135 380.009 459.172C377.621 460.788 375.651 461.561 374.652 461.249C374.301 461.141 374.065 460.899 373.927 460.512C373.873 460.361 373.887 460.243 373.971 460.128L374.017 460.074ZM381.152 459.103L381.221 458.81L380.944 458.593C380.308 458.562 374.8 458.333 373.559 459.674L373.484 459.765C373.277 460.044 373.231 460.373 373.354 460.715C373.557 461.288 373.933 461.664 374.471 461.831C376.255 462.385 379.394 460.384 381.108 459.142L381.152 459.103Z" fill="#406FBF"/>
<path d="M375.649 456.03L375.94 455.808C376.34 455.573 376.76 455.52 377.223 455.644C378.555 456.004 379.808 457.707 380.363 458.558C378.552 458.352 375.775 457.231 375.54 456.379C375.525 456.329 375.491 456.202 375.649 456.03ZM381.152 459.103L381.192 459.049L381.193 458.747C381.121 458.62 379.41 455.604 377.381 455.057C376.762 454.89 376.172 454.966 375.632 455.283C374.903 455.711 374.861 456.205 374.953 456.541C375.346 457.961 379.252 459.212 380.931 459.201L381.152 459.103Z" fill="#406FBF"/>
<path d="M398.023 65.5619C396.53 73.1797 393.176 89.7944 398.506 94.8775C398.506 94.8775 396.423 102.604 382.269 102.604C366.707 102.604 374.832 94.879 374.832 94.879C383.327 92.8501 383.108 86.5487 381.627 80.6304L398.023 65.5619Z" fill="#872F37"/>
<path d="M372.088 47.5988L372.36 47.5344C372.659 47.3842 372.782 47.0195 372.632 46.7176C371.125 43.711 368.339 43.3616 368.221 43.3493C367.889 43.3079 367.587 43.5501 367.549 43.8841C367.51 44.2167 367.749 44.517 368.08 44.5569C368.172 44.5676 370.342 44.8634 371.544 47.2632C371.651 47.4762 371.865 47.5988 372.088 47.5988Z" fill="#17282F"/>
<path d="M367.447 54.2556C367.447 54.2556 365.157 58.4637 362.973 60.3609C364.173 61.7937 366.551 61.501 366.551 61.501L367.447 54.2556Z" fill="#6B1317"/>
<path d="M368.586 52.6038C368.459 53.632 367.811 54.3967 367.14 54.3139C366.467 54.2312 366.026 53.3301 366.153 52.3034C366.28 51.2751 366.928 50.5104 367.599 50.5932C368.271 50.6759 368.712 51.577 368.586 52.6038Z" fill="#17282F"/>
<path d="M367.889 50.6866L365.509 49.6706C365.509 49.6706 366.537 51.7547 367.889 50.6866Z" fill="#17282F"/>
<path d="M394.678 456.191L382.177 459.11L374.581 430.359L387.081 427.439L394.678 456.191Z" fill="#872F37"/>
<path d="M413.871 464.6H401.035L402.042 434.874H414.878L413.871 464.6Z" fill="#872F37"/>
<path d="M400.018 463.115H414.44C414.964 463.115 415.39 463.479 415.464 463.991L417.106 475.4C417.278 476.584 416.259 477.705 415.05 477.683C410.022 477.596 407.599 477.302 401.256 477.302C397.355 477.302 391.656 477.706 386.268 477.706C380.997 477.706 380.593 472.38 382.836 471.897C392.895 469.733 394.484 466.749 397.873 463.904C398.484 463.39 399.25 463.115 400.018 463.115Z" fill="#17282F"/>
<path d="M381.069 457.195L394.17 451.169C394.647 450.95 395.186 451.102 395.468 451.537L401.728 461.216C402.378 462.22 401.921 463.664 400.813 464.151C396.21 466.172 393.885 466.916 388.123 469.568C384.579 471.198 377.418 474.939 372.523 477.19C367.736 479.392 365.14 474.721 366.977 473.347C375.211 467.177 377.562 462.811 379.45 458.81C379.791 458.088 380.372 457.516 381.069 457.195Z" fill="#17282F"/>
<path d="M390.998 442.267L388.891 434.289L388.897 434.286L391.004 442.266L390.998 442.267Z" fill="#C3C5C2"/>
<path d="M378.653 445.769L376.78 438.677L388.891 434.289L390.998 442.267L378.653 445.769Z" fill="#682329"/>
<path d="M414.368 450.206H414.359L414.46 447.238H414.467L414.368 450.206Z" fill="#C3C5C2"/>
<path d="M414.359 450.206H401.526L401.626 447.238H414.46L414.359 450.206Z" fill="#682329"/>
<path d="M420.643 97.7937C425.974 98.9629 431.671 118.146 431.671 118.146L416.593 134.178C416.593 134.178 404.084 116.161 406.632 109.535C409.286 102.636 414.34 96.413 420.643 97.7937Z" fill="#17282F"/>
<path d="M415.393 132.392C414.987 131.763 414.496 130.992 413.955 130.114C413.957 130.11 413.957 130.107 413.959 130.104C414.498 130.982 414.988 131.751 415.396 132.381C415.396 132.384 415.394 132.389 415.393 132.392Z" fill="#858889"/>
<path d="M415.396 132.381C414.988 131.751 414.498 130.982 413.958 130.104C414.581 126.409 415.327 122.4 416.216 117.997C417.17 123.205 416.245 128.979 415.396 132.381Z" fill="#0C1418"/>
<path d="M353.135 98.1662C353.135 98.1662 347.02 100.321 359.269 175.639C379.955 175.639 401.334 175.639 411.401 175.639C410.526 154.422 410.501 141.338 420.643 97.7938C420.643 97.7938 409.72 95.4185 398.505 94.8776C389.732 94.4546 382.545 94.1742 374.832 94.8791C364.665 95.8062 353.135 98.1662 353.135 98.1662Z" fill="#17282F"/>
<path d="M353.882 138.29C353.381 134.186 352.989 130.51 352.682 127.207C352.998 130.513 353.392 134.191 353.882 138.29Z" fill="#8C8F8F"/>
<path d="M354.034 139.517C353.984 139.104 353.933 138.694 353.882 138.29C353.392 134.191 352.998 130.513 352.683 127.207C352.679 127.163 352.675 127.118 352.67 127.074C354.77 124.009 357.528 120.576 360.516 118.356C361.794 124.737 358.304 135.672 354.034 139.517Z" fill="#0C1418"/>
<path d="M358.235 115.656C355.398 122.82 352.275 129.629 348.759 136.428C345.25 143.218 341.503 149.89 336.523 156.342L335.542 157.55L335.053 158.15C334.885 158.354 334.753 158.532 334.482 158.811C333.535 159.856 332.508 160.752 331.455 161.503C329.345 163.008 327.163 163.966 325.048 164.703C320.812 166.128 316.719 166.634 312.727 166.873C304.717 167.198 297.139 166.456 289.497 164.81L290.348 158.366C293.869 158.385 297.564 158.305 301.125 158.081C304.705 157.894 308.248 157.511 311.647 156.904C315.038 156.336 318.319 155.473 321.055 154.282C322.405 153.677 323.578 152.952 324.441 152.218C324.876 151.852 325.217 151.478 325.489 151.121C325.548 151.069 325.684 150.867 325.802 150.703L326.159 150.197L326.876 149.19C330.652 143.604 333.967 137.115 337.133 130.628C340.242 124.112 343.243 117.354 346.058 110.76L358.235 115.656Z" fill="#892F38"/>
<path d="M353.135 98.1661C346.755 99.7216 338.904 117.237 338.904 117.237L352.146 136.692C352.146 136.692 369.777 114.497 367.681 107.715C365.497 100.652 360.875 96.2797 353.135 98.1661Z" fill="#17282F"/>
<path d="M294.019 159.321L282.974 154.221L281.864 165.201C281.864 165.201 291.096 167.918 295.647 165.135L294.019 159.321Z" fill="#872F37"/>
<path d="M276.358 153.112L275.304 161.473L281.864 165.201L282.974 154.221L276.358 153.112Z" fill="#872F37"/>
<path d="M403.57 53.3516C401.233 65.8746 400.511 71.2259 393.337 76.9143C382.545 85.4699 367.673 79.8627 366.222 66.8937C364.913 55.2196 368.954 36.7001 381.928 33.2077C394.71 29.7658 405.906 40.8285 403.57 53.3516Z" fill="#872F37"/>
<path d="M376.061 55.989C375.346 62.3746 375.07 78.9663 389.098 79.4874C406.29 80.1264 411.436 65.4395 409.904 59.5657C418.842 52.2866 420.136 39.7727 410.085 30.1934C400.033 20.6157 377.903 25.97 371.72 35.301C364.058 46.8679 376.061 55.989 376.061 55.989Z" fill="#17282F"/>
<path d="M393.275 33.9142C392.445 27.1791 393.09 22.5312 399.39 22.5312C405.69 22.5312 414.309 24.8207 417.469 31.2738C420.631 37.7284 420.885 47.8164 412.074 46.7943C403.262 45.7737 394.27 41.9778 393.275 33.9142Z" fill="#90CBFB"/>
<path d="M403.046 32.2973C401.546 24.2612 408.702 1.65318 426.164 0.183575C434.253 -0.496826 437.998 8.20741 433.762 9.64178C441.403 9.5483 446.328 19.6762 439.183 21.2025C444.833 24.8114 443.426 32.236 435.381 35.8756C429.448 38.5604 405.124 43.4136 403.046 32.2973Z" fill="#17282F"/>
<path d="M421.7 40.9236C416.083 40.9251 410.207 40.0992 406.568 37.6611C404.358 36.1807 403.146 34.2192 402.965 31.8286C402.95 31.6171 403.107 31.4332 403.317 31.4179C403.541 31.401 403.713 31.5604 403.73 31.7703C403.89 33.9142 404.989 35.6827 406.994 37.0251C413.928 41.6684 429.956 40.165 434.977 38.5253C439.297 37.117 442.223 34.3847 442.804 31.2171C443.23 28.894 442.318 26.6934 440.238 25.0184C440.073 24.8851 440.047 24.643 440.179 24.479C440.312 24.3151 440.554 24.289 440.718 24.4208C442.994 26.2536 444.028 28.7806 443.558 31.3551C442.925 34.803 439.806 37.756 435.215 39.2548C432.585 40.1129 427.269 40.9236 421.7 40.9236Z" fill="#17282F"/>
<path d="M372.152 54.2971C370.612 56.4287 370.171 59.0783 370.509 61.2161C371.02 64.4296 374.154 64.6426 376.422 62.583C378.464 60.7287 380.659 56.821 378.987 54.1561C377.34 51.531 373.911 51.8605 372.152 54.2971Z" fill="#872F37"/>
<path d="M373.036 175.638C373.036 175.638 380.486 263.74 388.215 313.392C394.458 353.496 399.381 447.238 399.381 447.238H416.886C416.886 447.238 423.11 356.298 419.941 316.632C411.924 216.26 429.806 208.085 411.401 175.638H373.036Z" fill="#110066"/>
<path d="M384.209 284.374C384.006 282.745 383.802 281.104 383.601 279.452V279.45C383.803 281.104 384.006 282.744 384.209 284.374Z" fill="#858889"/>
<path d="M385.57 294.907C385.112 291.474 384.657 287.954 384.209 284.374C384.006 282.744 383.803 281.104 383.601 279.45C388.728 264.5 393.219 252.362 396.774 241.297C395.831 262.705 390.964 281.288 385.57 294.907Z" fill="#000102"/>
<path d="M360.785 175.082C360.785 175.082 344.623 271.302 342.07 314.673C348.418 354.779 374.379 439.546 374.379 439.546L390.301 433.779C390.301 433.779 381.492 341.343 371.861 316.036C393.422 243.441 409.269 225.093 404.658 175.639C393.661 175.639 360.785 175.082 360.785 175.082Z" fill="#110066"/>
<path d="M372.243 443.781L393.758 437.939L392.54 429.364L369.503 435.594L372.243 443.781Z" fill="#17282F"/>
<path d="M396.985 447.585H419.281L420.451 439.763L396.858 438.965L396.985 447.585Z" fill="#17282F"/>
<path d="M412.182 172.58L414.533 177.246C414.716 177.608 414.286 177.977 413.684 177.977H359.011C358.541 177.977 358.152 177.747 358.123 177.451L357.652 172.785C357.62 172.462 358.026 172.187 358.541 172.187H411.333C411.721 172.187 412.064 172.347 412.182 172.58Z" fill="#406FBF"/>
<path d="M383.981 177.977H359.012C358.541 177.977 358.152 177.747 358.123 177.451L357.652 172.785C357.651 172.771 357.651 172.759 357.651 172.747C357.651 172.44 358.048 172.187 358.541 172.187H380.738C381.514 174.357 382.576 176.314 383.981 177.977ZM414.394 177.755C414.451 177.675 414.507 177.594 414.562 177.513C414.538 177.602 414.478 177.684 414.394 177.755Z" fill="#254583"/>
<path d="M405.092 178.483H406.505C406.787 178.483 407.001 178.337 406.983 178.159L406.319 172.097C406.299 171.919 406.054 171.775 405.772 171.775H404.358C404.076 171.775 403.861 171.919 403.881 172.097L404.545 178.159C404.563 178.337 404.81 178.483 405.092 178.483Z" fill="#406FBF"/>
<path d="M386.113 133.824C385.768 133.824 385.463 133.593 385.374 133.259C380.374 114.787 369.982 99.5944 365.026 97.2513C364.47 96.9893 364.01 96.9142 363.734 97.0383C363.345 97.213 362.893 97.0383 362.72 96.6537C362.547 96.269 362.718 95.8139 363.105 95.6407C363.819 95.3174 364.685 95.3955 365.681 95.866C370.971 98.3669 381.453 113.385 386.697 132.289C390.454 132.241 396.251 131.773 397.65 131.655C399.402 129.575 412.251 113.512 407.444 95.9426C407.332 95.535 407.573 95.112 407.981 95.0017C408.385 94.8898 408.81 95.1289 408.923 95.5381C414.274 115.095 398.755 132.727 398.597 132.904C398.467 133.049 398.288 133.138 398.093 133.155C398.017 133.162 390.374 133.824 386.113 133.824Z" fill="#406FBF"/>
<path d="M411.497 144.657C403.144 128.999 399.728 127.905 398.234 122.871C398.234 122.871 399.58 119.07 402.997 115.222C401.972 114.937 399.803 114.504 398.443 114.242C398.597 113.555 398.755 112.878 398.91 112.228C397.782 111.915 395.437 112.239 394.239 112.439L394.185 110.893C394.185 110.893 389.95 110.044 388.247 110.516C388.417 111.229 388.589 111.97 388.761 112.723C387.268 113.011 384.89 113.486 383.766 113.799C387.02 117.463 388.194 121.375 388.446 122.34C383.949 130.072 366.442 179.822 394.907 183.563C423.391 187.307 419.849 160.317 411.497 144.657Z" fill="#406FBF"/>
<path d="M399.966 183.915C398.404 183.915 396.72 183.802 394.907 183.563C382.773 181.969 378.993 172.014 378.997 160.517C379.004 145.043 385.866 126.777 388.446 122.34C388.194 121.375 387.02 117.463 383.766 113.799C384.89 113.486 387.268 113.011 388.761 112.723C388.589 111.97 388.417 111.229 388.247 110.516C388.618 110.413 389.108 110.374 389.649 110.374C391.593 110.374 394.185 110.893 394.185 110.893L394.239 112.439C395.079 112.298 396.479 112.098 397.632 112.098C398.124 112.098 398.571 112.134 398.91 112.228C398.755 112.878 398.597 113.555 398.443 114.242C399.803 114.504 401.972 114.937 402.997 115.222C399.58 119.07 398.234 122.871 398.234 122.871C399.728 127.905 403.144 128.999 411.497 144.657C414.879 151.002 417.474 159.203 417.469 166.468C417.465 175.997 412.99 183.915 399.966 183.915Z" fill="#90CBFB"/>
<path d="M387.385 120.86C387.175 121.24 387.193 122.681 387.162 123.255C387.13 123.83 388.663 124.213 390.387 124.372C392.111 124.532 399.23 124.818 399.007 124.021C398.783 123.223 399.357 122.137 399.39 121.467C399.422 120.796 396.549 120.765 394.153 120.86C391.76 120.957 387.864 119.999 387.385 120.86Z" fill="#110066"/>
<path d="M370.82 178.483H372.235C372.515 178.483 372.73 178.337 372.711 178.159L372.048 172.097C372.028 171.919 371.783 171.775 371.501 171.775H370.086C369.806 171.775 369.591 171.919 369.61 172.097L370.273 178.159C370.293 178.337 370.538 178.483 370.82 178.483Z" fill="#406FBF"/>
</svg>
