<svg width="247" height="67" viewBox="0 0 247 67" fill="none" xmlns="http://www.w3.org/2000/svg">
<rect width="247" height="67" fill="#FFD432"/>
<path d="M67.68 34.52C67.68 36.6 67.2133 38.4667 66.28 40.12C65.3467 41.7733 64.0667 43.0667 62.44 44C60.84 44.9333 59.0667 45.4 57.12 45.4C55.1733 45.4 53.3867 44.9333 51.76 44C50.16 43.0667 48.8933 41.7733 47.96 40.12C47.0267 38.4667 46.56 36.6 46.56 34.52C46.56 32.44 47.0267 30.56 47.96 28.88C48.8933 27.2 50.16 25.8933 51.76 24.96C53.3867 24.0267 55.1733 23.56 57.12 23.56C59.0667 23.56 60.84 24.0267 62.44 24.96C64.0667 25.8933 65.3467 27.2 66.28 28.88C67.2133 30.56 67.68 32.44 67.68 34.52ZM63.88 34.52C63.88 33.08 63.5733 31.8 62.96 30.68C62.3733 29.5333 61.56 28.6533 60.52 28.04C59.5067 27.4 58.3733 27.08 57.12 27.08C55.8667 27.08 54.72 27.4 53.68 28.04C52.6667 28.6533 51.8533 29.5333 51.24 30.68C50.6533 31.8 50.36 33.08 50.36 34.52C50.36 35.9333 50.6533 37.2 51.24 38.32C51.8533 39.44 52.6667 40.32 53.68 40.96C54.72 41.5733 55.8667 41.88 57.12 41.88C58.3733 41.88 59.5067 41.5733 60.52 40.96C61.56 40.32 62.3733 39.44 62.96 38.32C63.5733 37.2 63.88 35.9333 63.88 34.52ZM82.7778 23.56C87.5778 23.56 89.9778 26.44 89.9778 32.2V43.08C89.9778 43.6133 89.7911 44.0667 89.4178 44.44C89.0711 44.8133 88.6178 45 88.0578 45C87.5245 45 87.0711 44.8133 86.6978 44.44C86.3511 44.0667 86.1778 43.6133 86.1778 43.08V32.24C86.1778 30.6667 85.8178 29.4133 85.0978 28.48C84.3778 27.5467 83.2045 27.08 81.5778 27.08C80.5111 27.08 79.5378 27.32 78.6578 27.8C77.8045 28.2533 77.1245 28.88 76.6178 29.68C76.1378 30.4533 75.8978 31.3067 75.8978 32.24V43.08C75.8978 43.6133 75.7111 44.0667 75.3378 44.44C74.9911 44.8133 74.5378 45 73.9778 45C73.4178 45 72.9645 44.8267 72.6178 44.48C72.2711 44.1067 72.0978 43.64 72.0978 43.08V25.96C72.0978 25.4267 72.2711 24.9733 72.6178 24.6C72.9911 24.2267 73.4445 24.04 73.9778 24.04C74.5378 24.04 74.9911 24.2267 75.3378 24.6C75.7111 24.9733 75.8978 25.4267 75.8978 25.96V27.36C76.5911 26.2933 77.5511 25.4 78.7778 24.68C80.0311 23.9333 81.3645 23.56 82.7778 23.56ZM107.333 17C108.746 17 110.053 17.3867 111.253 18.16C112.453 18.9067 113.399 19.9333 114.093 21.24C114.813 22.5467 115.173 23.9867 115.173 25.56C115.173 27.1333 114.813 28.5867 114.093 29.92C113.399 31.2533 112.453 32.3067 111.253 33.08C110.053 33.8533 108.746 34.24 107.333 34.24H99.8125V43.08C99.8125 43.6133 99.6392 44.0667 99.2925 44.44C98.9458 44.8133 98.5058 45 97.9725 45C97.4125 45 96.9592 44.8267 96.6125 44.48C96.2925 44.1067 96.1325 43.64 96.1325 43.08V18.92C96.1325 18.3867 96.3192 17.9333 96.6925 17.56C97.0658 17.1867 97.5192 17 98.0525 17H107.333ZM107.333 30.6C108.053 30.6 108.719 30.3733 109.333 29.92C109.946 29.44 110.426 28.8133 110.773 28.04C111.146 27.2667 111.333 26.44 111.333 25.56C111.333 24.2 110.933 23.0533 110.133 22.12C109.359 21.16 108.426 20.68 107.333 20.68H99.8125V30.6H107.333ZM136.442 23.76C137.002 23.76 137.455 23.9467 137.802 24.32C138.175 24.6667 138.362 25.1333 138.362 25.72V43.08C138.362 43.6133 138.175 44.0667 137.802 44.44C137.455 44.8133 137.002 45 136.442 45C135.882 45 135.428 44.8267 135.082 44.48C134.735 44.1067 134.562 43.64 134.562 43.08V42.04C133.868 42.9733 132.922 43.7733 131.722 44.44C130.522 45.08 129.228 45.4 127.842 45.4C126.028 45.4 124.375 44.9333 122.882 44C121.415 43.0667 120.255 41.7733 119.402 40.12C118.575 38.44 118.162 36.56 118.162 34.48C118.162 32.4 118.575 30.5333 119.402 28.88C120.255 27.2 121.415 25.8933 122.882 24.96C124.348 24.0267 125.962 23.56 127.722 23.56C129.135 23.56 130.442 23.8533 131.642 24.44C132.868 25.0267 133.842 25.7733 134.562 26.68V25.72C134.562 25.16 134.735 24.6933 135.082 24.32C135.428 23.9467 135.882 23.76 136.442 23.76ZM128.282 41.88C129.535 41.88 130.642 41.56 131.602 40.92C132.588 40.28 133.348 39.4 133.882 38.28C134.442 37.16 134.722 35.8933 134.722 34.48C134.722 33.0933 134.442 31.84 133.882 30.72C133.348 29.6 132.588 28.72 131.602 28.08C130.642 27.4133 129.535 27.08 128.282 27.08C127.028 27.08 125.908 27.4 124.922 28.04C123.962 28.68 123.202 29.56 122.642 30.68C122.108 31.8 121.842 33.0667 121.842 34.48C121.842 35.8933 122.108 37.16 122.642 38.28C123.202 39.4 123.962 40.28 124.922 40.92C125.908 41.56 127.028 41.88 128.282 41.88ZM154.452 23.56C155.145 23.56 155.745 23.7467 156.252 24.12C156.759 24.4667 157.012 24.9067 157.012 25.44C157.012 26.08 156.839 26.5733 156.492 26.92C156.172 27.24 155.772 27.4 155.292 27.4C155.052 27.4 154.692 27.32 154.212 27.16C153.652 26.9733 153.212 26.88 152.892 26.88C152.065 26.88 151.252 27.1733 150.452 27.76C149.679 28.32 149.039 29.1067 148.532 30.12C148.052 31.1067 147.812 32.2133 147.812 33.44V43.08C147.812 43.6133 147.625 44.0667 147.252 44.44C146.905 44.8133 146.452 45 145.892 45C145.332 45 144.879 44.8267 144.532 44.48C144.185 44.1067 144.012 43.64 144.012 43.08V25.96C144.012 25.4267 144.185 24.9733 144.532 24.6C144.905 24.2267 145.359 24.04 145.892 24.04C146.452 24.04 146.905 24.2267 147.252 24.6C147.625 24.9733 147.812 25.4267 147.812 25.96V28C148.399 26.6933 149.279 25.64 150.452 24.84C151.625 24.0133 152.959 23.5867 154.452 23.56ZM166.215 27.76V39.68C166.215 41.0133 166.815 41.68 168.015 41.68C168.202 41.68 168.455 41.64 168.775 41.56C169.095 41.4533 169.349 41.4 169.535 41.4C169.882 41.4 170.175 41.5467 170.415 41.84C170.655 42.1333 170.775 42.5067 170.775 42.96C170.775 43.52 170.455 44 169.815 44.4C169.175 44.8 168.455 45 167.655 45C166.775 45 165.962 44.9067 165.215 44.72C164.495 44.5333 163.842 44.0667 163.255 43.32C162.695 42.5467 162.415 41.3867 162.415 39.84V27.76H160.095C159.589 27.76 159.162 27.6 158.815 27.28C158.495 26.9333 158.335 26.5067 158.335 26C158.335 25.4933 158.495 25.08 158.815 24.76C159.162 24.44 159.589 24.28 160.095 24.28H162.415V20.92C162.415 20.3867 162.589 19.9333 162.935 19.56C163.309 19.1867 163.775 19 164.335 19C164.869 19 165.309 19.1867 165.655 19.56C166.029 19.9333 166.215 20.3867 166.215 20.92V24.28H169.535C170.042 24.28 170.455 24.4533 170.775 24.8C171.122 25.12 171.295 25.5333 171.295 26.04C171.295 26.5467 171.122 26.96 170.775 27.28C170.455 27.6 170.042 27.76 169.535 27.76H166.215ZM192.731 23.76C193.291 23.76 193.744 23.9467 194.091 24.32C194.464 24.6667 194.651 25.1333 194.651 25.72V43.08C194.651 43.6133 194.464 44.0667 194.091 44.44C193.744 44.8133 193.291 45 192.731 45C192.171 45 191.717 44.8267 191.371 44.48C191.024 44.1067 190.851 43.64 190.851 43.08V42.04C190.157 42.9733 189.211 43.7733 188.011 44.44C186.811 45.08 185.517 45.4 184.131 45.4C182.317 45.4 180.664 44.9333 179.171 44C177.704 43.0667 176.544 41.7733 175.691 40.12C174.864 38.44 174.451 36.56 174.451 34.48C174.451 32.4 174.864 30.5333 175.691 28.88C176.544 27.2 177.704 25.8933 179.171 24.96C180.637 24.0267 182.251 23.56 184.011 23.56C185.424 23.56 186.731 23.8533 187.931 24.44C189.157 25.0267 190.131 25.7733 190.851 26.68V25.72C190.851 25.16 191.024 24.6933 191.371 24.32C191.717 23.9467 192.171 23.76 192.731 23.76ZM184.571 41.88C185.824 41.88 186.931 41.56 187.891 40.92C188.877 40.28 189.637 39.4 190.171 38.28C190.731 37.16 191.011 35.8933 191.011 34.48C191.011 33.0933 190.731 31.84 190.171 30.72C189.637 29.6 188.877 28.72 187.891 28.08C186.931 27.4133 185.824 27.08 184.571 27.08C183.317 27.08 182.197 27.4 181.211 28.04C180.251 28.68 179.491 29.56 178.931 30.68C178.397 31.8 178.131 33.0667 178.131 34.48C178.131 35.8933 178.397 37.16 178.931 38.28C179.491 39.4 180.251 40.28 181.211 40.92C182.197 41.56 183.317 41.88 184.571 41.88ZM217.821 23.76C218.381 23.76 218.834 23.9467 219.181 24.32C219.554 24.6667 219.741 25.1333 219.741 25.72V43.32C219.741 45.48 219.274 47.28 218.341 48.72C217.434 50.1867 216.194 51.2667 214.621 51.96C213.048 52.6533 211.274 53 209.301 53C208.234 53 206.981 52.8133 205.541 52.44C204.128 52.0667 203.221 51.68 202.821 51.28C201.994 50.8533 201.581 50.32 201.581 49.68C201.581 49.52 201.634 49.3067 201.741 49.04C202.034 48.3733 202.528 48.04 203.221 48.04C203.568 48.04 203.941 48.12 204.341 48.28C206.474 49.1067 208.141 49.52 209.341 49.52C211.474 49.52 213.101 49 214.221 47.96C215.368 46.9467 215.941 45.5467 215.941 43.76V41.6C215.381 42.64 214.434 43.5333 213.101 44.28C211.794 45.0267 210.408 45.4 208.941 45.4C207.101 45.4 205.421 44.9333 203.901 44C202.381 43.0667 201.181 41.7733 200.301 40.12C199.448 38.44 199.021 36.56 199.021 34.48C199.021 32.4 199.448 30.5333 200.301 28.88C201.181 27.2 202.368 25.8933 203.861 24.96C205.381 24.0267 207.048 23.56 208.861 23.56C210.328 23.56 211.688 23.8933 212.941 24.56C214.221 25.2267 215.221 26.04 215.941 27V25.72C215.941 25.16 216.114 24.6933 216.461 24.32C216.808 23.9467 217.261 23.76 217.821 23.76ZM209.381 41.88C210.688 41.88 211.848 41.5733 212.861 40.96C213.874 40.32 214.661 39.44 215.221 38.32C215.808 37.1733 216.101 35.8933 216.101 34.48C216.101 33.0667 215.808 31.8 215.221 30.68C214.661 29.56 213.874 28.68 212.861 28.04C211.848 27.4 210.688 27.08 209.381 27.08C208.101 27.08 206.954 27.4 205.941 28.04C204.928 28.68 204.128 29.5733 203.541 30.72C202.981 31.84 202.701 33.0933 202.701 34.48C202.701 35.8667 202.981 37.1333 203.541 38.28C204.128 39.4 204.928 40.28 205.941 40.92C206.954 41.56 208.101 41.88 209.381 41.88ZM242.998 33.72C242.971 34.2 242.771 34.6133 242.398 34.96C242.024 35.28 241.584 35.44 241.078 35.44H226.998C227.184 37.3867 227.918 38.9467 229.198 40.12C230.504 41.2933 232.091 41.88 233.958 41.88C235.238 41.88 236.278 41.6933 237.078 41.32C237.878 40.9467 238.584 40.4667 239.198 39.88C239.598 39.64 239.984 39.52 240.358 39.52C240.811 39.52 241.184 39.68 241.478 40C241.798 40.32 241.958 40.6933 241.958 41.12C241.958 41.68 241.691 42.1867 241.158 42.64C240.384 43.4133 239.358 44.0667 238.078 44.6C236.798 45.1333 235.491 45.4 234.158 45.4C231.998 45.4 230.091 44.9467 228.438 44.04C226.811 43.1333 225.544 41.8667 224.638 40.24C223.758 38.6133 223.318 36.7733 223.318 34.72C223.318 32.48 223.771 30.52 224.678 28.84C225.611 27.1333 226.824 25.8267 228.318 24.92C229.838 24.0133 231.464 23.56 233.198 23.56C234.904 23.56 236.504 24 237.998 24.88C239.491 25.76 240.691 26.9733 241.598 28.52C242.504 30.0667 242.971 31.8 242.998 33.72ZM233.198 27.08C231.704 27.08 230.411 27.5067 229.318 28.36C228.224 29.1867 227.504 30.48 227.158 32.24H238.958V31.92C238.824 30.5067 238.184 29.3467 237.038 28.44C235.918 27.5333 234.638 27.08 233.198 27.08Z" fill="#110066"/>
<path d="M39.3196 49.3297C42.2602 49.3297 44.6481 51.7083 44.6481 54.6424C44.6481 57.5782 42.2602 59.9569 39.3196 59.9569C36.3747 59.9569 33.9879 57.5782 33.9879 54.6424C33.9879 51.7083 36.3747 49.3297 39.3196 49.3297ZM11.361 41.1535C8.41575 41.1535 6.02972 38.7746 6.02972 35.8392C6.02972 32.9055 8.41575 30.5264 11.361 30.5264C14.3035 30.5264 16.6891 32.9055 16.6891 35.8392C16.6891 38.7746 14.3035 41.1535 11.361 41.1535ZM39.3196 9.02324C42.2602 9.02324 44.6481 11.4021 44.6481 14.3356C44.6481 17.2712 42.2602 19.6504 39.3196 19.6504C36.3747 19.6504 33.9879 17.2712 33.9879 14.3356C33.9879 11.4021 36.3747 9.02324 39.3196 9.02324ZM34.4072 22.3491C35.8853 23.3015 37.6425 23.8596 39.5288 23.8596C44.7503 23.8596 49 19.6286 49 14.4288C49 9.22921 44.7503 5 39.5288 5C34.3067 5 30.0589 9.22921 30.0589 14.4288C30.0589 15.3032 30.1877 16.1457 30.4136 16.9511L24.8011 20.9205L15.9109 27.2073C14.5848 26.5043 13.0773 26.102 11.4699 26.102C6.24869 26.102 2 30.3317 2 35.5308C2 40.7304 6.24869 44.9594 11.4699 44.9594C13.722 44.9594 15.7919 44.1718 17.4175 42.859L24.8011 48.0799L30.4136 52.0494C30.1877 52.8525 30.0589 53.6945 30.0589 54.5693C30.0589 59.769 34.3067 64 39.5288 64C44.7503 64 49 59.769 49 54.5693C49 49.3719 44.7503 45.1403 39.5288 45.1403C37.6401 45.1403 35.8798 45.7008 34.4015 46.6524L26.3667 40.969L20.8095 37.0387C20.8885 36.5464 20.9415 36.0459 20.9415 35.5308C20.9415 34.3911 20.7259 33.3012 20.353 32.2886L26.3667 28.0347L34.4072 22.3491Z" fill="#110066"/>
<path d="M34 54.4991C34 57.5379 36.463 60 39.5017 60C42.536 60 45 57.5379 45 54.4991C45 51.4621 42.536 49 39.5017 49C36.463 49 34 51.4621 34 54.4991Z" fill="#90CBFB"/>
<path d="M6 35.4992C6 38.5376 8.46228 41 11.5017 41C14.5382 41 17 38.5376 17 35.4992C17 32.4625 14.5382 30 11.5017 30C8.46228 30 6 32.4625 6 35.4992" fill="#90CBFB"/>
<path d="M34 14.4987C34 17.5374 36.463 20 39.5017 20C42.536 20 45 17.5374 45 14.4987C45 11.4623 42.536 9 39.5017 9C36.463 9 34 11.4623 34 14.4987Z" fill="#90CBFB"/>
</svg>
