<svg width="64" height="79" viewBox="0 0 64 79" fill="none" xmlns="http://www.w3.org/2000/svg">
<path d="M50.8182 59.3565C54.8224 59.3565 58.074 62.5414 58.074 66.47C58.074 70.4011 54.8224 73.5861 50.8182 73.5861C46.8082 73.5861 43.5579 70.4011 43.5579 66.47C43.5579 62.5414 46.8082 59.3565 50.8182 59.3565ZM12.7469 48.4087C8.73633 48.4087 5.48727 45.2234 5.48727 41.2929C5.48727 37.3647 8.73633 34.1791 12.7469 34.1791C16.7537 34.1791 20.0022 37.3647 20.0022 41.2929C20.0022 45.2234 16.7537 48.4087 12.7469 48.4087ZM50.8182 5.3868C54.8224 5.3868 58.074 8.57203 58.074 12.4999C58.074 16.4307 54.8224 19.6164 50.8182 19.6164C46.8082 19.6164 43.5579 16.4307 43.5579 12.4999C43.5579 8.57203 46.8082 5.3868 50.8182 5.3868ZM44.1289 23.2298C46.1417 24.5051 48.5344 25.2525 51.103 25.2525C58.2132 25.2525 64 19.5872 64 12.6247C64 5.66259 58.2132 -0.000244141 51.103 -0.000244141C43.9921 -0.000244141 38.2079 5.66259 38.2079 12.6247C38.2079 13.7955 38.3833 14.9236 38.6909 16.0021L31.0483 21.317L18.9426 29.7349C17.1367 28.7936 15.084 28.255 12.8951 28.255C5.78546 28.255 0 33.9185 0 40.88C0 47.8422 5.78546 53.5047 12.8951 53.5047C15.9619 53.5047 18.7805 52.4501 20.9941 50.6924L31.0483 57.683L38.6909 62.998C38.3833 64.0734 38.2079 65.2009 38.2079 66.3722C38.2079 73.3345 43.9921 78.9998 51.103 78.9998C58.2132 78.9998 64 73.3345 64 66.3722C64 59.413 58.2132 53.747 51.103 53.747C48.5312 53.747 46.1342 54.4974 44.1213 55.7716L33.1802 48.1616L25.6129 42.8991C25.7206 42.2398 25.7926 41.5696 25.7926 40.88C25.7926 39.354 25.4991 37.8945 24.9914 36.5387L33.1802 30.8428L44.1289 23.2298Z" fill="#110066"/>
</svg>

