<svg width="94" height="94" viewBox="0 0 94 94" fill="none" xmlns="http://www.w3.org/2000/svg">
<path d="M45.9202 94V93.9782H45.2657V93.9564H44.6985V93.9346H44.3059V93.9127H43.9568V93.8909H43.6078V93.8691H43.3024V93.8473H43.0624V93.8255H42.8225V93.8037H42.5607V93.7819H42.3207V93.76H42.1026V93.7382H41.9062V93.7164H41.7317V93.6946H41.5354V93.6728H41.3391V93.651H41.1427V93.6291H40.9682V93.6073H40.8155V93.5855H40.6628V93.5637H40.5101V93.5419H40.3356V93.5201H40.1829V93.4983H40.0302V93.4764H39.8775V93.4546H39.7466V93.4328H39.6157V93.411H39.4848V93.3892H39.3539V93.3674H39.223V93.3456H39.0703V93.3237H38.9394V93.3019H38.8085V93.2801H38.6777V93.2583H38.5686V93.2365H38.4595V93.2147H38.3504V93.1929H38.2195V93.171H38.1105V93.1492H38.0014V93.1274H37.8923V93.1056H37.7832V93.0838H37.6524V93.062H37.5433V93.0401H37.4342V93.0183H37.3469V92.9965H37.2379V92.9747H37.1506V92.9529H37.0415V92.9311H36.9325V92.9093H36.8452V92.8874H36.7361V92.8656H36.6489V92.8438H36.5398V92.822H36.4307V92.8002H36.3435V92.7784H36.2562V92.7566H36.1689V92.7347H36.0817V92.7129H35.9944V92.6911H35.9072V92.6693H35.8199V92.6475H35.7108V92.6257H35.6236V92.6039H35.5363V92.582H35.4491V92.5602H35.3618V92.5384H35.2745V92.5166H35.1873V92.4948H35.1V92.473H35.0346V92.4511H34.9473V92.4293H34.8601V92.4075H34.7946V92.3857H34.7074V92.3639H34.6201V92.3421H34.5547V92.3203H34.4674V92.2984H34.3801V92.2766H34.3147V92.2548H34.2274V92.233H34.1402V92.2112H34.0747V92.1894H33.9875V92.1676H33.922V92.1457H33.8566V92.1239H33.7693V92.1021H33.7039V92.0803H33.6384V92.0585H33.5512V92.0367H33.4857V92.0149H33.3985V91.993H33.333V91.9712H33.2676V91.9494H33.1803V91.9276H33.1149V91.9058H33.0494V91.884H32.9622V91.8621H32.8967V91.8403H32.8313V91.8185H32.7658V91.7967H32.7004V91.7749H32.6349V91.7531H32.5695V91.7313H32.5041V91.7094H32.4386V91.6876H32.3732V91.6658H32.3077V91.644H32.2423V91.6222H32.1768V91.6004H32.0896V91.5786H32.0241V91.5567H31.9587V91.5349H31.8932V91.5131H31.8278V91.4913H31.7842V91.4695H31.7187V91.4477H31.6533V91.4259H31.5878V91.404H31.5224V91.3822H31.457V91.3604H31.4133V91.3386H31.3479V91.3168H31.2824V91.295H31.217V91.2731H31.1515V91.2513H31.0861V91.2295H31.0425V91.2077H30.977V91.1859H30.9116V91.1641H30.8461V91.1423H30.7807V91.1204H30.7371V91.0986H30.6716V91.0768H30.628V91.055H30.5625V91.0332H30.4971V91.0114H30.4535V90.9896H30.388V90.9677H30.3226V90.9459H30.279V90.9241H30.2135V90.9023H30.1481V90.8805H30.1044V90.8587H30.039V90.8369H29.9954V90.815H29.9299V90.7932H29.8645V90.7714H29.8208V90.7496H29.7554V90.7278H29.7118V90.706H29.6463V90.6841H29.6027V90.6623H29.5372V90.6405H29.4936V90.6187H29.4282V90.5969H29.3845V90.5751H29.3409V90.5533H29.2755V90.5314H29.2318V90.5096H29.1664V90.4878H29.1228V90.466H29.0573V90.4442H29.0137V90.4224H28.9482V90.4006H28.9046V90.3787H28.8392V90.3569H28.7955V90.3351H28.7519V90.3133H28.6865V90.2915H28.6428V90.2697H28.5992V90.2479H28.5338V90.226H28.4901V90.2042H28.4465V90.1824H28.3811V90.1606H28.3374V90.1388H28.2938V90.117H28.2502V90.0951H28.1847V90.0733H28.1411V90.0515H28.0975V90.0297H28.032V90.0079H27.9884V89.9861H27.9448V89.9643H27.9011V89.9424H27.8357V89.9206H27.7921V89.8988H27.7484V89.877H27.683V89.8552H27.6394V89.8334H27.5957V89.8116H27.5521V89.7897H27.5085V89.7679H27.4648V89.7461H27.4212V89.7243H27.3558V89.7025H27.3121V89.6807H27.2685V89.6589H27.2249V89.637H27.1812V89.6152H27.1376V89.5934H27.094V89.5716H27.0285V89.5498H26.9849V89.528H26.9413V89.5061H26.8977V89.4843H26.854V89.4625H26.8104V89.4407H26.7668V89.4189H26.7013V89.3971H26.6577V89.3753H26.6141V89.3534H26.5704V89.3316H26.5268V89.3098H26.4832V89.288H26.4395V89.2662H26.3959V89.2444H26.3523V89.2226H26.3087V89.2007H26.265V89.1789H26.2214V89.1571H26.1778V89.1353H26.1341V89.1135H26.0905V89.0917H26.0469V89.0699H26.0033V89.048H25.9596V89.0262H25.916V89.0044H25.8724V88.9826H25.8287V88.9608H25.7851V88.939H25.7415V88.9172H25.6978V88.8953H25.6542V88.8735H25.6106V88.8517H25.567V88.8299H25.5233V88.8081H25.4797V88.7863H25.4361V88.7644H25.3924V88.7426H25.3488V88.7208H25.327V88.699H25.2834V88.6772H25.2397V88.6554H25.1961V88.6336H25.1525V88.6117H25.1088V88.5899H25.0652V88.5681H25.0216V88.5463H24.978V88.5245H24.9561V88.5027H24.9125V88.4809H24.8689V88.459H24.8252V88.4372H24.7816V88.4154H24.738V88.3936H24.6944V88.3718H24.6507V88.35H24.6071V88.3282H24.5853V88.3063H24.5417V88.2845H24.498V88.2627H24.4544V88.2409H24.4108V88.2191H24.389V88.1973H24.3453V88.1754H24.3017V88.1536H24.2581V88.1318H24.2144V88.11H24.1926V88.0882H24.149V88.0664H24.1054V88.0446H24.0617V88.0227H24.0181V88.0009H23.9963V87.9791H23.9527V87.9573H23.909V87.9355H23.8654V87.9137H23.8436V87.8919H23.8V87.87H23.7563V87.8482H23.7127V87.8264H23.6691V87.8046H23.6472V87.7828H23.6036V87.761H23.56V87.7392H23.5164V87.7173H23.4945V87.6955H23.4509V87.6737H23.4073V87.6519H23.3855V87.6301H23.3418V87.6083H23.2982V87.5864H23.2764V87.5646H23.2328V87.5428H23.1891V87.521H23.1673V87.4992H23.1237V87.4774H23.0801V87.4556H23.0364V87.4337H23.0146V87.4119H22.971V87.3901H22.9274V87.3683H22.9055V87.3465H22.8619V87.3247H22.8183V87.3029H22.7965V87.281H22.7528V87.2592H22.7092V87.2374H22.6874V87.2156H22.6438V87.1938H22.6001V87.172H22.5783V87.1502H22.5347V87.1283H22.4911V87.1065H22.4692V87.0847H22.4256V87.0629H22.4038V87.0411H22.3602V87.0193H22.3165V86.9974H22.2947V86.9756H22.2511V86.9538H22.2293V86.932H22.1857V86.9102H22.142V86.8884H22.1202V86.8666H22.0766V86.8447H22.0548V86.8229H22.0111V86.8011H21.9675V86.7793H21.9457V86.7575H21.9021V86.7357H21.8803V86.7139H21.8366V86.692H21.793V86.6702H21.7712V86.6484H21.7275V86.6266H21.7057V86.6048H21.6621V86.583H21.6185V86.5612H21.5967V86.5393H21.553V86.5175H21.5312V86.4957H21.4876V86.4739H21.4658V86.4521H21.4221V86.4303H21.4003V86.4084H21.3567V86.3866H21.3349V86.3648H21.2913V86.343H21.2694V86.3212H21.2258V86.2994H21.204V86.2776H21.1604V86.2557H21.1385V86.2339H21.0949V86.2121H21.0731V86.1903H21.0295V86.1685H21.0077V86.1467H20.964V86.1249H20.9422V86.103H20.8986V86.0812H20.8768V86.0594H20.8331V86.0376H20.7895V86.0158H20.7677V85.994H20.7241V85.9722H20.7023V85.9503H20.6804V85.9285H20.6368V85.9067H20.615V85.8849H20.5714V85.8631H20.5495V85.8413H20.5059V85.8194H20.4841V85.7976H20.4405V85.7758H20.4187V85.754H20.3968V85.7322H20.3532V85.7104H20.3314V85.6886H20.2878V85.6667H20.266V85.6449H20.2223V85.6231H20.2005V85.6013H20.1569V85.5795H20.1351V85.5577H20.1133V85.5359H20.0696V85.514H20.0478V85.4922H20.0042V85.4704H19.9824V85.4486H19.9387V85.4268H19.9169V85.405H19.8733V85.3832H19.8515V85.3613H19.8297V85.3395H19.786V85.3177H19.7642V85.2959H19.7206V85.2741H19.6988V85.2523H19.677V85.2304H19.6333V85.2086H19.6115V85.1868H19.5897V85.165H19.5461V85.1432H19.5243V85.1214H19.4806V85.0996H19.4588V85.0777H19.437V85.0559H19.3934V85.0341H19.3715V85.0123H19.3497V84.9905H19.3061V84.9687H19.2843V84.9469H19.2407V84.925H19.2188V84.9032H19.197V84.8814H19.1534V84.8596H19.1316V84.8378H19.1098V84.816H19.0661V84.7942H19.0443V84.7723H19.0225V84.7505H18.9789V84.7287H18.9571V84.7069H18.9134V84.6851H18.8916V84.6633H18.8698V84.6414H18.8262V84.6196H18.8044V84.5978H18.7825V84.576H18.7389V84.5542H18.7171V84.5324H18.6953V84.5106H18.6735V84.4887H18.6298V84.4669H18.608V84.4451H18.5862V84.4233H18.5426V84.4015H18.5208V84.3797H18.499V84.3579H18.4553V84.336H18.4335V84.3142H18.4117V84.2924H18.3899V84.2706H18.3463V84.2488H18.3244V84.227H18.3026V84.2052H18.259V84.1833H18.2372V84.1615H18.2154V84.1397H18.1717V84.1179H18.1499V84.0961H18.1281V84.0743H18.0845V84.0524H18.0627V84.0306H18.0408V84.0088H18.019V83.987H17.9754V83.9652H17.9536V83.9434H17.9318V83.9216H17.91V83.8997H17.8663V83.8779H17.8445V83.8561H17.8227V83.8343H17.8009V83.8125H17.7573V83.7907H17.7354V83.7689H17.7136V83.747H17.6918V83.7252H17.6482V83.7034H17.6264V83.6816H17.6045V83.6598H17.5827V83.638H17.5391V83.6162H17.5173V83.5943H17.4955V83.5725H17.4737V83.5507H17.43V83.5289H17.4082V83.5071H17.3864V83.4853H17.3646V83.4634H17.321V83.4416H17.2991V83.4198H17.2773V83.398H17.2555V83.3762H17.2337V83.3544H17.1901V83.3326H17.1683V83.3107H17.1464V83.2889H17.1246V83.2671H17.081V83.2453H17.0592V83.2235H17.0374V83.2017H17.0155V83.1799H16.9937V83.158H16.9501V83.1362H16.9283V83.1144H16.9065V83.0926H16.8847V83.0708H16.8628V83.049H16.841V83.0272H16.7974V83.0053H16.7756V82.9835H16.7538V82.9617H16.732V82.9399H16.7101V82.9181H16.6665V82.8963H16.6447V82.8744H16.6229V82.8526H16.6011V82.8308H16.5793V82.809H16.5574V82.7872H16.5138V82.7654H16.492V82.7436H16.4702V82.7217H16.4484V82.6999H16.4265V82.6781H16.3829V82.6563H16.3611V82.6345H16.3393V82.6127H16.3175V82.5909H16.2957V82.569H16.252V82.5472H16.2302V82.5254H16.2084V82.5036H16.1866V82.4818H16.1648V82.46H16.143V82.4382H16.1211V82.4163H16.0993V82.3945H16.0557V82.3727H16.0339V82.3509H16.0121V82.3291H15.9903V82.3073H15.9684V82.2854H15.9466V82.2636H15.9248V82.2418H15.903V82.22H15.8594V82.1982H15.8375V82.1764H15.8157V82.1546H15.7939V82.1327H15.7721V82.1109H15.7503V82.0891H15.7285V82.0673H15.7067V82.0455H15.663V82.0237H15.6412V82.0019H15.6194V81.98H15.5976V81.9582H15.5758V81.9364H15.554V81.9146H15.5321V81.8928H15.5103V81.871H15.4667V81.8492H15.4449V81.8273H15.4231V81.8055H15.4013V81.7837H15.3794V81.7619H15.3576V81.7401H15.3358V81.7183H15.314V81.6964H15.2922V81.6746H15.2704V81.6528H15.2485V81.631H15.2049V81.6092H15.1831V81.5874H15.1613V81.5656H15.1395V81.5437H15.1177V81.5219H15.0958V81.5001H15.074V81.4783H15.0522V81.4565H15.0304V81.4347H15.0086V81.4129H14.9868V81.391H14.965V81.3692H14.9431V81.3474H14.8995V81.3256H14.8777V81.3038H14.8559V81.282H14.8341V81.2602H14.8123V81.2383H14.7904V81.2165H14.7686V81.1947H14.7468V81.1729H14.725V81.1511H14.7032V81.1293H14.6814V81.1074H14.6595V81.0856H14.6377V81.0638H14.5941V81.042H14.5723V81.0202H14.5505V80.9984H14.5287V80.9766H14.5068V80.9547H14.485V80.9329H14.4632V80.9111H14.4414V80.8893H14.4196V80.8675H14.3978V80.8457H14.376V80.8239H14.3541V80.802H14.3323V80.7802H14.3105V80.7584H14.2887V80.7366H14.2669V80.7148H14.2451V80.693H14.2233V80.6712H14.2014V80.6493H14.1796V80.6275H14.1578V80.6057H14.136V80.5839H14.1142V80.5621H14.0924V80.5403H14.0705V80.5184H14.0487V80.4966H14.0269V80.4748H14.0051V80.453H13.9833V80.4312H13.9615V80.4094H13.9397V80.3876H13.9178V80.3657H13.896V80.3439H13.8742V80.3221H13.8524V80.3003H13.8306V80.2785H13.8088V80.2567H13.787V80.2349H13.7651V80.213H13.7433V80.1912H13.7215V80.1694H13.6997V80.1476H13.6779V80.1258H13.6561V80.104H13.6343V80.0822H13.6124V80.0603H13.5906V80.0385H13.5688V80.0167H13.547V79.9949H13.5252V79.9731H13.5034V79.9513H13.4816V79.9295H13.4597V79.9076H13.4379V79.8858H13.4161V79.864H13.3943V79.8422H13.3725V79.8204H13.3507V79.7986H13.3288V79.7767H13.307V79.7549H13.2852V79.7331H13.2634V79.7113H13.2416V79.6895H13.2198V79.6677H13.198V79.6459H13.1761V79.624H13.1543V79.6022H13.1325V79.5804H13.1107V79.5586H13.0889V79.5368H13.0671V79.515H13.0453V79.4932H13.0234V79.4713H13.0016V79.4495H12.9798V79.4277H12.958V79.3841H12.9362V79.3623H12.9144V79.3405H12.8926V79.3186H12.8707V79.2968H12.8489V79.275H12.8271V79.2532H12.8053V79.2314H12.7835V79.2096H12.7617V79.1877H12.7398V79.1659H12.718V79.1441H12.6962V79.1223H12.6744V79.1005H12.6526V79.0569H12.6308V79.035H12.609V79.0132H12.5871V78.9914H12.5653V78.9696H12.5435V78.9478H12.5217V78.926H12.4999V78.9042H12.4781V78.8823H12.4563V78.8605H12.4344V78.8387H12.4126V78.8169H12.3908V78.7951H12.369V78.7515H12.3472V78.7296H12.3254V78.7078H12.3036V78.686H12.2817V78.6642H12.2599V78.6424H12.2381V78.6206H12.2163V78.5987H12.1945V78.5769H12.1727V78.5551H12.1508V78.5333H12.129V78.4897H12.1072V78.4679H12.0854V78.446H12.0636V78.4242H12.0418V78.4024H12.02V78.3806H11.9981V78.3588H11.9763V78.337H11.9545V78.2933H11.9327V78.2715H11.9109V78.2497H11.8891V78.2279H11.8673V78.2061H11.8454V78.1843H11.8236V78.1625H11.8018V78.1406H11.78V78.097H11.7582V78.0752H11.7364V78.0534H11.7146V78.0316H11.6927V78.0097H11.6709V77.9879H11.6491V77.9661H11.6273V77.9443H11.6055V77.9007H11.5837V77.8789H11.5618V77.857H11.54V77.8352H11.5182V77.8134H11.4964V77.7916H11.4746V77.7698H11.4528V77.7262H11.431V77.7043H11.4091V77.6825H11.3873V77.6607H11.3655V77.6389H11.3437V77.6171H11.3219V77.5735H11.3001V77.5516H11.2783V77.5298H11.2564V77.508H11.2346V77.4862H11.2128V77.4426H11.191V77.4207H11.1692V77.3989H11.1474V77.3771H11.1256V77.3553H11.1037V77.3335H11.0819V77.2899H11.0601V77.268H11.0383V77.2462H11.0165V77.2244H10.9947V77.2026H10.9728V77.159H10.951V77.1372H10.9292V77.1153H10.9074V77.0935H10.8856V77.0717H10.8638V77.0281H10.842V77.0063H10.8201V76.9845H10.7983V76.9626H10.7765V76.9408H10.7547V76.919H10.7329V76.8754H10.7111V76.8536H10.6893V76.8317H10.6674V76.8099H10.6456V76.7663H10.6238V76.7445H10.602V76.7227H10.5802V76.7009H10.5584V76.6572H10.5366V76.6354H10.5147V76.6136H10.4929V76.5918H10.4711V76.5482H10.4493V76.5263H10.4275V76.5045H10.4057V76.4827H10.3838V76.4391H10.362V76.4173H10.3402V76.3955H10.3184V76.3736H10.2966V76.3518H10.2748V76.3082H10.253V76.2864H10.2311V76.2646H10.2093V76.2427H10.1875V76.1991H10.1657V76.1773H10.1439V76.1555H10.1221V76.1337H10.1003V76.09H10.0784V76.0682H10.0566V76.0464H10.0348V76.0246H10.013V75.981H9.99118V75.9592H9.96937V75.9373H9.94755V75.8937H9.92574V75.8719H9.90392V75.8501H9.88211V75.8065H9.86029V75.7846H9.83848V75.7628H9.81666V75.741H9.79485V75.6974H9.77303V75.6756H9.75122V75.6537H9.7294V75.6101H9.70759V75.5883H9.68577V75.5665H9.66396V75.5229H9.64214V75.501H9.62033V75.4792H9.59851V75.4574H9.5767V75.4138H9.55488V75.392H9.53307V75.3702H9.51126V75.3265H9.48944V75.3047H9.46763V75.2829H9.44581V75.2393H9.424V75.2175H9.40218V75.1956H9.38037V75.152H9.35855V75.1302H9.33674V75.1084H9.31492V75.0647H9.29311V75.0429H9.27129V75.0211H9.24948V74.9775H9.22766V74.9557H9.20585V74.9339H9.18403V74.8902H9.16222V74.8684H9.1404V74.8248H9.11859V74.803H9.09677V74.7812H9.07496V74.7375H9.05314V74.7157H9.03133V74.6939H9.00951V74.6503H8.9877V74.6285H8.96589V74.6066H8.94407V74.563H8.92226V74.5412H8.90044V74.4976H8.87863V74.4757H8.85681V74.4539H8.835V74.4103H8.81318V74.3885H8.79137V74.3667H8.76955V74.323H8.74774V74.3012H8.72592V74.2576H8.70411V74.2358H8.68229V74.214H8.66048V74.1703H8.63866V74.1485H8.61685V74.1049H8.59503V74.0831H8.57322V74.0395H8.5514V74.0176H8.52959V73.9958H8.50777V73.9522H8.48596V73.9304H8.46414V73.8867H8.44233V73.8649H8.42052V73.8213H8.3987V73.7995H8.37689V73.7559H8.35507V73.734H8.33326V73.7122H8.31144V73.6686H8.28963V73.6468H8.26781V73.6032H8.246V73.5813H8.22418V73.5377H8.20237V73.5159H8.18055V73.4723H8.15874V73.4505H8.13692V73.4286H8.11511V73.385H8.09329V73.3632H8.07148V73.3196H8.04966V73.2977H8.02785V73.2541H8.00603V73.2323H7.98422V73.1887H7.9624V73.1669H7.94059V73.1232H7.91877V73.1014H7.89696V73.0578H7.87514V73.036H7.85333V72.9923H7.83152V72.9705H7.8097V72.9269H7.78789V72.9051H7.76607V72.8615H7.74426V72.8396H7.72244V72.796H7.70063V72.7742H7.67881V72.7306H7.657V72.7087H7.63518V72.6651H7.61337V72.6215H7.59155V72.5997H7.56974V72.556H7.54792V72.5342H7.52611V72.4906H7.50429V72.4688H7.48248V72.4252H7.46066V72.4033H7.43885V72.3597H7.41703V72.3379H7.39522V72.2943H7.3734V72.2725H7.35159V72.2288H7.32977V72.1852H7.30796V72.1634H7.28615V72.1197H7.26433V72.0979H7.24252V72.0543H7.2207V72.0107H7.19889V71.9889H7.17707V71.9452H7.15526V71.9234H7.13344V71.8798H7.11163V71.8362H7.08981V71.8143H7.068V71.7707H7.04618V71.7489H7.02437V71.7053H7.00255V71.6616H6.98074V71.6398H6.95892V71.5962H6.93711V71.5744H6.91529V71.5308H6.89348V71.4871H6.87166V71.4653H6.84985V71.4217H6.82803V71.3999H6.80622V71.3562H6.7844V71.3126H6.76259V71.269H6.74078V71.2472H6.71896V71.2035H6.69715V71.1599H6.67533V71.1381H6.65352V71.0945H6.6317V71.0508H6.60989V71.029H6.58807V70.9854H6.56626V70.9417H6.54444V70.9199H6.52263V70.8763H6.50081V70.8327H6.479V70.8109H6.45718V70.7672H6.43537V70.7236H6.41355V70.68H6.39174V70.6582H6.36992V70.6145H6.34811V70.5709H6.32629V70.5491H6.30448V70.5055H6.28266V70.4618H6.26085V70.44H6.23903V70.3964H6.21722V70.3528H6.19541V70.3091H6.17359V70.2873H6.15178V70.2437H6.12996V70.2H6.10815V70.1564H6.08633V70.1128H6.06452V70.091H6.0427V70.0473H6.02089V70.0037H5.99907V69.9601H5.97726V69.9165H5.95544V69.8946H5.93363V69.851H5.91181V69.8074H5.89V69.7638H5.86818V69.7201H5.84637V69.6983H5.82455V69.6547H5.80274V69.611H5.78092V69.5674H5.75911V69.5456H5.73729V69.502H5.71548V69.4583H5.69366V69.4147H5.67185V69.3711H5.65003V69.3275H5.62822V69.2838H5.60641V69.262H5.58459V69.2184H5.56278V69.1748H5.54096V69.1311H5.51915V69.0875H5.49733V69.0439H5.47552V69.0002H5.4537V68.9566H5.43189V68.913H5.41007V68.8912H5.38826V68.8475H5.36644V68.8039H5.34463V68.7603H5.32281V68.7166H5.301V68.673H5.27918V68.6294H5.25737V68.5858H5.23555V68.5421H5.21374V68.4985H5.19192V68.4767H5.17011V68.433H5.14829V68.3894H5.12648V68.3458H5.10466V68.3022H5.08285V68.2585H5.06104V68.2149H5.03922V68.1713H5.01741V68.1276H4.99559V68.084H4.97378V68.0404H4.95196V67.9967H4.93015V67.9531H4.90833V67.9095H4.88652V67.8659H4.8647V67.8222H4.84289V67.7786H4.82107V67.735H4.79926V67.6913H4.77744V67.6477H4.75563V67.6041H4.73381V67.5605H4.712V67.495H4.69018V67.4514H4.66837V67.4078H4.64655V67.3641H4.62474V67.3205H4.60292V67.2769H4.58111V67.2332H4.55929V67.1896H4.53748V67.146H4.51567V67.1023H4.49385V67.0369H4.47204V66.9933H4.45022V66.9496H4.42841V66.906H4.40659V66.8624H4.38478V66.8188H4.36296V66.7751H4.34115V66.7097H4.31933V66.666H4.29752V66.6224H4.2757V66.5788H4.25389V66.5352H4.23207V66.4915H4.21026V66.4479H4.18844V66.3825H4.16663V66.3388H4.14481V66.2952H4.123V66.2516H4.10118V66.1861H4.07937V66.1425H4.05755V66.0989H4.03574V66.0552H4.01392V65.9898H3.99211V65.9462H3.97029V65.9025H3.94848V65.8371H3.92667V65.7935H3.90485V65.7498H3.88304V65.7062H3.86122V65.6408H3.83941V65.5971H3.81759V65.5535H3.79578V65.488H3.77396V65.4444H3.75215V65.4008H3.73033V65.3572H3.70852V65.2917H3.6867V65.2481H3.66489V65.1826H3.64307V65.139H3.62126V65.0736H3.59944V65.0299H3.57763V64.9863H3.55581V64.9209H3.534V64.8772H3.51218V64.8118H3.49037V64.7682H3.46855V64.7027H3.44674V64.6591H3.42492V64.5936H3.40311V64.55H3.38129V64.5064H3.35948V64.4409H3.33767V64.3973H3.31585V64.3319H3.29404V64.2882H3.27222V64.2228H3.25041V64.1792H3.22859V64.1137H3.20678V64.0483H3.18496V64.0046H3.16315V63.9392H3.14133V63.8738H3.11952V63.8301H3.0977V63.7647H3.07589V63.721H3.05407V63.6556H3.03226V63.5902H3.01044V63.5465H2.98863V63.4811H2.96681V63.4156H2.945V63.372H2.92318V63.3066H2.90137V63.2629H2.87955V63.1975H2.85774V63.132H2.83592V63.0666H2.81411V63.023H2.7923V62.9575H2.77048V62.8921H2.74867V62.8266H2.72685V62.7612H2.70504V62.6958H2.68322V62.6303H2.66141V62.5867H2.63959V62.5212H2.61778V62.4558H2.59596V62.3903H2.57415V62.3249H2.55233V62.2595H2.53052V62.2158H2.5087V62.1504H2.48689V62.0849H2.46507V62.0195H2.44326V61.954H2.42144V61.8886H2.39963V61.8232H2.37781V61.7577H2.356V61.6705H2.33418V61.605H2.31237V61.5396H2.29055V61.4741H2.26874V61.4087H2.24693V61.3432H2.22511V61.2778H2.2033V61.2123H2.18148V61.1469H2.15967V61.0815H2.13785V61.016H2.11604V60.9288H2.09422V60.8633H2.07241V60.7979H2.05059V60.7106H2.02878V60.6452H2.00696V60.5797H1.98515V60.4925H1.96333V60.427H1.94152V60.3398H1.9197V60.2743H1.89789V60.2089H1.87607V60.1216H1.85426V60.0562H1.83244V59.9907H1.81063V59.9035H1.78881V59.838H1.767V59.7508H1.74518V59.6635H1.72337V59.598H1.70155V59.5108H1.67974V59.4235H1.65793V59.3581H1.63611V59.2708H1.6143V59.1836H1.59248V59.1181H1.57067V59.0309H1.54885V58.9436H1.52704V58.8563H1.50522V58.7909H1.48341V58.7036H1.46159V58.6164H1.43978V58.5291H1.41796V58.4201H1.39615V58.3328H1.37433V58.2455H1.35252V58.1583H1.3307V58.071H1.30889V57.9838H1.28707V57.8965H1.26526V57.8092H1.24344V57.722H1.22163V57.6347H1.19981V57.5256H1.178V57.4166H1.15618V57.3293H1.13437V57.2202H1.11256V57.133H1.09074V57.0239H1.06893V56.9148H1.04711V56.8276H1.0253V56.7185H1.00348V56.6312H0.981666V56.5222H0.959852V56.4131H0.938037V56.304H0.916222V56.1949H0.894407V56.0641H0.872592V55.955H0.850777V55.8459H0.828963V55.7368H0.807148V55.6278H0.785333V55.4969H0.763518V55.3878H0.741703V55.2787H0.719889V55.1478H0.698074V55.0169H0.676259V54.8642H0.654444V54.7333H0.632629V54.6025H0.610815V54.4716H0.589V54.3407H0.567185V54.2098H0.54537V54.0789H0.523555V53.9044H0.501741V53.7517H0.479926V53.599H0.458111V53.4463H0.436296V53.2936H0.414481V53.1409H0.392667V52.9664H0.370852V52.7918H0.349037V52.5955H0.327222V52.3992H0.305407V52.2028H0.283592V52.0283H0.261778V51.832H0.239963V51.592H0.218148V51.3521H0.196333V51.0903H0.174518V50.8503H0.152704V50.5885H0.130889V50.2613H0.109074V49.9123H0.0872592V49.5632H0.0654444V49.0833H0.0436296V48.4943H0.0218148V47.5563H0V46.4437H0.0218148V45.5057H0.0436296V44.9167H0.0654444V44.4368H0.0872592V44.0877H0.109074V43.7387H0.130889V43.4115H0.152704V43.1497H0.174518V42.9097H0.196333V42.6698H0.218148V42.408H0.239963V42.168H0.261778V41.9717H0.283592V41.7972H0.305407V41.6008H0.327222V41.4045H0.349037V41.2082H0.370852V41.0336H0.392667V40.8591H0.414481V40.7064H0.436296V40.5537H0.458111V40.401H0.479926V40.2483H0.501741V40.0956H0.523555V39.9211H0.54537V39.7902H0.567185V39.6593H0.589V39.5284H0.610815V39.3975H0.632629V39.2667H0.654444V39.1358H0.676259V39.0049H0.698074V38.8522H0.719889V38.7213H0.741703V38.6122H0.763518V38.5031H0.785333V38.3722H0.807148V38.2632H0.828963V38.1541H0.850777V38.045H0.872592V37.9359H0.894407V37.8051H0.916222V37.696H0.938037V37.5869H0.959852V37.4778H0.981666V37.3688H1.00348V37.2815H1.0253V37.1724H1.04711V37.0852H1.06893V36.9761H1.09074V36.867H1.11256V36.7798H1.13437V36.6707H1.15618V36.5834H1.178V36.4744H1.19981V36.3653H1.22163V36.278H1.24344V36.1908H1.26526V36.1035H1.28707V36.0162H1.30889V35.929H1.3307V35.8417H1.35252V35.7545H1.37433V35.6672H1.39615V35.5799H1.41796V35.4709H1.43978V35.3836H1.46159V35.2964H1.48341V35.2091H1.50522V35.1437H1.52704V35.0564H1.54885V34.9691H1.57067V34.9037H1.59248V34.8164H1.6143V34.7292H1.63611V34.6419H1.65793V34.5765H1.67974V34.4892H1.70155V34.402H1.72337V34.3365H1.74518V34.2492H1.767V34.162H1.78881V34.0965H1.81063V34.0093H1.83244V33.9438H1.85426V33.8784H1.87607V33.7911H1.89789V33.7257H1.9197V33.6602H1.94152V33.573H1.96333V33.5075H1.98515V33.4203H2.00696V33.3548H2.02878V33.2894H2.05059V33.2021H2.07241V33.1367H2.09422V33.0712H2.11604V32.984H2.13785V32.9185H2.15967V32.8531H2.18148V32.7877H2.2033V32.7222H2.22511V32.6568H2.24693V32.5913H2.26874V32.5259H2.29055V32.4604H2.31237V32.395H2.33418V32.3295H2.356V32.2641H2.37781V32.1768H2.39963V32.1114H2.42144V32.0459H2.44326V31.9805H2.46507V31.9151H2.48689V31.8496H2.5087V31.7842H2.53052V31.7405H2.55233V31.6751H2.57415V31.6097H2.59596V31.5442H2.61778V31.4788H2.63959V31.4133H2.66141V31.3697H2.68322V31.3042H2.70504V31.2388H2.72685V31.1734H2.74867V31.1079H2.77048V31.0425H2.7923V30.9988H2.81411V30.9334H2.83592V30.868H2.85774V30.8025H2.87955V30.7371H2.90137V30.6934H2.92318V30.628H2.945V30.5844H2.96681V30.5189H2.98863V30.4535H3.01044V30.4098H3.03226V30.3444H3.05407V30.2789H3.07589V30.2353H3.0977V30.1699H3.11952V30.1262H3.14133V30.0608H3.16315V29.9954H3.18496V29.9517H3.20678V29.8863H3.22859V29.8208H3.25041V29.7772H3.27222V29.7118H3.29404V29.6681H3.31585V29.6027H3.33767V29.5591H3.35948V29.5154H3.38129V29.45H3.40311V29.4064H3.42492V29.3409H3.44674V29.2973H3.46855V29.2318H3.49037V29.1882H3.51218V29.1228H3.534V29.0791H3.55581V29.0137H3.57763V28.9701H3.59944V28.9264H3.62126V28.861H3.64307V28.8174H3.66489V28.7519H3.6867V28.7083H3.70852V28.6428H3.73033V28.5992H3.75215V28.5556H3.77396V28.5119H3.79578V28.4465H3.81759V28.4029H3.83941V28.3592H3.86122V28.2938H3.88304V28.2502H3.90485V28.2065H3.92667V28.1629H3.94848V28.0975H3.97029V28.0538H3.99211V28.0102H4.01392V27.9448H4.03574V27.9011H4.05755V27.8575H4.07937V27.8139H4.10118V27.7484H4.123V27.7048H4.14481V27.6612H4.16663V27.6175H4.18844V27.5521H4.21026V27.5085H4.23207V27.4648H4.25389V27.4212H4.2757V27.3776H4.29752V27.334H4.31933V27.2903H4.34115V27.2249H4.36296V27.1813H4.38478V27.1376H4.40659V27.094H4.42841V27.0504H4.45022V27.0067H4.47204V26.9631H4.49385V26.8977H4.51567V26.854H4.53748V26.8104H4.55929V26.7668H4.58111V26.7231H4.60292V26.6795H4.62474V26.6359H4.64655V26.5922H4.66837V26.5486H4.69018V26.505H4.712V26.4614H4.73381V26.4177H4.75563V26.3741H4.77744V26.3305H4.79926V26.2868H4.82107V26.2214H4.84289V26.1778H4.8647V26.1341H4.88652V26.0905H4.90833V26.0469H4.93015V26.0033H4.95196V25.9596H4.97378V25.916H4.99559V25.8724H5.01741V25.8287H5.03922V25.7851H5.06104V25.7415H5.08285V25.6978H5.10466V25.6542H5.12648V25.6106H5.14829V25.567H5.17011V25.5233H5.19192V25.5015H5.21374V25.4579H5.23555V25.4142H5.25737V25.3706H5.27918V25.327H5.301V25.2834H5.32281V25.2397H5.34463V25.1961H5.36644V25.1525H5.38826V25.1307H5.41007V25.087H5.43189V25.0434H5.4537V24.9998H5.47552V24.9561H5.49733V24.9125H5.51915V24.8689H5.54096V24.8252H5.56278V24.7816H5.58459V24.738H5.60641V24.7162H5.62822V24.6725H5.65003V24.6289H5.67185V24.5853H5.69366V24.5417H5.71548V24.498H5.73729V24.4762H5.75911V24.4326H5.78092V24.389H5.80274V24.3453H5.82455V24.3017H5.84637V24.2799H5.86818V24.2363H5.89V24.1926H5.91181V24.149H5.93363V24.1054H5.95544V24.0835H5.97726V24.0399H5.99907V23.9963H6.02089V23.9527H6.0427V23.9308H6.06452V23.8872H6.08633V23.8436H6.10815V23.7999H6.12996V23.7563H6.15178V23.7345H6.17359V23.6909H6.19541V23.6472H6.21722V23.6036H6.23903V23.56H6.26085V23.5382H6.28266V23.4945H6.30448V23.4509H6.32629V23.4291H6.34811V23.3855H6.36992V23.3418H6.39174V23.32H6.41355V23.2764H6.43537V23.2328H6.45718V23.211H6.479V23.1673H6.50081V23.1237H6.52263V23.0801H6.54444V23.0583H6.56626V23.0146H6.58807V22.971H6.60989V22.9492H6.6317V22.9055H6.65352V22.8619H6.67533V22.8401H6.69715V22.7965H6.71896V22.7528H6.74078V22.731H6.76259V22.6874H6.7844V22.6438H6.80622V22.622H6.82803V22.5783H6.84985V22.5347H6.87166V22.5129H6.89348V22.4693H6.91529V22.4474H6.93711V22.4038H6.95892V22.3602H6.98074V22.3384H7.00255V22.2947H7.02437V22.2729H7.04618V22.2293H7.068V22.1857H7.08981V22.1638H7.11163V22.1202H7.13344V22.0984H7.15526V22.0548H7.17707V22.0111H7.19889V21.9893H7.2207V21.9457H7.24252V21.9021H7.26433V21.8802H7.28615V21.8366H7.30796V21.8148H7.32977V21.7712H7.35159V21.7275H7.3734V21.7057H7.39522V21.6621H7.41703V21.6403H7.43885V21.5967H7.46066V21.5748H7.48248V21.5312H7.50429V21.5094H7.52611V21.4658H7.54792V21.444H7.56974V21.4003H7.59155V21.3785H7.61337V21.3349H7.63518V21.3131H7.657V21.2694H7.67881V21.2476H7.70063V21.204H7.72244V21.1604H7.74426V21.1385H7.76607V21.0949H7.78789V21.0731H7.8097V21.0295H7.83152V21.0077H7.85333V20.964H7.87514V20.9422H7.89696V20.8986H7.91877V20.8768H7.94059V20.8331H7.9624V20.8113H7.98422V20.7677H8.00603V20.7459H8.02785V20.7022H8.04966V20.6804H8.07148V20.6368H8.09329V20.615H8.11511V20.5714H8.13692V20.5495H8.15874V20.5277H8.18055V20.4841H8.20237V20.4623H8.22418V20.4187H8.246V20.3968H8.26781V20.3532H8.28963V20.3314H8.31144V20.2878H8.33326V20.266H8.35507V20.2441H8.37689V20.2005H8.3987V20.1787H8.42052V20.1351H8.44233V20.1133H8.46414V20.0696H8.48596V20.0478H8.50777V20.026H8.52959V19.9824H8.5514V19.9605H8.57322V19.9169H8.59503V19.8951H8.61685V19.8515H8.63866V19.8297H8.66048V19.786H8.68229V19.7642H8.70411V19.7424H8.72592V19.6988H8.74774V19.677H8.76955V19.6551H8.79137V19.6115H8.81318V19.5897H8.835V19.5461H8.85681V19.5243H8.87863V19.5024H8.90044V19.4588H8.92226V19.437H8.94407V19.4152H8.96589V19.3715H8.9877V19.3497H9.00951V19.3061H9.03133V19.2843H9.05314V19.2625H9.07496V19.2188H9.09677V19.197H9.11859V19.1752H9.1404V19.1316H9.16222V19.1098H9.18403V19.0661H9.20585V19.0443H9.22766V19.0225H9.24948V18.9789H9.27129V18.9571H9.29311V18.9352H9.31492V18.8916H9.33674V18.8698H9.35855V18.848H9.38037V18.8044H9.40218V18.7825H9.424V18.7607H9.44581V18.7171H9.46763V18.6953H9.48944V18.6735H9.51126V18.6298H9.53307V18.608H9.55488V18.5862H9.5767V18.5644H9.59851V18.5208H9.62033V18.499H9.64214V18.4771H9.66396V18.4335H9.68577V18.4117H9.70759V18.3899H9.7294V18.3463H9.75122V18.3244H9.77303V18.3026H9.79485V18.2808H9.81666V18.2372H9.83848V18.2154H9.86029V18.1936H9.88211V18.1499H9.90392V18.1281H9.92574V18.1063H9.94755V18.0627H9.96937V18.0408H9.99118V18.019H10.013V17.9754H10.0348V17.9536H10.0566V17.9318H10.0784V17.91H10.1003V17.8663H10.1221V17.8445H10.1439V17.8227H10.1657V17.8009H10.1875V17.7791H10.2093V17.7354H10.2311V17.7136H10.253V17.6918H10.2748V17.67H10.2966V17.6264H10.3184V17.6045H10.3402V17.5827H10.362V17.5609H10.3838V17.5173H10.4057V17.4955H10.4275V17.4737H10.4493V17.4518H10.4711V17.4082H10.4929V17.3864H10.5147V17.3646H10.5366V17.3428H10.5584V17.2991H10.5802V17.2773H10.602V17.2555H10.6238V17.2337H10.6456V17.1901H10.6674V17.1683H10.6893V17.1464H10.7111V17.1246H10.7329V17.081H10.7547V17.0592H10.7765V17.0374H10.7983V17.0155H10.8201V16.9937H10.842V16.9719H10.8638V16.9283H10.8856V16.9065H10.9074V16.8847H10.9292V16.8628H10.951V16.841H10.9728V16.7974H10.9947V16.7756H11.0165V16.7538H11.0383V16.732H11.0601V16.7101H11.0819V16.6883H11.1037V16.6447H11.1256V16.6229H11.1474V16.6011H11.1692V16.5793H11.191V16.5574H11.2128V16.5138H11.2346V16.492H11.2564V16.4702H11.2783V16.4484H11.3001V16.4266H11.3219V16.4047H11.3437V16.3611H11.3655V16.3393H11.3873V16.3175H11.4091V16.2957H11.431V16.2738H11.4528V16.2302H11.4746V16.2084H11.4964V16.1866H11.5182V16.1648H11.54V16.143H11.5618V16.1211H11.5837V16.0993H11.6055V16.0775H11.6273V16.0339H11.6491V16.0121H11.6709V15.9902H11.6927V15.9684H11.7146V15.9466H11.7364V15.9248H11.7582V15.903H11.78V15.8812H11.8018V15.8375H11.8236V15.8157H11.8454V15.7939H11.8673V15.7721H11.8891V15.7503H11.9109V15.7285H11.9327V15.7067H11.9545V15.6848H11.9763V15.6412H11.9981V15.6194H12.02V15.5976H12.0418V15.5758H12.0636V15.554H12.0854V15.5321H12.1072V15.5103H12.129V15.4885H12.1508V15.4449H12.1727V15.4231H12.1945V15.4013H12.2163V15.3794H12.2381V15.3576H12.2599V15.3358H12.2817V15.314H12.3036V15.2922H12.3254V15.2704H12.3472V15.2486H12.369V15.2267H12.3908V15.1831H12.4126V15.1613H12.4344V15.1395H12.4563V15.1177H12.4781V15.0958H12.4999V15.074H12.5217V15.0522H12.5435V15.0304H12.5653V15.0086H12.5871V14.9868H12.609V14.965H12.6308V14.9431H12.6526V14.9213H12.6744V14.8777H12.6962V14.8559H12.718V14.8341H12.7398V14.8123H12.7617V14.7904H12.7835V14.7686H12.8053V14.7468H12.8271V14.725H12.8489V14.7032H12.8707V14.6814H12.8926V14.6595H12.9144V14.6377H12.9362V14.6159H12.958V14.5941H12.9798V14.5505H13.0016V14.5287H13.0234V14.5068H13.0453V14.485H13.0671V14.4632H13.0889V14.4414H13.1107V14.4196H13.1325V14.3978H13.1543V14.376H13.1761V14.3541H13.198V14.3323H13.2198V14.3105H13.2416V14.2887H13.2634V14.2669H13.2852V14.2451H13.307V14.2233H13.3288V14.2014H13.3507V14.1796H13.3725V14.1578H13.3943V14.136H13.4161V14.1142H13.4379V14.0924H13.4597V14.0705H13.4816V14.0487H13.5034V14.0269H13.5252V14.0051H13.547V13.9833H13.5688V13.9615H13.5906V13.9397H13.6124V13.9178H13.6343V13.896H13.6561V13.8742H13.6779V13.8524H13.6997V13.8306H13.7215V13.8088H13.7433V13.787H13.7651V13.7651H13.787V13.7433H13.8088V13.7215H13.8306V13.6997H13.8524V13.6779H13.8742V13.6561H13.896V13.6343H13.9178V13.6124H13.9397V13.5906H13.9615V13.5688H13.9833V13.547H14.0051V13.5252H14.0269V13.5034H14.0487V13.4816H14.0705V13.4597H14.0924V13.4379H14.1142V13.4161H14.136V13.3943H14.1578V13.3725H14.1796V13.3507H14.2014V13.3288H14.2233V13.307H14.2451V13.2852H14.2669V13.2634H14.2887V13.2416H14.3105V13.2198H14.3323V13.198H14.3541V13.1761H14.376V13.1543H14.3978V13.1325H14.4196V13.1107H14.4414V13.0889H14.4632V13.0671H14.485V13.0452H14.5068V13.0234H14.5287V13.0016H14.5505V12.9798H14.5941V12.958H14.6159V12.9362H14.6377V12.9144H14.6595V12.8925H14.6814V12.8707H14.7032V12.8489H14.725V12.8271H14.7468V12.8053H14.7686V12.7835H14.7904V12.7617H14.8123V12.7398H14.8341V12.718H14.8559V12.6962H14.8777V12.6744H14.9213V12.6526H14.9431V12.6308H14.965V12.609H14.9868V12.5871H15.0086V12.5653H15.0304V12.5435H15.0522V12.5217H15.074V12.4999H15.0958V12.4781H15.1177V12.4563H15.1395V12.4344H15.1613V12.4126H15.1831V12.3908H15.2267V12.369H15.2485V12.3472H15.2704V12.3254H15.2922V12.3036H15.314V12.2817H15.3358V12.2599H15.3576V12.2381H15.3794V12.2163H15.4013V12.1945H15.4231V12.1727H15.4449V12.1508H15.4667V12.129H15.5103V12.1072H15.5321V12.0854H15.554V12.0636H15.5758V12.0418H15.5976V12.02H15.6194V11.9981H15.6412V11.9763H15.6848V11.9545H15.7067V11.9327H15.7285V11.9109H15.7503V11.8891H15.7721V11.8673H15.7939V11.8454H15.8157V11.8236H15.8375V11.8018H15.8812V11.78H15.903V11.7582H15.9248V11.7364H15.9466V11.7146H15.9684V11.6927H15.9903V11.6709H16.0121V11.6491H16.0339V11.6273H16.0775V11.6055H16.0993V11.5837H16.1211V11.5618H16.143V11.54H16.1648V11.5182H16.1866V11.4964H16.2084V11.4746H16.2302V11.4528H16.2738V11.431H16.2957V11.4091H16.3175V11.3873H16.3393V11.3655H16.3611V11.3437H16.4047V11.3219H16.4265V11.3001H16.4484V11.2783H16.4702V11.2564H16.492V11.2346H16.5138V11.2128H16.5574V11.191H16.5793V11.1692H16.6011V11.1474H16.6229V11.1255H16.6447V11.1037H16.6883V11.0819H16.7101V11.0601H16.732V11.0383H16.7538V11.0165H16.7756V10.9947H16.7974V10.9728H16.841V10.951H16.8628V10.9292H16.8847V10.9074H16.9065V10.8856H16.9283V10.8638H16.9719V10.842H16.9937V10.8201H17.0155V10.7983H17.0374V10.7765H17.0592V10.7547H17.081V10.7329H17.1246V10.7111H17.1464V10.6893H17.1683V10.6674H17.1901V10.6456H17.2337V10.6238H17.2555V10.602H17.2773V10.5802H17.2991V10.5584H17.3428V10.5366H17.3646V10.5147H17.3864V10.4929H17.4082V10.4711H17.4518V10.4493H17.4737V10.4275H17.4955V10.4057H17.5173V10.3839H17.5609V10.362H17.5827V10.3402H17.6045V10.3184H17.6264V10.2966H17.6482V10.2748H17.6918V10.253H17.7136V10.2311H17.7354V10.2093H17.7573V10.1875H17.8009V10.1657H17.8227V10.1439H17.8445V10.1221H17.8663V10.1003H17.91V10.0784H17.9318V10.0566H17.9536V10.0348H17.9754V10.013H18.019V9.99118H18.0408V9.96937H18.0627V9.94755H18.1063V9.92574H18.1281V9.90392H18.1499V9.8821H18.1935V9.86029H18.2154V9.83848H18.2372V9.81667H18.259V9.79485H18.3026V9.77303H18.3244V9.75122H18.3463V9.7294H18.3899V9.70759H18.4117V9.68578H18.4335V9.66396H18.4771V9.64214H18.499V9.62033H18.5208V9.59851H18.5426V9.5767H18.5862V9.55489H18.608V9.53307H18.6298V9.51125H18.6735V9.48944H18.6953V9.46763H18.7171V9.44581H18.7607V9.424H18.7825V9.40218H18.8044V9.38036H18.848V9.35855H18.8698V9.33674H18.8916V9.31492H18.9353V9.29311H18.9571V9.27129H18.9789V9.24947H19.0225V9.22766H19.0443V9.20585H19.0661V9.18404H19.1098V9.16222H19.1316V9.1404H19.1534V9.11859H19.197V9.09677H19.2188V9.07496H19.2625V9.05315H19.2843V9.03133H19.3061V9.00951H19.3497V8.9877H19.3715V8.96588H19.3934V8.94407H19.437V8.92226H19.4588V8.90044H19.5024V8.87862H19.5243V8.85681H19.5461V8.835H19.5897V8.81318H19.6115V8.79137H19.6333V8.76955H19.677V8.74773H19.6988V8.72592H19.7424V8.70411H19.7642V8.68229H19.786V8.66048H19.8297V8.63866H19.8515V8.61684H19.8951V8.59503H19.9169V8.57322H19.9387V8.55141H19.9824V8.52959H20.0042V8.50777H20.0478V8.48596H20.0696V8.46414H20.1133V8.44233H20.1351V8.42052H20.1787V8.3987H20.2005V8.37688H20.2223V8.35507H20.266V8.33325H20.2878V8.31144H20.3314V8.28963H20.3532V8.26781H20.3968V8.24599H20.4187V8.22418H20.4623V8.20237H20.4841V8.18055H20.5059V8.15874H20.5495V8.13692H20.5714V8.1151H20.615V8.09329H20.6368V8.07148H20.6804V8.04966H20.7023V8.02785H20.7459V8.00603H20.7677V7.98421H20.8113V7.9624H20.8331V7.94059H20.8768V7.91878H20.8986V7.89696H20.9422V7.87514H20.964V7.85333H21.0077V7.83151H21.0295V7.8097H21.0731V7.78789H21.0949V7.76607H21.1385V7.74426H21.1604V7.72244H21.204V7.70062H21.2258V7.67881H21.2694V7.657H21.2913V7.63519H21.3349V7.61337H21.3567V7.59155H21.4003V7.56974H21.4221V7.54792H21.4658V7.52611H21.5094V7.5043H21.5312V7.48248H21.5748V7.46066H21.5967V7.43885H21.6403V7.41703H21.6621V7.39522H21.7057V7.37341H21.7275V7.35159H21.7712V7.32977H21.8148V7.30796H21.8366V7.28615H21.8803V7.26433H21.9021V7.24252H21.9457V7.2207H21.9893V7.19888H22.0111V7.17707H22.0548V7.15526H22.0766V7.13344H22.1202V7.11163H22.1638V7.08981H22.1857V7.06799H22.2293V7.04618H22.2511V7.02437H22.2947V7.00256H22.3384V6.98074H22.3602V6.95892H22.4038V6.93711H22.4256V6.91529H22.4692V6.89348H22.5129V6.87167H22.5347V6.84985H22.5783V6.82803H22.6001V6.80622H22.6438V6.7844H22.6874V6.76259H22.7092V6.74078H22.7528V6.71896H22.7965V6.69714H22.8183V6.67533H22.8619V6.65352H22.9055V6.6317H22.9492V6.60989H22.971V6.58807H23.0146V6.56625H23.0583V6.54444H23.0801V6.52263H23.1237V6.50081H23.1673V6.479H23.1891V6.45718H23.2328V6.43536H23.2764V6.41355H23.2982V6.39174H23.3418V6.36993H23.3855V6.34811H23.4291V6.32629H23.4509V6.30448H23.4945V6.28266H23.5382V6.26085H23.56V6.23904H23.6036V6.21722H23.6472V6.1954H23.6909V6.17359H23.7127V6.15177H23.7563V6.12996H23.8V6.10815H23.8436V6.08633H23.8654V6.06451H23.909V6.0427H23.9527V6.02089H23.9963V5.99907H24.0399V5.97726H24.0617V5.95544H24.1054V5.93362H24.149V5.91181H24.1926V5.89H24.2362V5.86818H24.2581V5.84637H24.3017V5.82455H24.3453V5.80273H24.389V5.78092H24.4326V5.75911H24.4544V5.7373H24.498V5.71548H24.5417V5.69366H24.5853V5.67185H24.6289V5.65003H24.6507V5.62822H24.6944V5.60641H24.738V5.58459H24.7816V5.56277H24.8252V5.54096H24.8689V5.51914H24.9125V5.49733H24.9561V5.47552H24.9998V5.4537H25.0216V5.43188H25.0652V5.41007H25.1088V5.38826H25.1525V5.36644H25.1961V5.34463H25.2397V5.32281H25.2834V5.30099H25.327V5.27918H25.3706V5.25737H25.4142V5.23555H25.4361V5.21374H25.4797V5.19193H25.5233V5.1701H25.567V5.14829H25.6106V5.12648H25.6542V5.10467H25.6978V5.08285H25.7415V5.06104H25.7851V5.03922H25.8287V5.0174H25.8724V4.99559H25.916V4.97378H25.9596V4.95196H26.0033V4.93015H26.0469V4.90833H26.0905V4.88651H26.1341V4.8647H26.1778V4.84289H26.2214V4.82107H26.265V4.79926H26.3087V4.77744H26.3523V4.75563H26.3959V4.73381H26.4395V4.712H26.4832V4.69019H26.5268V4.66837H26.5704V4.64655H26.6141V4.62474H26.6577V4.60292H26.7231V4.58111H26.7668V4.5593H26.8104V4.53748H26.854V4.51566H26.8977V4.49385H26.9413V4.47204H26.9849V4.45022H27.0504V4.42841H27.094V4.40659H27.1376V4.38477H27.1812V4.36296H27.2249V4.34115H27.2685V4.31933H27.3121V4.29752H27.3776V4.2757H27.4212V4.25388H27.4648V4.23207H27.5085V4.21026H27.5521V4.18844H27.5957V4.16663H27.6394V4.14481H27.7048V4.123H27.7484V4.10118H27.7921V4.07937H27.8575V4.05756H27.9011V4.03574H27.9448V4.01392H27.9884V3.99211H28.0538V3.97029H28.0975V3.94848H28.1411V3.92667H28.2065V3.90485H28.2502V3.88303H28.2938V3.86122H28.3374V3.83941H28.4029V3.81759H28.4465V3.79578H28.4901V3.77396H28.5556V3.75214H28.5992V3.73033H28.6428V3.70852H28.6865V3.6867H28.7519V3.66489H28.7955V3.64307H28.861V3.62125H28.9046V3.59944H28.9701V3.57763H29.0137V3.55581H29.0791V3.534H29.1228V3.51218H29.1664V3.49037H29.2318V3.46855H29.2755V3.44674H29.3409V3.42493H29.3845V3.40311H29.45V3.38129H29.4936V3.35948H29.5591V3.33766H29.6027V3.31585H29.6463V3.29404H29.7118V3.27222H29.7554V3.2504H29.8208V3.22859H29.8863V3.20678H29.9299V3.18496H29.9954V3.16315H30.039V3.14133H30.1044V3.11951H30.1699V3.0977H30.2135V3.07589H30.279V3.05407H30.3444V3.03226H30.388V3.01044H30.4535V2.98862H30.5189V2.96681H30.5625V2.945H30.628V2.92318H30.6716V2.90137H30.7371V2.87955H30.8025V2.85774H30.8461V2.83592H30.9116V2.81411H30.977V2.7923H31.0425V2.77048H31.1079V2.74866H31.1734V2.72685H31.217V2.70503H31.2824V2.68322H31.3479V2.66141H31.4133V2.63959H31.4788V2.61777H31.5442V2.59596H31.5878V2.57415H31.6533V2.55233H31.7187V2.53052H31.7842V2.50871H31.8496V2.48689H31.9151V2.46507H31.9805V2.44326H32.046V2.42144H32.1114V2.39963H32.1768V2.37782H32.2423V2.356H32.3077V2.33418H32.3732V2.31237H32.4386V2.29055H32.5041V2.26874H32.5695V2.24693H32.6349V2.22511H32.7004V2.20329H32.7877V2.18148H32.8531V2.15967H32.9185V2.13785H32.984V2.11604H33.0494V2.09422H33.1149V2.0724H33.2021V2.05059H33.2676V2.02878H33.333V2.00696H33.4203V1.98515H33.4857V1.96333H33.573V1.94152H33.6384V1.9197H33.7039V1.89789H33.7911V1.87608H33.8566V1.85426H33.922V1.83244H34.0093V1.81063H34.0747V1.78881H34.1402V1.767H34.2274V1.74519H34.3147V1.72337H34.402V1.70155H34.4674V1.67974H34.5547V1.65792H34.6419V1.63611H34.7074V1.6143H34.7946V1.59248H34.8819V1.57066H34.9473V1.54885H35.0346V1.52704H35.1218V1.50522H35.2091V1.48341H35.2745V1.46159H35.3618V1.43977H35.4709V1.41796H35.5581V1.39615H35.6454V1.37433H35.7327V1.35252H35.8199V1.3307H35.9072V1.30889H35.9944V1.28707H36.0817V1.26526H36.1689V1.24345H36.2562V1.22163H36.3653V1.19981H36.4525V1.178H36.5616V1.15618H36.6489V1.13437H36.7579V1.11256H36.8452V1.09074H36.9543V1.06892H37.0634V1.04711H37.1506V1.02529H37.2597V1.00348H37.3469V0.981667H37.456V0.959854H37.5651V0.938034H37.6742V0.916222H37.7832V0.894409H37.8923V0.872589H38.0232V0.850777H38.1323V0.828964H38.2414V0.807144H38.3504V0.785332H38.4595V0.763519H38.5904V0.741699H38.6995V0.719887H38.8304V0.698074H38.9612V0.676262H39.0921V0.654442H39.223V0.632629H39.3539V0.610817H39.4848V0.588997H39.6157V0.567184H39.7466V0.545372H39.8993V0.523552H40.052V0.50174H40.2047V0.479927H40.3574V0.458107H40.5101V0.436295H40.6628V0.414482H40.8373V0.392662H40.99V0.37085H41.1645V0.349037H41.3609V0.327225H41.5572V0.305405H41.7317V0.283592H41.9281V0.26178H42.1244V0.23996H42.3425V0.218147H42.5825V0.196335H42.8443V0.174515H43.0842V0.152702H43.3242V0.13089H43.6514V0.10907H44.0005V0.0872574H44.3495V0.0654449H44.764V0.0436325H45.3312V0.0218124H46.0511V0H47.9708V0.0218124H48.6906V0.0436325H49.2578V0.0654449H49.6723V0.0872574H50.0214V0.10907H50.3704V0.13089H50.6976V0.152702H50.9376V0.174515H51.1775V0.196335H51.4175V0.218147H51.6793V0.23996H51.8974V0.26178H52.0938V0.283592H52.2683V0.305405H52.4646V0.327225H52.6609V0.349037H52.8573V0.37085H53.0318V0.392662H53.1845V0.414482H53.3372V0.436295H53.5117V0.458107H53.6644V0.479927H53.8171V0.50174H53.9698V0.523552H54.1225V0.545372H54.2752V0.567184H54.4061V0.588997H54.537V0.610817H54.6679V0.632629H54.7988V0.654442H54.9297V0.676262H55.0606V0.698074H55.1915V0.719887H55.3223V0.741699H55.4314V0.763519H55.5405V0.785332H55.6714V0.807144H55.7805V0.828964H55.8895V0.850777H55.9986V0.872589H56.1077V0.894409H56.2386V0.916222H56.3476V0.938034H56.4567V0.959854H56.5658V0.981667H56.6531V1.00348H56.7621V1.02529H56.8712V1.04711H56.9585V1.06892H57.0675V1.09074H57.1548V1.11256H57.2639V1.13437H57.3729V1.15618H57.4602V1.178H57.5693V1.19981H57.6565V1.22163H57.7438V1.24345H57.8311V1.26526H57.9401V1.28707H58.0274V1.30889H58.1146V1.3307H58.2019V1.35252H58.2892V1.37433H58.3764V1.39615H58.4637V1.41796H58.5509V1.43977H58.6382V1.46159H58.7255V1.48341H58.8127V1.50522H58.9V1.52704H58.9872V1.54885H59.0527V1.57066H59.1399V1.59248H59.2272V1.6143H59.2926V1.63611H59.3799V1.65792H59.4672V1.67974H59.5326V1.70155H59.6199V1.72337H59.7071V1.74519H59.7944V1.767H59.8598V1.78881H59.9471V1.81063H60.0125V1.83244H60.078V1.85426H60.1652V1.87608H60.2307V1.89789H60.3179V1.9197H60.3834V1.94152H60.4488V1.96333H60.5361V1.98515H60.6015V2.00696H60.667V2.02878H60.7542V2.05059H60.8197V2.0724H60.8851V2.09422H60.9724V2.11604H61.0378V2.13785H61.1033V2.15967H61.1687V2.18148H61.2342V2.20329H61.2996V2.22511H61.3651V2.24693H61.4305V2.26874H61.5178V2.29055H61.5832V2.31237H61.6486V2.33418H61.7141V2.356H61.7795V2.37782H61.845V2.39963H61.9104V2.42144H61.9759V2.44326H62.0413V2.46507H62.1068V2.48689H62.1722V2.50871H62.2376V2.53052H62.3031V2.55233H62.3685V2.57415H62.4122V2.59596H62.4776V2.61777H62.543V2.63959H62.6085V2.66141H62.6739V2.68322H62.7394V2.70503H62.783V2.72685H62.8485V2.74866H62.9139V2.77048H62.9793V2.7923H63.0448V2.81411H63.1102V2.83592H63.1539V2.85774H63.2193V2.87955H63.2848V2.90137H63.3284V2.92318H63.3938V2.945H63.4593V2.96681H63.5029V2.98862H63.5683V3.01044H63.6338V3.03226H63.6774V3.05407H63.7429V3.07589H63.7865V3.0977H63.8519V3.11951H63.9174V3.14133H63.961V3.16315H64.0265V3.18496H64.0919V3.20678H64.1355V3.22859H64.201V3.2504H64.2446V3.27222H64.3101V3.29404H64.3537V3.31585H64.4191V3.33766H64.4628V3.35948H64.5282V3.38129H64.5718V3.40311H64.6373V3.42493H64.6809V3.44674H64.7245V3.46855H64.79V3.49037H64.8336V3.51218H64.899V3.534H64.9427V3.55581H65.0081V3.57763H65.0518V3.59944H65.1172V3.62125H65.1608V3.64307H65.2045V3.66489H65.2699V3.6867H65.3135V3.70852H65.379V3.73033H65.4226V3.75214H65.4662V3.77396H65.5099V3.79578H65.5753V3.81759H65.6189V3.83941H65.6626V3.86122H65.728V3.88303H65.7716V3.90485H65.8153V3.92667H65.8589V3.94848H65.9243V3.97029H65.968V3.99211H66.0116V4.01392H66.077V4.03574H66.1207V4.05756H66.1643V4.07937H66.2079V4.10118H66.2734V4.123H66.317V4.14481H66.3606V4.16663H66.4043V4.18844H66.4697V4.21026H66.5133V4.23207H66.557V4.25388H66.6006V4.2757H66.6442V4.29752H66.6879V4.31933H66.7315V4.34115H66.7969V4.36296H66.8406V4.38477H66.8842V4.40659H66.9278V4.42841H66.9715V4.45022H67.0151V4.47204H67.0587V4.49385H67.1242V4.51566H67.1678V4.53748H67.2114V4.5593H67.2551V4.58111H67.2987V4.60292H67.3423V4.62474H67.3859V4.64655H67.4296V4.66837H67.4732V4.69019H67.5168V4.712H67.5605V4.73381H67.6041V4.75563H67.6477V4.77744H67.6913V4.79926H67.7568V4.82107H67.8004V4.84289H67.844V4.8647H67.8877V4.88651H67.9313V4.90833H67.9749V4.93015H68.0186V4.95196H68.0622V4.97378H68.1058V4.99559H68.1495V5.0174H68.1931V5.03922H68.2367V5.06104H68.2803V5.08285H68.324V5.10467H68.3676V5.12648H68.4112V5.14829H68.4549V5.1701H68.4985V5.19193H68.5203V5.21374H68.5639V5.23555H68.6076V5.25737H68.6512V5.27918H68.6948V5.30099H68.7385V5.32281H68.7821V5.34463H68.8257V5.36644H68.8693V5.38826H68.8912V5.41007H68.9348V5.43188H68.9784V5.4537H69.022V5.47552H69.0657V5.49733H69.1093V5.51914H69.1529V5.54096H69.1966V5.56277H69.2402V5.58459H69.2838V5.60641H69.3056V5.62822H69.3493V5.65003H69.3929V5.67185H69.4365V5.69366H69.4802V5.71548H69.5238V5.7373H69.5456V5.75911H69.5892V5.78092H69.6329V5.80273H69.6765V5.82455H69.7201V5.84637H69.7419V5.86818H69.7856V5.89H69.8292V5.91181H69.8728V5.93362H69.9165V5.95544H69.9383V5.97726H69.9819V5.99907H70.0255V6.02089H70.0692V6.0427H70.091V6.06451H70.1346V6.08633H70.1782V6.10815H70.2219V6.12996H70.2655V6.15177H70.2873V6.17359H70.3309V6.1954H70.3746V6.21722H70.4182V6.23904H70.44V6.26085H70.4836V6.28266H70.5273V6.30448H70.5709V6.32629H70.5927V6.34811H70.6363V6.36993H70.68V6.39174H70.7018V6.41355H70.7454V6.43536H70.789V6.45718H70.8109V6.479H70.8545V6.50081H70.8981V6.52263H70.9199V6.54444H70.9636V6.56625H71.0072V6.58807H71.0508V6.60989H71.0726V6.6317H71.1163V6.65352H71.1599V6.67533H71.1817V6.69714H71.2253V6.71896H71.269V6.74078H71.2908V6.76259H71.3344V6.7844H71.378V6.80622H71.3999V6.82803H71.4435V6.84985H71.4871V6.87167H71.5089V6.89348H71.5526V6.91529H71.5744V6.93711H71.618V6.95892H71.6616V6.98074H71.6835V7.00256H71.7271V7.02437H71.7489V7.04618H71.7925V7.06799H71.8362V7.08981H71.858V7.11163H71.9016V7.13344H71.9234V7.15526H71.967V7.17707H72.0107V7.19888H72.0325V7.2207H72.0761V7.24252H72.0979V7.26433H72.1416V7.28615H72.1852V7.30796H72.207V7.32977H72.2506V7.35159H72.2725V7.37341H72.3161V7.39522H72.3597V7.41703H72.3815V7.43885H72.4252V7.46066H72.447V7.48248H72.4906V7.5043H72.5124V7.52611H72.556V7.54792H72.5779V7.56974H72.6215V7.59155H72.6433V7.61337H72.6869V7.63519H72.7087V7.657H72.7524V7.67881H72.7742V7.70062H72.8178V7.72244H72.8396V7.74426H72.8833V7.76607H72.9051V7.78789H72.9487V7.8097H72.9705V7.83151H73.0142V7.85333H73.0578V7.87514H73.0796V7.89696H73.1232V7.91878H73.145V7.94059H73.1887V7.9624H73.2105V7.98421H73.2541V8.00603H73.2759V8.02785H73.3196V8.04966H73.3414V8.07148H73.3632V8.09329H73.4068V8.1151H73.4286V8.13692H73.4723V8.15874H73.4941V8.18055H73.5377V8.20237H73.5595V8.22418H73.6032V8.24599H73.625V8.26781H73.6468V8.28963H73.6904V8.31144H73.7122V8.33325H73.7559V8.35507H73.7777V8.37688H73.8213V8.3987H73.8431V8.42052H73.8867V8.44233H73.9086V8.46414H73.9304V8.48596H73.974V8.50777H73.9958V8.52959H74.0395V8.55141H74.0613V8.57322H74.1049V8.59503H74.1267V8.61684H74.1703V8.63866H74.1922V8.66048H74.214V8.68229H74.2576V8.70411H74.2794V8.72592H74.323V8.74773H74.3449V8.76955H74.3667V8.79137H74.4103V8.81318H74.4321V8.835H74.4539V8.85681H74.4976V8.87862H74.5194V8.90044H74.563V8.92226H74.5848V8.94407H74.6066V8.96588H74.6503V8.9877H74.6721V9.00951H74.6939V9.03133H74.7375V9.05315H74.7593V9.07496H74.7812V9.09677H74.8248V9.11859H74.8466V9.1404H74.8902V9.16222H74.912V9.18404H74.9339V9.20585H74.9775V9.22766H74.9993V9.24947H75.0211V9.27129H75.0648V9.29311H75.0866V9.31492H75.1302V9.33674H75.152V9.35855H75.1738V9.38036H75.2175V9.40218H75.2393V9.424H75.2611V9.44581H75.2829V9.46763H75.3265V9.48944H75.3483V9.51125H75.3702V9.53307H75.4138V9.55489H75.4356V9.5767H75.4574V9.59851H75.501V9.62033H75.5229V9.64214H75.5447V9.66396H75.5665V9.68578H75.6101V9.70759H75.6319V9.7294H75.6537V9.75122H75.6974V9.77303H75.7192V9.79485H75.741V9.81667H75.7846V9.83848H75.8064V9.86029H75.8283V9.8821H75.8719V9.90392H75.8937V9.92574H75.9155V9.94755H75.9373V9.96937H75.981V9.99118H76.0028V10.013H76.0246V10.0348H76.0682V10.0566H76.09V10.0784H76.1119V10.1003H76.1337V10.1221H76.1773V10.1439H76.1991V10.1657H76.2209V10.1875H76.2428V10.2093H76.2864V10.2311H76.3082V10.253H76.33V10.2748H76.3518V10.2966H76.3736V10.3184H76.4173V10.3402H76.4391V10.362H76.4609V10.3839H76.4827V10.4057H76.5263V10.4275H76.5482V10.4493H76.57V10.4711H76.5918V10.4929H76.6354V10.5147H76.6572V10.5366H76.679V10.5584H76.7009V10.5802H76.7445V10.602H76.7663V10.6238H76.7881V10.6456H76.8099V10.6674H76.8536V10.6893H76.8754V10.7111H76.8972V10.7329H76.919V10.7547H76.9408V10.7765H76.9845V10.7983H77.0063V10.8201H77.0281V10.842H77.0499V10.8638H77.0717V10.8856H77.1153V10.9074H77.1372V10.9292H77.159V10.951H77.1808V10.9728H77.2026V10.9947H77.2244V11.0165H77.268V11.0383H77.2899V11.0601H77.3117V11.0819H77.3335V11.1037H77.3553V11.1255H77.3989V11.1474H77.4207V11.1692H77.4426V11.191H77.4644V11.2128H77.4862V11.2346H77.508V11.2564H77.5516V11.2783H77.5734V11.3001H77.5953V11.3219H77.6171V11.3437H77.6389V11.3655H77.6825V11.3873H77.7043V11.4091H77.7262V11.431H77.748V11.4528H77.7698V11.4746H77.7916V11.4964H77.8352V11.5182H77.857V11.54H77.8789V11.5618H77.9007V11.5837H77.9225V11.6055H77.9443V11.6273H77.9661V11.6491H77.9879V11.6709H78.0316V11.6927H78.0534V11.7146H78.0752V11.7364H78.097V11.7582H78.1188V11.78H78.1406V11.8018H78.1625V11.8236H78.1843V11.8454H78.2279V11.8673H78.2497V11.8891H78.2715V11.9109H78.2933V11.9327H78.3152V11.9545H78.337V11.9763H78.3588V11.9981H78.3806V12.02H78.4242V12.0418H78.446V12.0636H78.4679V12.0854H78.4897V12.1072H78.5115V12.129H78.5333V12.1508H78.5551V12.1727H78.5769V12.1945H78.6206V12.2163H78.6424V12.2381H78.6642V12.2599H78.686V12.2817H78.7078V12.3036H78.7296V12.3254H78.7514V12.3472H78.7733V12.369H78.7951V12.3908H78.8169V12.4126H78.8387V12.4344H78.8605V12.4563H78.8823V12.4781H78.926V12.4999H78.9478V12.5217H78.9696V12.5435H78.9914V12.5653H79.0132V12.5871H79.035V12.609H79.0569V12.6308H79.0787V12.6526H79.1005V12.6744H79.1223V12.6962H79.1441V12.718H79.1659V12.7398H79.1877V12.7617H79.2314V12.7835H79.2532V12.8053H79.275V12.8271H79.2968V12.8489H79.3186V12.8707H79.3405V12.8925H79.3623V12.9144H79.3841V12.9362H79.4059V12.958H79.4277V12.9798H79.4495V13.0016H79.4713V13.0234H79.4932V13.0452H79.515V13.0671H79.5368V13.0889H79.5586V13.1107H79.5804V13.1325H79.6022V13.1543H79.624V13.1761H79.6459V13.198H79.6677V13.2198H79.7113V13.2416H79.7331V13.2634H79.7549V13.2852H79.7767V13.307H79.7986V13.3288H79.8204V13.3507H79.8422V13.3725H79.864V13.3943H79.8858V13.4161H79.9076V13.4379H79.9295V13.4597H79.9513V13.4816H79.9731V13.5034H79.9949V13.5252H80.0167V13.547H80.0385V13.5688H80.0603V13.5906H80.0822V13.6124H80.104V13.6343H80.1258V13.6561H80.1476V13.6779H80.1694V13.6997H80.1912V13.7215H80.213V13.7433H80.2349V13.7651H80.2567V13.787H80.2785V13.8088H80.3003V13.8306H80.3221V13.8524H80.3439V13.8742H80.3657V13.896H80.3876V13.9178H80.4094V13.9397H80.4312V13.9615H80.453V13.9833H80.4748V14.0051H80.4966V14.0269H80.5184V14.0487H80.5403V14.0705H80.5621V14.0924H80.5839V14.1142H80.6057V14.136H80.6275V14.1578H80.6493V14.1796H80.6712V14.2014H80.693V14.2233H80.7148V14.2451H80.7366V14.2669H80.7584V14.2887H80.7802V14.3323H80.802V14.3541H80.8239V14.376H80.8457V14.3978H80.8675V14.4196H80.8893V14.4414H80.9111V14.4632H80.9329V14.485H80.9548V14.5068H80.9766V14.5287H80.9984V14.5505H81.0202V14.5723H81.042V14.5941H81.0638V14.6159H81.0856V14.6377H81.1075V14.6595H81.1293V14.6814H81.1511V14.7032H81.1729V14.725H81.1947V14.7468H81.2165V14.7686H81.2383V14.8123H81.2602V14.8341H81.282V14.8559H81.3038V14.8777H81.3256V14.8995H81.3474V14.9213H81.3692V14.9431H81.391V14.965H81.4129V14.9868H81.4347V15.0086H81.4565V15.0304H81.4783V15.0522H81.5001V15.074H81.5219V15.0958H81.5437V15.1395H81.5656V15.1613H81.5874V15.1831H81.6092V15.2049H81.631V15.2267H81.6528V15.2486H81.6746V15.2704H81.6964V15.2922H81.7183V15.314H81.7401V15.3358H81.7619V15.3576H81.7837V15.3794H81.8055V15.4013H81.8273V15.4449H81.8492V15.4667H81.871V15.4885H81.8928V15.5103H81.9146V15.5321H81.9364V15.554H81.9582V15.5758H81.98V15.5976H82.0019V15.6412H82.0237V15.663H82.0455V15.6848H82.0673V15.7067H82.0891V15.7285H82.1109V15.7503H82.1327V15.7721H82.1546V15.8157H82.1764V15.8375H82.1982V15.8594H82.22V15.8812H82.2418V15.903H82.2636V15.9248H82.2854V15.9466H82.3073V15.9684H82.3291V16.0121H82.3509V16.0339H82.3727V16.0557H82.3945V16.0775H82.4163V16.0993H82.4382V16.1211H82.46V16.143H82.4818V16.1648H82.5036V16.2084H82.5254V16.2302H82.5472V16.252H82.569V16.2738H82.5909V16.2957H82.6127V16.3175H82.6345V16.3611H82.6563V16.3829H82.6781V16.4047H82.6999V16.4266H82.7217V16.4484H82.7436V16.4702H82.7654V16.5138H82.7872V16.5356H82.809V16.5574H82.8308V16.5793H82.8526V16.6011H82.8745V16.6447H82.8963V16.6665H82.9181V16.6883H82.9399V16.7101H82.9617V16.732H82.9835V16.7538H83.0053V16.7974H83.0272V16.8192H83.049V16.841H83.0708V16.8628H83.0926V16.8847H83.1144V16.9283H83.1362V16.9501H83.158V16.9719H83.1799V16.9937H83.2017V17.0155H83.2235V17.0374H83.2453V17.081H83.2671V17.1028H83.2889V17.1246H83.3107V17.1464H83.3326V17.1901H83.3544V17.2119H83.3762V17.2337H83.398V17.2555H83.4198V17.2991H83.4416V17.321H83.4634V17.3428H83.4853V17.3646H83.5071V17.3864H83.5289V17.43H83.5507V17.4518H83.5725V17.4737H83.5943V17.4955H83.6161V17.5391H83.638V17.5609H83.6598V17.5827H83.6816V17.6045H83.7034V17.6482H83.7252V17.67H83.747V17.6918H83.7689V17.7136H83.7907V17.7572H83.8125V17.7791H83.8343V17.8009H83.8561V17.8227H83.8779V17.8663H83.8997V17.8881H83.9216V17.91H83.9434V17.9318H83.9652V17.9754H83.987V17.9972H84.0088V18.019H84.0306V18.0408H84.0525V18.0845H84.0743V18.1063H84.0961V18.1281H84.1179V18.1717H84.1397V18.1936H84.1615V18.2154H84.1833V18.259H84.2052V18.2808H84.227V18.3026H84.2488V18.3244H84.2706V18.3681H84.2924V18.3899H84.3142V18.4117H84.336V18.4553H84.3579V18.4771H84.3797V18.499H84.4015V18.5426H84.4233V18.5644H84.4451V18.5862H84.4669V18.6298H84.4887V18.6517H84.5106V18.6735H84.5324V18.6953H84.5542V18.7389H84.576V18.7607H84.5978V18.7825H84.6196V18.8262H84.6414V18.848H84.6633V18.8698H84.6851V18.9134H84.7069V18.9352H84.7287V18.9571H84.7505V19.0007H84.7723V19.0225H84.7942V19.0661H84.816V19.088H84.8378V19.1098H84.8596V19.1534H84.8814V19.1752H84.9032V19.197H84.925V19.2407H84.9469V19.2625H84.9687V19.2843H84.9905V19.3279H85.0123V19.3497H85.0341V19.3934H85.0559V19.4152H85.0777V19.437H85.0996V19.4806H85.1214V19.5024H85.1432V19.5243H85.165V19.5679H85.1868V19.5897H85.2086V19.6333H85.2304V19.6551H85.2523V19.677H85.2741V19.7206H85.2959V19.7424H85.3177V19.7642H85.3395V19.8078H85.3613V19.8297H85.3832V19.8733H85.405V19.8951H85.4268V19.9387H85.4486V19.9605H85.4704V19.9824H85.4922V20.026H85.514V20.0478H85.5359V20.0914H85.5577V20.1133H85.5795V20.1569H85.6013V20.1787H85.6231V20.2223H85.6449V20.2441H85.6667V20.266H85.6886V20.3096H85.7104V20.3314H85.7322V20.375H85.754V20.3968H85.7758V20.4405H85.7976V20.4623H85.8195V20.5059H85.8413V20.5277H85.8631V20.5495H85.8849V20.5932H85.9067V20.615H85.9285V20.6586H85.9503V20.6804H85.9722V20.7241H85.994V20.7459H86.0158V20.7895H86.0376V20.8113H86.0594V20.855H86.0812V20.8768H86.103V20.9204H86.1249V20.9422H86.1467V20.9858H86.1685V21.0077H86.1903V21.0513H86.2121V21.0731H86.2339V21.1167H86.2557V21.1385H86.2776V21.1822H86.2994V21.204H86.3212V21.2476H86.343V21.2694H86.3648V21.3131H86.3866V21.3567H86.4084V21.3785H86.4303V21.4221H86.4521V21.444H86.4739V21.4876H86.4957V21.5094H86.5175V21.553H86.5393V21.5748H86.5611V21.6185H86.583V21.6403H86.6048V21.6839H86.6266V21.7057H86.6484V21.7494H86.6702V21.793H86.692V21.8148H86.7139V21.8584H86.7357V21.8802H86.7575V21.9239H86.7793V21.9675H86.8011V21.9893H86.8229V22.033H86.8447V22.0548H86.8666V22.0984H86.8884V22.142H86.9102V22.1638H86.932V22.2075H86.9538V22.2293H86.9756V22.2729H86.9974V22.3165H87.0193V22.3384H87.0411V22.382H87.0629V22.4038H87.0847V22.4474H87.1065V22.4911H87.1283V22.5129H87.1502V22.5565H87.172V22.5783H87.1938V22.622H87.2156V22.6656H87.2374V22.6874H87.2592V22.731H87.281V22.7747H87.3029V22.7965H87.3247V22.8401H87.3465V22.8837H87.3683V22.9274H87.3901V22.9492H87.4119V22.9928H87.4337V23.0364H87.4556V23.0583H87.4774V23.1019H87.4992V23.1455H87.521V23.1673H87.5428V23.211H87.5646V23.2546H87.5864V23.2764H87.6083V23.32H87.6301V23.3637H87.6519V23.4073H87.6737V23.4291H87.6955V23.4727H87.7173V23.5164H87.7392V23.5382H87.761V23.5818H87.7828V23.6254H87.8046V23.6472H87.8264V23.6909H87.8482V23.7345H87.87V23.7781H87.8919V23.8218H87.9137V23.8436H87.9355V23.8872H87.9573V23.9308H87.9791V23.9745H88.0009V24.0181H88.0227V24.0399H88.0446V24.0835H88.0664V24.1272H88.0882V24.1708H88.11V24.2144H88.1318V24.2363H88.1536V24.2799H88.1754V24.3235H88.1973V24.3671H88.2191V24.389H88.2409V24.4326H88.2627V24.4762H88.2845V24.5198H88.3063V24.5635H88.3281V24.5853H88.35V24.6289H88.3718V24.6725H88.3936V24.7162H88.4154V24.7598H88.4372V24.8034H88.459V24.8471H88.4809V24.8907H88.5027V24.9343H88.5245V24.9561H88.5463V24.9998H88.5681V25.0434H88.5899V25.087H88.6117V25.1307H88.6336V25.1743H88.6554V25.2179H88.6772V25.2615H88.699V25.3052H88.7208V25.3488H88.7426V25.3706H88.7645V25.4142H88.7863V25.4579H88.8081V25.5015H88.8299V25.5451H88.8517V25.5888H88.8735V25.6324H88.8953V25.676H88.9172V25.7197H88.939V25.7633H88.9608V25.8069H88.9826V25.8505H89.0044V25.8942H89.0262V25.9378H89.048V25.9814H89.0699V26.0251H89.0917V26.0687H89.1135V26.1123H89.1353V26.156H89.1571V26.1996H89.1789V26.2432H89.2007V26.2868H89.2226V26.3305H89.2444V26.3741H89.2662V26.4177H89.288V26.4614H89.3098V26.505H89.3316V26.5486H89.3534V26.5922H89.3753V26.6359H89.3971V26.6795H89.4189V26.7449H89.4407V26.7886H89.4625V26.8322H89.4843V26.8758H89.5061V26.9195H89.528V26.9631H89.5498V27.0067H89.5716V27.0722H89.5934V27.1158H89.6152V27.1594H89.637V27.2031H89.6589V27.2467H89.6807V27.2903H89.7025V27.334H89.7243V27.3994H89.7461V27.443H89.7679V27.4867H89.7897V27.5303H89.8116V27.5739H89.8334V27.6175H89.8552V27.6612H89.877V27.7266H89.8988V27.7702H89.9206V27.8139H89.9424V27.8793H89.9643V27.923H89.9861V27.9666H90.0079V28.0102H90.0297V28.0757H90.0515V28.1193H90.0733V28.1629H90.0952V28.2284H90.117V28.272H90.1388V28.3156H90.1606V28.3592H90.1824V28.4247H90.2042V28.4683H90.226V28.5119H90.2479V28.5774H90.2697V28.621H90.2915V28.6647H90.3133V28.7301H90.3351V28.7737H90.3569V28.8174H90.3787V28.8828H90.4006V28.9264H90.4224V28.9919H90.4442V29.0355H90.466V29.101H90.4878V29.1446H90.5096V29.21H90.5314V29.2537H90.5533V29.2973H90.5751V29.3627H90.5969V29.4064H90.6187V29.4718H90.6405V29.5154H90.6623V29.5809H90.6842V29.6245H90.706V29.6899H90.7278V29.7336H90.7496V29.799H90.7714V29.8427H90.7932V29.9081H90.815V29.9517H90.8369V30.0172H90.8587V30.0826H90.8805V30.1262H90.9023V30.1917H90.9241V30.2571H90.9459V30.3008H90.9677V30.3662H90.9896V30.4098H91.0114V30.4753H91.0332V30.5407H91.055V30.5844H91.0768V30.6498H91.0986V30.7152H91.1204V30.7589H91.1423V30.8243H91.1641V30.8898H91.1859V30.9552H91.2077V30.9988H91.2295V31.0643H91.2513V31.1297H91.2731V31.1952H91.295V31.2606H91.3168V31.3261H91.3386V31.3697H91.3604V31.4351H91.3822V31.5006H91.404V31.566H91.4258V31.6315H91.4477V31.6969H91.4695V31.7405H91.4913V31.806H91.5131V31.8714H91.5349V31.9369H91.5567V32.0023H91.5786V32.0678H91.6004V32.1332H91.6222V32.1987H91.644V32.2641H91.6658V32.3295H91.6876V32.4168H91.7094V32.4822H91.7313V32.5477H91.7531V32.6131H91.7749V32.6786H91.7967V32.744H91.8185V32.8095H91.8403V32.8749H91.8622V32.9404H91.884V33.0058H91.9058V33.0931H91.9276V33.1585H91.9494V33.2239H91.9712V33.3112H91.993V33.3767H92.0149V33.4421H92.0367V33.5294H92.0585V33.5948H92.0803V33.6821H92.1021V33.7475H92.1239V33.813H92.1457V33.9002H92.1676V33.9657H92.1894V34.0311H92.2112V34.1184H92.233V34.1838H92.2548V34.2711H92.2766V34.3583H92.2984V34.4238H92.3203V34.511H92.3421V34.5983H92.3639V34.6855H92.3857V34.751H92.4075V34.8382H92.4293V34.9255H92.4511V34.9909H92.473V35.0782H92.4948V35.1655H92.5166V35.2309H92.5384V35.3182H92.5602V35.4272H92.582V35.5145H92.6039V35.6018H92.6257V35.689H92.6475V35.7763H92.6693V35.8635H92.6911V35.9508H92.7129V36.0381H92.7347V36.1253H92.7566V36.2126H92.7784V36.2998H92.8002V36.4089H92.822V36.4962H92.8438V36.6052H92.8656V36.7143H92.8874V36.8016H92.9093V36.9107H92.9311V36.9979H92.9529V37.107H92.9747V37.1942H92.9965V37.3033H93.0183V37.4124H93.0401V37.4997H93.062V37.6087H93.0838V37.7396H93.1056V37.8487H93.1274V37.9578H93.1492V38.0668H93.171V38.1977H93.1929V38.3068H93.2147V38.4159H93.2365V38.5249H93.2583V38.634H93.2801V38.7649H93.3019V38.8958H93.3237V39.0267H93.3456V39.1576H93.3674V39.2885H93.3892V39.4194H93.411V39.5502H93.4328V39.6811H93.4546V39.812H93.4764V39.9865H93.4983V40.1392H93.5201V40.2919H93.5419V40.4446H93.5637V40.5974H93.5855V40.7501H93.6073V40.9028H93.6292V41.0773H93.651V41.2736H93.6728V41.4699H93.6946V41.6445H93.7164V41.8408H93.7382V42.0371H93.76V42.2335H93.7819V42.4952H93.8037V42.7352H93.8255V42.9752H93.8473V43.2151H93.8691V43.4987H93.8909V43.8478H93.9127V44.1968H93.9346V44.5458H93.9564V45.0912H93.9782V45.6584H94V48.3416H93.9782V48.9088H93.9564V49.4542H93.9346V49.8032H93.9127V50.1522H93.8909V50.5013H93.8691V50.7849H93.8473V51.0248H93.8255V51.2648H93.8037V51.5048H93.7819V51.7665H93.76V51.9629H93.7382V52.1592H93.7164V52.3555H93.6946V52.5301H93.6728V52.7264H93.651V52.9227H93.6292V53.0972H93.6073V53.2499H93.5855V53.4026H93.5637V53.5553H93.5419V53.7081H93.5201V53.8608H93.4983V54.0135H93.4764V54.188H93.4546V54.3189H93.4328V54.4498H93.411V54.5806H93.3892V54.7115H93.3674V54.8424H93.3456V54.9733H93.3237V55.1042H93.3019V55.2351H93.2801V55.366H93.2583V55.4751H93.2365V55.5841H93.2147V55.6932H93.1929V55.8241H93.171V55.9332H93.1492V56.0422H93.1274V56.1513H93.1056V56.2604H93.0838V56.3913H93.062V56.5003H93.0401V56.5876H93.0183V56.6967H92.9965V56.8058H92.9747V56.893H92.9529V57.0021H92.9311V57.0893H92.9093V57.1984H92.8874V57.3075H92.8656V57.3948H92.8438V57.5038H92.822V57.5911H92.8002V57.7002H92.7784V57.7874H92.7566V57.8747H92.7347V57.9619H92.7129V58.0492H92.6911V58.1365H92.6693V58.2237H92.6475V58.311H92.6257V58.3982H92.6039V58.4855H92.582V58.5946H92.5602V58.6818H92.5384V58.7691H92.5166V58.8345H92.4948V58.9218H92.473V59.0091H92.4511V59.0745H92.4293V59.1618H92.4075V59.249H92.3857V59.3363H92.3639V59.4017H92.3421V59.489H92.3203V59.5762H92.2984V59.6417H92.2766V59.7289H92.2548V59.8162H92.233V59.8816H92.2112V59.9689H92.1894V60.0343H92.1676V60.0998H92.1457V60.187H92.1239V60.2525H92.1021V60.3398H92.0803V60.4052H92.0585V60.4706H92.0367V60.5579H92.0149V60.6233H91.993V60.6888H91.9712V60.7761H91.9494V60.8415H91.9276V60.9069H91.9058V60.9942H91.884V61.0596H91.8622V61.1251H91.8403V61.1905H91.8185V61.256H91.7967V61.3214H91.7749V61.3869H91.7531V61.4523H91.7313V61.5178H91.7094V61.5832H91.6876V61.6705H91.6658V61.7359H91.644V61.8013H91.6222V61.8668H91.6004V61.9322H91.5786V61.9977H91.5567V62.0631H91.5349V62.1286H91.5131V62.194H91.4913V62.2595H91.4695V62.3031H91.4477V62.3685H91.4258V62.434H91.404V62.4994H91.3822V62.5649H91.3604V62.6303H91.3386V62.6739H91.3168V62.7394H91.295V62.8048H91.2731V62.8703H91.2513V62.9357H91.2295V63.0012H91.2077V63.0666H91.1859V63.1102H91.1641V63.1757H91.1423V63.2411H91.1204V63.2848H91.0986V63.3502H91.0768V63.4156H91.055V63.4593H91.0332V63.5247H91.0114V63.5902H90.9896V63.6338H90.9677V63.6992H90.9459V63.7429H90.9241V63.8083H90.9023V63.8738H90.8805V63.9174H90.8587V63.9828H90.8369V64.0483H90.815V64.0919H90.7932V64.1573H90.7714V64.2228H90.7496V64.2664H90.7278V64.31H90.706V64.3755H90.6842V64.4191H90.6623V64.4846H90.6405V64.5282H90.6187V64.5936H90.5969V64.6373H90.5751V64.7027H90.5533V64.7463H90.5314V64.8118H90.5096V64.8554H90.4878V64.899H90.466V64.9645H90.4442V65.0081H90.4224V65.0736H90.4006V65.1172H90.3787V65.1826H90.3569V65.2263H90.3351V65.2917H90.3133V65.3353H90.2915V65.379H90.2697V65.4226H90.2479V65.488H90.226V65.5317H90.2042V65.5753H90.1824V65.6408H90.1606V65.6844H90.1388V65.728H90.117V65.7716H90.0952V65.8371H90.0733V65.8807H90.0515V65.9243H90.0297V65.9898H90.0079V66.0334H89.9861V66.077H89.9643V66.1207H89.9424V66.1861H89.9206V66.2298H89.8988V66.2734H89.877V66.3388H89.8552V66.3825H89.8334V66.4261H89.8116V66.4697H89.7897V66.5133H89.7679V66.557H89.7461V66.6224H89.7243V66.666H89.7025V66.7097H89.6807V66.7533H89.6589V66.7969H89.637V66.8406H89.6152V66.8842H89.5934V66.9496H89.5716V66.9933H89.5498V67.0369H89.528V67.0805H89.5061V67.1242H89.4843V67.1678H89.4625V67.2114H89.4407V67.2769H89.4189V67.3205H89.3971V67.3641H89.3753V67.4078H89.3534V67.4514H89.3316V67.495H89.3098V67.5386H89.288V67.5823H89.2662V67.6259H89.2444V67.6695H89.2226V67.7132H89.2007V67.7568H89.1789V67.8004H89.1571V67.844H89.1353V67.8877H89.1135V67.9313H89.0917V67.9749H89.0699V68.0186H89.048V68.0622H89.0262V68.1058H89.0044V68.1495H88.9826V68.1931H88.9608V68.2367H88.939V68.2803H88.9172V68.324H88.8953V68.3676H88.8735V68.4112H88.8517V68.4549H88.8299V68.4985H88.8081V68.5421H88.7863V68.5858H88.7645V68.6294H88.7426V68.673H88.7208V68.6948H88.699V68.7385H88.6772V68.7821H88.6554V68.8257H88.6336V68.8693H88.6117V68.913H88.5899V68.9566H88.5681V69.0002H88.5463V69.0439H88.5245V69.0657H88.5027V69.1093H88.4809V69.1529H88.459V69.1966H88.4372V69.2402H88.4154V69.2838H88.3936V69.3275H88.3718V69.3711H88.35V69.4147H88.3281V69.4365H88.3063V69.4802H88.2845V69.5238H88.2627V69.5674H88.2409V69.611H88.2191V69.6329H88.1973V69.6765H88.1754V69.7201H88.1536V69.7638H88.1318V69.8074H88.11V69.8292H88.0882V69.8728H88.0664V69.9165H88.0446V69.9601H88.0227V69.9819H88.0009V70.0255H87.9791V70.0692H87.9573V70.1128H87.9355V70.1564H87.9137V70.1782H87.8919V70.2219H87.87V70.2655H87.8482V70.3091H87.8264V70.3528H87.8046V70.3746H87.7828V70.4182H87.761V70.4618H87.7392V70.4836H87.7173V70.5273H87.6955V70.5709H87.6737V70.6145H87.6519V70.6363H87.6301V70.68H87.6083V70.7236H87.5864V70.7454H87.5646V70.789H87.5428V70.8327H87.521V70.8545H87.4992V70.8981H87.4774V70.9417H87.4556V70.9636H87.4337V71.0072H87.4119V71.0508H87.3901V71.0945H87.3683V71.1163H87.3465V71.1599H87.3247V71.2035H87.3029V71.2253H87.281V71.269H87.2592V71.3126H87.2374V71.3344H87.2156V71.378H87.1938V71.4217H87.172V71.4435H87.1502V71.4871H87.1283V71.5089H87.1065V71.5526H87.0847V71.5962H87.0629V71.618H87.0411V71.6616H87.0193V71.6835H86.9974V71.7271H86.9756V71.7707H86.9538V71.7925H86.932V71.8362H86.9102V71.8798H86.8884V71.9016H86.8666V71.9452H86.8447V71.967H86.8229V72.0107H86.8011V72.0543H86.7793V72.0761H86.7575V72.1197H86.7357V72.1416H86.7139V72.1852H86.692V72.2288H86.6702V72.2506H86.6484V72.2943H86.6266V72.3161H86.6048V72.3597H86.583V72.3815H86.5611V72.4252H86.5393V72.447H86.5175V72.4906H86.4957V72.5124H86.4739V72.556H86.4521V72.5997H86.4303V72.6215H86.4084V72.6651H86.3866V72.6869H86.3648V72.7306H86.343V72.7524H86.3212V72.796H86.2994V72.8178H86.2776V72.8615H86.2557V72.8833H86.2339V72.9269H86.2121V72.9487H86.1903V72.9923H86.1685V73.0142H86.1467V73.0578H86.1249V73.0796H86.103V73.1232H86.0812V73.145H86.0594V73.1887H86.0376V73.2105H86.0158V73.2541H85.994V73.2759H85.9722V73.3196H85.9503V73.3414H85.9285V73.385H85.9067V73.4068H85.8849V73.4505H85.8631V73.4723H85.8413V73.5159H85.8195V73.5377H85.7976V73.5595H85.7758V73.6032H85.754V73.625H85.7322V73.6686H85.7104V73.6904H85.6886V73.734H85.6667V73.7559H85.6449V73.7995H85.6231V73.8213H85.6013V73.8431H85.5795V73.8867H85.5577V73.9086H85.5359V73.9522H85.514V73.974H85.4922V74.0176H85.4704V74.0395H85.4486V74.0613H85.4268V74.1049H85.405V74.1267H85.3832V74.1703H85.3613V74.1922H85.3395V74.2358H85.3177V74.2576H85.2959V74.2794H85.2741V74.323H85.2523V74.3449H85.2304V74.3885H85.2086V74.4103H85.1868V74.4321H85.165V74.4757H85.1432V74.4976H85.1214V74.5194H85.0996V74.563H85.0777V74.5848H85.0559V74.6066H85.0341V74.6503H85.0123V74.6721H84.9905V74.7157H84.9687V74.7375H84.9469V74.7593H84.925V74.803H84.9032V74.8248H84.8814V74.8466H84.8596V74.8902H84.8378V74.912H84.816V74.9557H84.7942V74.9775H84.7723V74.9993H84.7505V75.0429H84.7287V75.0647H84.7069V75.0866H84.6851V75.1302H84.6633V75.152H84.6414V75.1738H84.6196V75.2175H84.5978V75.2393H84.576V75.2611H84.5542V75.3047H84.5324V75.3265H84.5106V75.3483H84.4887V75.392H84.4669V75.4138H84.4451V75.4356H84.4233V75.4574H84.4015V75.501H84.3797V75.5229H84.3579V75.5447H84.336V75.5883H84.3142V75.6101H84.2924V75.6319H84.2706V75.6756H84.2488V75.6974H84.227V75.7192H84.2052V75.7628H84.1833V75.7846H84.1615V75.8065H84.1397V75.8283H84.1179V75.8719H84.0961V75.8937H84.0743V75.9155H84.0525V75.9592H84.0306V75.981H84.0088V76.0028H83.987V76.0464H83.9652V76.0682H83.9434V76.09H83.9216V76.1119H83.8997V76.1337H83.8779V76.1773H83.8561V76.1991H83.8343V76.2209H83.8125V76.2427H83.7907V76.2864H83.7689V76.3082H83.747V76.33H83.7252V76.3518H83.7034V76.3955H83.6816V76.4173H83.6598V76.4391H83.638V76.4609H83.6161V76.5045H83.5943V76.5263H83.5725V76.5482H83.5507V76.57H83.5289V76.6136H83.5071V76.6354H83.4853V76.6572H83.4634V76.679H83.4416V76.7227H83.4198V76.7445H83.398V76.7663H83.3762V76.7881H83.3544V76.8317H83.3326V76.8536H83.3107V76.8754H83.2889V76.8972H83.2671V76.919H83.2453V76.9626H83.2235V76.9845H83.2017V77.0063H83.1799V77.0281H83.158V77.0499H83.1362V77.0935H83.1144V77.1153H83.0926V77.1372H83.0708V77.159H83.049V77.1808H83.0272V77.2026H83.0053V77.2462H82.9835V77.268H82.9617V77.2899H82.9399V77.3117H82.9181V77.3335H82.8963V77.3771H82.8745V77.3989H82.8526V77.4207H82.8308V77.4426H82.809V77.4644H82.7872V77.4862H82.7654V77.5298H82.7436V77.5516H82.7217V77.5735H82.6999V77.5953H82.6781V77.6171H82.6563V77.6607H82.6345V77.6825H82.6127V77.7043H82.5909V77.7262H82.569V77.748H82.5472V77.7698H82.5254V77.8134H82.5036V77.8352H82.4818V77.857H82.46V77.8789H82.4382V77.9007H82.4163V77.9225H82.3945V77.9443H82.3727V77.9661H82.3509V78.0097H82.3291V78.0316H82.3073V78.0534H82.2854V78.0752H82.2636V78.097H82.2418V78.1188H82.22V78.1406H82.1982V78.1625H82.1764V78.2061H82.1546V78.2279H82.1327V78.2497H82.1109V78.2715H82.0891V78.2933H82.0673V78.3152H82.0455V78.337H82.0237V78.3588H82.0019V78.4024H81.98V78.4242H81.9582V78.446H81.9364V78.4679H81.9146V78.4897H81.8928V78.5115H81.871V78.5333H81.8492V78.5551H81.8273V78.5987H81.8055V78.6206H81.7837V78.6424H81.7619V78.6642H81.7401V78.686H81.7183V78.7078H81.6964V78.7296H81.6746V78.7515H81.6528V78.7733H81.631V78.7951H81.6092V78.8169H81.5874V78.8387H81.5656V78.8823H81.5437V78.9042H81.5219V78.926H81.5001V78.9478H81.4783V78.9696H81.4565V78.9914H81.4347V79.0132H81.4129V79.035H81.391V79.0569H81.3692V79.0787H81.3474V79.1005H81.3256V79.1223H81.3038V79.1441H81.282V79.1877H81.2602V79.2096H81.2383V79.2314H81.2165V79.2532H81.1947V79.275H81.1729V79.2968H81.1511V79.3186H81.1293V79.3405H81.1075V79.3623H81.0856V79.3841H81.0638V79.4059H81.042V79.4277H81.0202V79.4495H80.9984V79.4713H80.9766V79.4932H80.9548V79.515H80.9329V79.5368H80.9111V79.5586H80.8893V79.5804H80.8675V79.624H80.8457V79.6459H80.8239V79.6677H80.802V79.6895H80.7802V79.7113H80.7584V79.7331H80.7366V79.7549H80.7148V79.7767H80.693V79.7986H80.6712V79.8204H80.6493V79.8422H80.6275V79.864H80.6057V79.8858H80.5839V79.9076H80.5621V79.9295H80.5403V79.9513H80.5184V79.9731H80.4966V79.9949H80.4748V80.0167H80.453V80.0385H80.4312V80.0603H80.4094V80.0822H80.3876V80.104H80.3657V80.1258H80.3439V80.1476H80.3221V80.1694H80.3003V80.1912H80.2785V80.213H80.2567V80.2349H80.2349V80.2567H80.213V80.2785H80.1912V80.3003H80.1694V80.3221H80.1476V80.3439H80.1258V80.3657H80.104V80.3876H80.0822V80.4094H80.0603V80.4312H80.0385V80.453H80.0167V80.4748H79.9949V80.4966H79.9731V80.5184H79.9513V80.5403H79.9295V80.5621H79.9076V80.5839H79.8858V80.6057H79.864V80.6275H79.8422V80.6493H79.8204V80.6712H79.7986V80.693H79.7767V80.7148H79.7549V80.7366H79.7331V80.7584H79.7113V80.7802H79.6895V80.802H79.6677V80.8239H79.6459V80.8457H79.624V80.8675H79.5804V80.8893H79.5586V80.9111H79.5368V80.9329H79.515V80.9547H79.4932V80.9766H79.4713V80.9984H79.4495V81.0202H79.4277V81.042H79.4059V81.0638H79.3841V81.0856H79.3623V81.1074H79.3405V81.1293H79.3186V81.1511H79.2968V81.1729H79.275V81.1947H79.2532V81.2165H79.2314V81.2383H79.2096V81.2602H79.1659V81.282H79.1441V81.3038H79.1223V81.3256H79.1005V81.3474H79.0787V81.3692H79.0569V81.391H79.035V81.4129H79.0132V81.4347H78.9914V81.4565H78.9696V81.4783H78.9478V81.5001H78.926V81.5219H78.9042V81.5437H78.8823V81.5656H78.8387V81.5874H78.8169V81.6092H78.7951V81.631H78.7733V81.6528H78.7514V81.6746H78.7296V81.6964H78.7078V81.7183H78.686V81.7401H78.6642V81.7619H78.6424V81.7837H78.6206V81.8055H78.5987V81.8273H78.5551V81.8492H78.5333V81.871H78.5115V81.8928H78.4897V81.9146H78.4679V81.9364H78.446V81.9582H78.4242V81.98H78.4024V82.0019H78.3588V82.0237H78.337V82.0455H78.3152V82.0673H78.2933V82.0891H78.2715V82.1109H78.2497V82.1327H78.2279V82.1546H78.2061V82.1764H78.1625V82.1982H78.1406V82.22H78.1188V82.2418H78.097V82.2636H78.0752V82.2854H78.0534V82.3073H78.0316V82.3291H78.0098V82.3509H77.9661V82.3727H77.9443V82.3945H77.9225V82.4163H77.9007V82.4382H77.8789V82.46H77.857V82.4818H77.8352V82.5036H77.8134V82.5254H77.7698V82.5472H77.748V82.569H77.7262V82.5909H77.7043V82.6127H77.6825V82.6345H77.6389V82.6563H77.6171V82.6781H77.5953V82.6999H77.5734V82.7217H77.5516V82.7436H77.5298V82.7654H77.4862V82.7872H77.4644V82.809H77.4426V82.8308H77.4207V82.8526H77.3989V82.8744H77.3553V82.8963H77.3335V82.9181H77.3117V82.9399H77.2899V82.9617H77.268V82.9835H77.2462V83.0053H77.2026V83.0272H77.1808V83.049H77.159V83.0708H77.1372V83.0926H77.1153V83.1144H77.0717V83.1362H77.0499V83.158H77.0281V83.1799H77.0063V83.2017H76.9845V83.2235H76.9626V83.2453H76.919V83.2671H76.8972V83.2889H76.8754V83.3107H76.8536V83.3326H76.8099V83.3544H76.7881V83.3762H76.7663V83.398H76.7445V83.4198H76.7009V83.4416H76.679V83.4634H76.6572V83.4853H76.6354V83.5071H76.6136V83.5289H76.57V83.5507H76.5482V83.5725H76.5263V83.5943H76.5045V83.6162H76.4609V83.638H76.4391V83.6598H76.4173V83.6816H76.3955V83.7034H76.3518V83.7252H76.33V83.747H76.3082V83.7689H76.2864V83.7907H76.2428V83.8125H76.2209V83.8343H76.1991V83.8561H76.1773V83.8779H76.1337V83.8997H76.1119V83.9216H76.09V83.9434H76.0682V83.9652H76.0246V83.987H76.0028V84.0088H75.981V84.0306H75.9592V84.0524H75.9155V84.0743H75.8937V84.0961H75.8719V84.1179H75.8283V84.1397H75.8064V84.1615H75.7846V84.1833H75.741V84.2052H75.7192V84.227H75.6974V84.2488H75.6756V84.2706H75.6319V84.2924H75.6101V84.3142H75.5883V84.336H75.5447V84.3579H75.5229V84.3797H75.501V84.4015H75.4574V84.4233H75.4356V84.4451H75.4138V84.4669H75.3702V84.4887H75.3483V84.5106H75.3265V84.5324H75.3047V84.5542H75.2611V84.576H75.2393V84.5978H75.2175V84.6196H75.1738V84.6414H75.152V84.6633H75.1302V84.6851H75.0866V84.7069H75.0648V84.7287H75.0429V84.7505H74.9993V84.7723H74.9775V84.7942H74.9339V84.816H74.912V84.8378H74.8902V84.8596H74.8466V84.8814H74.8248V84.9032H74.803V84.925H74.7593V84.9469H74.7375V84.9687H74.7157V84.9905H74.6721V85.0123H74.6503V85.0341H74.6066V85.0559H74.5848V85.0777H74.563V85.0996H74.5194V85.1214H74.4976V85.1432H74.4757V85.165H74.4321V85.1868H74.4103V85.2086H74.3667V85.2304H74.3449V85.2523H74.323V85.2741H74.2794V85.2959H74.2576V85.3177H74.2358V85.3395H74.1922V85.3613H74.1703V85.3832H74.1267V85.405H74.1049V85.4268H74.0613V85.4486H74.0395V85.4704H73.9958V85.4922H73.974V85.514H73.9522V85.5359H73.9086V85.5577H73.8867V85.5795H73.8431V85.6013H73.8213V85.6231H73.7777V85.6449H73.7559V85.6667H73.7122V85.6886H73.6904V85.7104H73.6686V85.7322H73.625V85.754H73.6032V85.7758H73.5595V85.7976H73.5377V85.8194H73.4941V85.8413H73.4723V85.8631H73.4505V85.8849H73.4068V85.9067H73.385V85.9285H73.3414V85.9503H73.3196V85.9722H73.2759V85.994H73.2541V86.0158H73.2105V86.0376H73.1887V86.0594H73.145V86.0812H73.1232V86.103H73.0796V86.1249H73.0578V86.1467H73.0142V86.1685H72.9923V86.1903H72.9487V86.2121H72.9269V86.2339H72.8833V86.2557H72.8615V86.2776H72.8178V86.2994H72.7742V86.3212H72.7524V86.343H72.7087V86.3648H72.6869V86.3866H72.6433V86.4084H72.6215V86.4303H72.5779V86.4521H72.556V86.4739H72.5124V86.4957H72.4906V86.5175H72.447V86.5393H72.4252V86.5612H72.3815V86.583H72.3597V86.6048H72.3161V86.6266H72.2943V86.6484H72.2506V86.6702H72.207V86.692H72.1852V86.7139H72.1416V86.7357H72.1198V86.7575H72.0761V86.7793H72.0325V86.8011H72.0107V86.8229H71.967V86.8447H71.9452V86.8666H71.9016V86.8884H71.858V86.9102H71.8362V86.932H71.7925V86.9538H71.7707V86.9756H71.7271V86.9974H71.6835V87.0193H71.6616V87.0411H71.618V87.0629H71.5962V87.0847H71.5526V87.1065H71.5089V87.1283H71.4871V87.1502H71.4435V87.172H71.4217V87.1938H71.378V87.2156H71.3344V87.2374H71.3126V87.2592H71.269V87.281H71.2253V87.3029H71.1817V87.3247H71.1599V87.3465H71.1163V87.3683H71.0726V87.3901H71.0508V87.4119H71.0072V87.4337H70.9636V87.4556H70.9417V87.4774H70.8981V87.4992H70.8545V87.521H70.8327V87.5428H70.789V87.5646H70.7454V87.5864H70.7018V87.6083H70.68V87.6301H70.6363V87.6519H70.5927V87.6737H70.5709V87.6955H70.5273V87.7173H70.4836V87.7392H70.4618V87.761H70.4182V87.7828H70.3746V87.8046H70.3309V87.8264H70.3091V87.8482H70.2655V87.87H70.2219V87.8919H70.1782V87.9137H70.1346V87.9355H70.1128V87.9573H70.0692V87.9791H70.0255V88.0009H69.9819V88.0227H69.9383V88.0446H69.9165V88.0664H69.8728V88.0882H69.8292V88.11H69.7856V88.1318H69.7637V88.1536H69.7201V88.1754H69.6765V88.1973H69.6329V88.2191H69.5892V88.2409H69.5674V88.2627H69.5238V88.2845H69.4802V88.3063H69.4365V88.3282H69.3929V88.35H69.3493V88.3718H69.3275V88.3936H69.2838V88.4154H69.2402V88.4372H69.1966V88.459H69.1529V88.4809H69.1093V88.5027H69.0657V88.5245H69.022V88.5463H68.9784V88.5681H68.9566V88.5899H68.913V88.6117H68.8693V88.6336H68.8257V88.6554H68.7821V88.6772H68.7385V88.699H68.6948V88.7208H68.6512V88.7426H68.6076V88.7644H68.5639V88.7863H68.5421V88.8081H68.4985V88.8299H68.4549V88.8517H68.4112V88.8735H68.3676V88.8953H68.324V88.9172H68.2803V88.939H68.2367V88.9608H68.1931V88.9826H68.1495V89.0044H68.1058V89.0262H68.0622V89.048H68.0186V89.0699H67.9749V89.0917H67.9313V89.1135H67.8877V89.1353H67.844V89.1571H67.8004V89.1789H67.7568V89.2007H67.7132V89.2226H67.6695V89.2444H67.6259V89.2662H67.5823V89.288H67.5386V89.3098H67.495V89.3316H67.4514V89.3534H67.4078V89.3753H67.3423V89.3971H67.2987V89.4189H67.2551V89.4407H67.2114V89.4625H67.1678V89.4843H67.1242V89.5061H67.0805V89.528H67.0151V89.5498H66.9715V89.5716H66.9278V89.5934H66.8842V89.6152H66.8406V89.637H66.7969V89.6589H66.7533V89.6807H66.7097V89.7025H66.6442V89.7243H66.6006V89.7461H66.557V89.7679H66.5133V89.7897H66.4697V89.8116H66.4261V89.8334H66.3825V89.8552H66.317V89.877H66.2734V89.8988H66.2298V89.9206H66.1643V89.9424H66.1207V89.9643H66.077V89.9861H66.0334V90.0079H65.968V90.0297H65.9243V90.0515H65.8807V90.0733H65.8153V90.0951H65.7716V90.117H65.728V90.1388H65.6844V90.1606H65.6189V90.1824H65.5753V90.2042H65.5317V90.226H65.4662V90.2479H65.4226V90.2697H65.379V90.2915H65.3353V90.3133H65.2699V90.3351H65.2263V90.3569H65.1608V90.3787H65.1172V90.4006H65.0518V90.4224H65.0081V90.4442H64.9427V90.466H64.899V90.4878H64.8554V90.5096H64.79V90.5314H64.7463V90.5533H64.6809V90.5751H64.6373V90.5969H64.5718V90.6187H64.5282V90.6405H64.4628V90.6623H64.4191V90.6841H64.3755V90.706H64.3101V90.7278H64.2664V90.7496H64.201V90.7714H64.1355V90.7932H64.0919V90.815H64.0265V90.8369H63.9828V90.8587H63.9174V90.8805H63.8519V90.9023H63.8083V90.9241H63.7429V90.9459H63.6774V90.9677H63.6338V90.9896H63.5683V91.0114H63.5029V91.0332H63.4593V91.055H63.3938V91.0768H63.3502V91.0986H63.2848V91.1204H63.2193V91.1423H63.1757V91.1641H63.1102V91.1859H63.0448V91.2077H62.9793V91.2295H62.9139V91.2513H62.8485V91.2731H62.8048V91.295H62.7394V91.3168H62.6739V91.3386H62.6085V91.3604H62.543V91.3822H62.4776V91.404H62.434V91.4259H62.3685V91.4477H62.3031V91.4695H62.2376V91.4913H62.1722V91.5131H62.1068V91.5349H62.0413V91.5567H61.9759V91.5786H61.9104V91.6004H61.845V91.6222H61.7795V91.644H61.7141V91.6658H61.6486V91.6876H61.5832V91.7094H61.5178V91.7313H61.4523V91.7531H61.3869V91.7749H61.3214V91.7967H61.2342V91.8185H61.1687V91.8403H61.1033V91.8621H61.0378V91.884H60.9724V91.9058H60.9069V91.9276H60.8197V91.9494H60.7542V91.9712H60.6888V91.993H60.6015V92.0149H60.5361V92.0367H60.4706V92.0585H60.3834V92.0803H60.3179V92.1021H60.2307V92.1239H60.1652V92.1457H60.0998V92.1676H60.0125V92.1894H59.9471V92.2112H59.8816V92.233H59.7944V92.2548H59.7071V92.2766H59.6417V92.2984H59.5544V92.3203H59.4672V92.3421H59.3799V92.3639H59.3145V92.3857H59.2272V92.4075H59.1399V92.4293H59.0745V92.4511H58.9872V92.473H58.9V92.4948H58.8345V92.5166H58.7473V92.5384H58.66V92.5602H58.5728V92.582H58.4855V92.6039H58.3764V92.6257H58.2892V92.6475H58.2019V92.6693H58.1146V92.6911H58.0274V92.7129H57.9401V92.7347H57.8529V92.7566H57.7656V92.7784H57.6783V92.8002H57.5693V92.822H57.482V92.8438H57.3729V92.8656H57.2639V92.8874H57.1766V92.9093H57.0675V92.9311H56.9803V92.9529H56.8712V92.9747H56.7839V92.9965H56.6749V93.0183H56.5658V93.0401H56.4785V93.062H56.3476V93.0838H56.2386V93.1056H56.1295V93.1274H56.0204V93.1492H55.9114V93.171H55.7805V93.1929H55.6714V93.2147H55.5623V93.2365H55.4532V93.2583H55.3223V93.2801H55.1915V93.3019H55.0606V93.3237H54.9297V93.3456H54.7988V93.3674H54.6679V93.3892H54.537V93.411H54.4061V93.4328H54.2752V93.4546H54.1443V93.4764H53.9916V93.4983H53.8389V93.5201H53.6644V93.5419H53.5117V93.5637H53.359V93.5855H53.2063V93.6073H53.0536V93.6291H52.8791V93.651H52.6828V93.6728H52.4864V93.6946H52.2901V93.7164H52.1156V93.7382H51.9192V93.76H51.7011V93.7819H51.4393V93.8037H51.1994V93.8255H50.9594V93.8473H50.7194V93.8691H50.3922V93.8909H50.065V93.9127H49.7159V93.9346H49.3233V93.9564H48.7561V93.9782H48.1016V94" fill="#FFD432"/>
<path d="M56.2734 60.8261C59.0616 60.8261 61.3256 63.0438 61.3256 65.7793C61.3256 68.5165 59.0616 70.7341 56.2734 70.7341C53.4813 70.7341 51.2181 68.5165 51.2181 65.7793C51.2181 63.0438 53.4813 60.8261 56.2734 60.8261ZM29.7645 53.2032C26.972 53.2032 24.7097 50.9853 24.7097 48.2485C24.7097 45.5133 26.972 43.2952 29.7645 43.2952C32.5545 43.2952 34.8163 45.5133 34.8163 48.2485C34.8163 50.9853 32.5545 53.2032 29.7645 53.2032ZM56.2734 23.2471C59.0616 23.2471 61.3256 25.465 61.3256 28.2C61.3256 30.937 59.0616 33.1552 56.2734 33.1552C53.4813 33.1552 51.2181 30.937 51.2181 28.2C51.2181 25.465 53.4813 23.2471 56.2734 23.2471ZM51.6157 35.6712C53.0172 36.5592 54.6832 37.0795 56.4718 37.0795C61.4225 37.0795 65.4519 33.1348 65.4519 28.2869C65.4519 23.4392 61.4225 19.4961 56.4718 19.4961C51.5204 19.4961 47.4929 23.4392 47.4929 28.2869C47.4929 29.1021 47.6151 29.8876 47.8292 30.6385L42.5078 34.3393L34.0786 40.2007C32.8212 39.5453 31.3918 39.1702 29.8677 39.1702C24.9173 39.1702 20.8889 43.1137 20.8889 47.961C20.8889 52.8087 24.9173 56.7515 29.8677 56.7515C32.0031 56.7515 33.9657 56.0172 35.507 54.7933L42.5078 59.6608L47.8292 63.3617C47.6151 64.1105 47.4929 64.8955 47.4929 65.7111C47.4929 70.5589 51.5204 74.5037 56.4718 74.5037C61.4225 74.5037 65.4519 70.5589 65.4519 65.7111C65.4519 60.8654 61.4225 56.9202 56.4718 56.9202C54.681 56.9202 53.012 57.4428 51.6104 58.33L43.9922 53.0312L38.7231 49.3668C38.7981 48.9078 38.8482 48.4411 38.8482 47.961C38.8482 46.8984 38.6438 45.8822 38.2903 44.9382L43.9922 40.9721L51.6157 35.6712Z" fill="#110066"/>
<path d="M51.2297 65.6455C51.2297 68.4787 53.565 70.7742 56.4462 70.7742C59.3231 70.7742 61.6594 68.4787 61.6594 65.6455C61.6594 62.814 59.3231 60.5185 56.4462 60.5185C53.565 60.5185 51.2297 62.814 51.2297 65.6455Z" fill="#90CBFB"/>
<path d="M24.6814 47.9315C24.6814 50.7643 27.016 53.0601 29.8978 53.0601C32.7769 53.0601 35.111 50.7643 35.111 47.9315C35.111 45.1003 32.7769 42.8044 29.8978 42.8044C27.016 42.8044 24.6814 45.1003 24.6814 47.9315Z" fill="#90CBFB"/>
<path d="M51.2297 28.352C51.2297 31.185 53.565 33.481 56.4462 33.481C59.3231 33.481 61.6594 31.185 61.6594 28.352C61.6594 25.521 59.3231 23.2253 56.4462 23.2253C53.565 23.2253 51.2297 25.521 51.2297 28.352Z" fill="#90CBFB"/>
</svg>
